SplineFontDB: 3.0
FontName: Sancreek-Regular
FullName: Sancreek Regular
FamilyName: Sancreek
Weight: Regular
Copyright: Copyright (c) 2011 by vernon adams (vern@newtypography.co.uk), with Reserved Font Names "Sancreek"
Version: 001.002
ItalicAngle: 0
UnderlinePosition: -103
UnderlineWidth: 102
Ascent: 1638
Descent: 410
sfntRevision: 0x00010000
LayerCount: 2
Layer: 0 0 "Back"  1
Layer: 1 0 "Fore"  0
XUID: [1021 14 500265001 15607529]
FSType: 0
OS2Version: 3
OS2_WeightWidthSlopeOnly: 0
OS2_UseTypoMetrics: 0
CreationTime: 1314885505
ModificationTime: 1318189580
PfmFamily: 81
TTFWeight: 400
TTFWidth: 5
LineGap: 0
VLineGap: 0
Panose: 2 0 8 3 5 0 0 2 0 3
OS2TypoAscent: 2104
OS2TypoAOffset: 0
OS2TypoDescent: -738
OS2TypoDOffset: 0
OS2TypoLinegap: 0
OS2WinAscent: 2104
OS2WinAOffset: 0
OS2WinDescent: 738
OS2WinDOffset: 0
HheadAscent: 2104
HheadAOffset: 0
HheadDescent: -738
HheadDOffset: 0
OS2SubXSize: 1331
OS2SubYSize: 1228
OS2SubXOff: 0
OS2SubYOff: 153
OS2SupXSize: 1331
OS2SupYSize: 1228
OS2SupXOff: 0
OS2SupYOff: 716
OS2StrikeYSize: 102
OS2StrikeYPos: 852
OS2Vendor: 'newt'
OS2CodePages: 20000083.00000000
OS2UnicodeRanges: 00000007.00000000.00000000.00000000
MarkAttachClasses: 1
DEI: 91125
LangName: 1033 "" "" "" "" "" "Version 1.002" "" "Sancreek is a trademark of vernon adams." "vernon adams" "vernon adams" "" "" "" "" "http://scripts.sil.org/OFL" 
GaspTable: 1 65535 15
Encoding: Custom
Compacted: 1
UnicodeInterp: none
NameList: Adobe Glyph List
DisplaySize: -48
AntiAlias: 1
FitToEm: 1
WidthSeparation: 207
WinInfo: 54 18 9
BeginPrivate: 0
EndPrivate
Grid
-2048 613.799804688 m 0
 4096 613.799804688 l 0
-2048 134 m 0
 4096 134 l 0
-2048 -69.509765625 m 0
 4096 -69.509765625 l 0
-2048 -50.509765625 m 4
 4096 -50.509765625 l 4
-2048 1372.09997559 m 0
 4096 1372.09997559 l 0
-2048 1392 m 0
 4096 1392 l 0
-2048 1586.16666667 m 0
 4096 1586.16666667 l 0
EndSplineSet

StartChar: A.alt
Encoding: 405 -1 0
Width: 1267
Flags: HW
LayerCount: 2
Fore
SplineSet
620 1562 m 0
 703 1562 787 1531 829 1456 c 1
 829 1456 889 1562 1012 1562 c 0
 1112 1562 1124 1503 1124 1503 c 1
 1056 1425 1030 1346 1030 1263 c 0
 1030 1248.2 1029.84 1233.4 1029.84 1218.344 c 0
 1029.84 1195.76 1030.2 1172.6 1032 1148 c 0
 1060 765 1149 802 1149 754 c 0
 1149 726 1085 721 1085 510 c 0
 1085 473 1089 428 1093 375 c 1
 1116 181.709511568 1159 98.2005141388 1264 10 c 5
 1264 10 1265 -50 1168 -50 c 4
 1071 -50 1001 35 1001 35 c 5
 1001 35 948 -50 834 -50 c 4
 733 -50 722 10 722 10 c 5
 759 78.3579335793 780 144.89298893 780 257 c 0
 780 406 763 527 739 610 c 1
 719 629 673 640 619 640 c 0
 573 640 530 629 510 610 c 1
 486 527 469 406 469 257 c 0
 469 144.89298893 489 78.3579335793 527 10 c 5
 527 10 516 -50 415 -50 c 4
 315 -50 268 35 268 35 c 5
 268 35 198 -50 101 -50 c 4
 4 -50 5 10 5 10 c 5
 110 98.2005141388 153 181.709511568 176 375 c 1
 184 428 184 473 184 510 c 0
 184 721 120 726 120 754 c 0
 120 802 209 765 237 1148 c 0
 238.8 1172.6 239.16 1195.76 239.16 1218.344 c 0
 239.16 1233.4 239 1248.2 239 1263 c 0
 239 1346 213 1425 145 1503 c 1
 145 1503 157 1562 257 1562 c 0
 366 1562 420 1456 420 1456 c 1
 462 1531 543 1562 620 1562 c 0
619 790 m 0
 668 790 714 799 714 817 c 0
 714 845.591049382 714.043895748 872.474508458 714.043895748 898.103763399 c 0
 714.043895748 1045.47197931 712.592592593 1151.37307098 693 1302 c 1
 684 1350 674 1372 623 1372 c 0
 572 1372 565 1350 556 1302 c 1
 536.407407407 1151.37307098 534.956104252 1045.47197931 534.956104252 898.103763399 c 0
 534.956104252 872.474508458 535 845.591049382 535 817 c 0
 535 799 578 790 619 790 c 0
EndSplineSet
EndChar

StartChar: exclam
Encoding: 23 33 2
Width: 611
Flags: HW
LayerCount: 2
Fore
SplineSet
169 1047.90039062 m 1
 189 857.803373456 255.499969482 396.900390625 305 396.900390625 c 0
 360.499969482 396.900390625 421 855.631192889 441 1047.90039062 c 1
 468.919941042 1361.6606126 469 1417.56502477 551 1532.90039062 c 1
 551 1532.90039062 547 1586.90039062 455 1586.90039062 c 0
 361 1586.90039062 305 1509.90039062 305 1509.90039062 c 1
 305 1509.90039062 249 1586.90039062 155 1586.90039062 c 0
 64 1586.90039062 59 1532.90039062 59 1532.90039062 c 1
 141 1417.56502477 140.763575452 1361.63228943 169 1047.90039062 c 1
303 -124.099609375 m 0
 303.009765625 -124.099609375 513 59.8603515625 513 59.900390625 c 2
 302 249.900390625 l 2
 301.990234375 249.900390625 91 66.9765625 91 66.900390625 c 0
 91 59.896484375 290.90234375 -124.099609375 303 -124.099609375 c 0
EndSplineSet
EndChar

StartChar: quotedbl
Encoding: 24 34 3
Width: 700
Flags: HW
LayerCount: 2
Fore
SplineSet
245 1192 m 1
 212 841 l 1
 193 820 168 810 137 810 c 1
 122 819 114 839 111 870 c 2
 88 1113 l 1
 85 1186 80 1260 80 1332 c 1
 108 1379 149 1395 204 1395 c 1
 231 1379 246 1347 246 1284 c 0
 246 1253 245 1223 245 1192 c 1
617 1192 m 1
 584 841 l 1
 564 820 539 810 508 810 c 1
 495 819 486 839 483 870 c 2
 460 1113 l 1
 457 1186 452 1260 452 1332 c 1
 480 1379 521 1395 576 1395 c 1
 603 1379 618 1347 618 1284 c 0
 618 1253 617 1223 617 1192 c 1
EndSplineSet
EndChar

StartChar: numbersign
Encoding: 25 35 4
Width: 1149
Flags: HW
LayerCount: 2
Fore
SplineSet
1064 510 m 1
 1064 381 l 1
 816 381 l 1
 747 -8 l 1
 611 -8 l 1
 679 381 l 1
 375 381 l 1
 306 -8 l 1
 169 -8 l 1
 237 381 l 1
 56 381 l 1
 56 510 l 1
 261 510 l 1
 314 807 l 1
 83 807 l 1
 83 937 l 1
 338 937 l 1
 405 1326 l 1
 542 1326 l 1
 475 937 l 1
 778 937 l 1
 845 1326 l 1
 983 1326 l 1
 915 937 l 1
 1089 937 l 1
 1089 807 l 1
 891 807 l 1
 839 510 l 1
 1064 510 l 1
755 807 m 1
 450 807 l 1
 397 510 l 1
 702 510 l 1
 755 807 l 1
EndSplineSet
EndChar

StartChar: dollar
Encoding: 26 36 5
Width: 1053
Flags: HW
LayerCount: 2
Fore
SplineSet
523 -217 m 1
 412 -217 l 1
 412 43 l 1
 523 43 l 1
 523 -217 l 1
523 1353 m 1
 412 1353 l 1
 412 1603 l 1
 523 1603 l 1
 523 1353 l 1
703 -217 m 1
 592 -217 l 1
 592 43 l 1
 703 43 l 1
 703 -217 l 1
703 1353 m 1
 592 1353 l 1
 592 1603 l 1
 703 1603 l 1
 703 1353 l 1
366 555 m 0
 342 568 350 635 275 695 c 1
 161 769 89 869 89 1008 c 0
 89 1263 264 1399 527 1399 c 0
 666 1399 923 1326 923 1081 c 0
 923 1038 909 986 909 946 c 0
 909 913 918 883 952 848 c 1
 952 848 938 835 911 835 c 0
 904 835 896 836 888 838 c 0
 785 865 744 970 744 979 c 1
 741 977 686 937 630 937 c 0
 554 937 546 988 546 996 c 2
 546 1000 l 1
 613 1010 653 1037 673 1110 c 0
 674 1116 674 1122 674 1127 c 0
 674 1188 615 1217 546 1217 c 0
 430 1217 413 1124 413 1058 c 0
 413 959 457 905 537 875 c 0
 546 871 558 870 568 870 c 0
 613 870 668 894 687 894 c 0
 708 894 707 799 774 762 c 1
 901 679 998 553 998 377 c 0
 998 146 795 4 485 4 c 0
 313 4 87 125 87 356 c 0
 87 394 98 436 98 474 c 0
 98 511 88 548 56 584 c 1
 56 584 71 598 99 598 c 0
 106 598 113 597 121 595 c 0
 225 567 252 452 252 446 c 1
 252 446 320 493 385 493 c 0
 466 493 475 439 475 430 c 0
 475 429 475 428 475 427 c 0
 427 417 370 385 370 309 c 0
 370 232 431 195 508 195 c 0
 637 195 674 286 674 335 c 0
 674 486 569 569 469 569 c 0
 424 569 389 553 373 553 c 0
 371 553 368 554 366 555 c 0
EndSplineSet
EndChar

StartChar: percent
Encoding: 27 37 6
Width: 1746
Flags: HW
LayerCount: 2
Fore
SplineSet
376 1220 m 0
 295 1220 254 1136 254 967 c 0
 254 797 295 712 376 712 c 0
 457 712 497 797 497 967 c 0
 497 1136 457 1220 376 1220 c 0
458 -16 m 1
 322 -16 l 1
 1298 1330 l 1
 1429 1330 l 1
 458 -16 l 1
1375 596 m 0
 1294 596 1253 511 1253 342 c 0
 1253 173 1294 88 1375 88 c 0
 1456 88 1497 173 1497 342 c 0
 1497 511 1456 596 1375 596 c 0
376 1340 m 0
 580 1340 688 1196 688 967 c 0
 688 738 580 594 376 594 c 0
 171 594 63 738 63 967 c 0
 63 1196 171 1340 376 1340 c 0
1375 715 m 0
 1579 715 1687 571 1687 342 c 0
 1687 114 1579 -31 1375 -31 c 0
 1170 -31 1063 114 1063 342 c 0
 1063 571 1170 715 1375 715 c 0
EndSplineSet
EndChar

StartChar: ampersand
Encoding: 28 38 7
Width: 1741
Flags: HW
LayerCount: 2
Back
SplineSet
741.446537334 1230.70106928 m 4
 844.941633777 1230.70106928 891.004703669 1076.34415344 892.43359375 1074.58203125 c 5
 892.43359375 1074.58203125 913.91542581 1128.98868788 988.881862492 1128.98868788 c 4
 1036.61778449 1128.98868788 1085.43433973 1110.76572694 1102.53808594 1079.51074219 c 5
 1029.20117188 1071.84082031 937.875 954.200195312 748.875 849.19921875 c 13
 602.706054688 998.504882812 l 21
 668.924804688 1042.15234375 701.608398438 1080.11035156 710.475585938 1113.96777344 c 4
 712.356164821 1121.1480008 713.222361415 1127.97872603 713.222361415 1134.40300467 c 4
 713.222361415 1159.13745504 700.38214744 1177.84687464 683.159179688 1187.28125 c 5
 683.159179688 1187.28125 692.240760144 1230.70106928 741.446537334 1230.70106928 c 4
556 939 m 9
 358 855 l 17
 115 1105 162 1118 93 1144 c 1
 110 1162 135 1169 165 1169 c 0
 285 1169 295 1086 295 1086 c 1
 295 1086 363 1202 453 1202 c 0
 529 1202 526 1142 526 1142 c 1
 502 1136 481 1114 481 1078 c 0
 481 1043 503 998 556 939 c 9
107 562 m 13
 224 355 l 29
 107 172 l 21
 80 250 -16 360 -16 376 c 4
 -16 384 80 487 107 562 c 13
422 225 m 13
 290 397 l 29
 407 580 l 21
 404 570 403 560 403 550 c 4
 403 469 483 411 483 397 c 4
 483 390 417 332 417 259 c 4
 417 248 418 237 422 225 c 13
812 793 m 2
 805 793 l 2
 800 793 798 795 798 798 c 0
 798 814 854 860 909 865 c 0
 913 865 917 866 921 866 c 0
 1017 866 1057 763 1057 763 c 2
 1059 762 1118 853 1285 868 c 1
 1292 868 l 2
 1341 868 1382 823 1382 799 c 0
 1382 793 1379 788 1373 786 c 4
 1205 726 1115 621 1092 432 c 4
 1069 243 948 -93 513 -93 c 4
 291 -93 72 69 72 347 c 4
 72 786 355 874 637 1020 c 4
 763.913210173 1085.64476388 828.404579652 1188.1751609 828.404579652 1276.19789291 c 0
 828.404579652 1369.19597838 756.416609581 1446 610 1446 c 0
 505 1446 427 1391.09960938 427 1257.09960938 c 0
 427 1231.03509325 426.766909469 1208.79826312 426.766909469 1189.41636716 c 0
 426.766909469 1058.58856944 437.387096774 1057.83870968 602 888 c 6
 1176 297 l 2
 1419 47 1512 0 1581 -26 c 1
 1564 -44 1539 -51 1509 -51 c 0
 1389 -51 1197 66 1197 66 c 1
 1197 66 1129 -50 1039 -50 c 0
 963 -50 966 10 966 10 c 1
 990 16 1011 38 1011 74 c 0
 1011 109 989 154 936 213 c 2
 393 813 l 2
 217 1008 160 1114.09960938 160 1233.09960938 c 0
 160 1435.09960938 376 1586 612 1586 c 0
 898 1586 1024 1421 1024 1266 c 0
 1024 1121 904 927.099609375 646 792.099609375 c 4
 388 657.099609375 382 571 382 382 c 4
 382 206 469 115 613 115 c 0
 792 115 949 276.099998474 949 459.099609375 c 4
 949 477.099609375 948 496.099609375 946 516.099609375 c 4
 929 703.099609375 905 793 812 793 c 2
EndSplineSet
Fore
SplineSet
1114.42741402 897.216712607 m 0
 1160.11596637 897.216712607 1214.32107315 894.2734375 1229.43945312 894.2734375 c 0
 1390.2109375 894.2734375 1395.83105469 951.09375 1395.83105469 1023.50292969 c 0
 1395.83105469 1077.17578125 1349.4609375 1127.73925781 1276.12402344 1142.21289062 c 1
 1300.26349556 1193.50926888 1330.67256516 1218.69647877 1376.87311897 1218.69647877 c 0
 1408.43400783 1218.69647877 1447.36421031 1206.94252035 1496.69921875 1183.72851562 c 1
 1499.80078125 1272.3828125 1579.203125 1363.95898438 1655.09277344 1363.95898438 c 0
 1669.35546875 1363.95898438 1683.90332031 1360.87890625 1698.42089844 1354.046875 c 1
 1673.54296875 1323.58496094 1656.06445312 1279.39550781 1656.06445312 1233.68652344 c 0
 1656.06445312 1164.04394531 1687.63671875 1096.34082031 1687.63671875 1019.57324219 c 0
 1687.63671875 796.354492188 1492.24023438 765.002929688 1302.3671875 765.002929688 c 0
 1285.43652344 765.002929688 1268.66699219 765.083007812 1252.2109375 765.083007812 c 1
 1322.90820312 693.456054688 1372.16503906 583.74609375 1372.16503906 466.458007812 c 0
 1372.16503906 205.489257812 1217.8135219 -93 743 -93 c 0
 493.769137283 -93 222.210479736 0 110.995289669 266.76371182 c 0
 79.0235194459 343.452049923 -4.99999987599 438.27538293 -5 453.099609375 c 0
 -5 459.275462357 52.2117400813 522.067099794 90.7241997088 584.886306379 c 1
 122.590300881 784.066674566 219.614731778 973.485576214 425.309309615 1046.1287358 c 1
 390.311723105 1096.91640505 352.09375 1156.96582031 352.09375 1218.23925781 c 0
 352.09375 1474.57519531 591.210479736 1638.32226562 897.2109375 1638.32226562 c 0
 1089.44921875 1638.32226562 1261.82711424 1528.73082089 1261.82711424 1348.11193255 c 0
 1261.82711424 1196.64877634 1160.22949219 1081.26171875 1004.63671875 1081.26171875 c 0
 817.004882812 1081.26171875 847.271484375 1159.8984375 635.470703125 1200.07519531 c 1
 641.08203125 1248.44140625 681.541015625 1275.60742188 720.305664062 1275.60742188 c 0
 742.938435798 1275.60742188 791.27734375 1275.22460938 791.27734375 1275.22460938 c 1
 791.27734375 1328.703125 822.295772666 1410.60412093 870.223520556 1410.60412093 c 0
 900.726901472 1410.60412093 911.470703125 1394.07519531 911.470703125 1394.07519531 c 1
 902.915039062 1370.97558594 900.627929688 1373.87597656 900.627929688 1343.88769531 c 0
 900.627929688 1296.83886719 936.392578125 1271.78515625 979.124023438 1271.78515625 c 0
 1046.67595769 1271.78515625 1077.74203226 1311.95898197 1077.74203226 1360.06795631 c 0
 1077.74203226 1431.85977964 1008.56145982 1521.32226562 888.2109375 1521.32226562 c 0
 694.022110148 1521.32226562 519.964598132 1411.3915415 519.964598132 1242.44275026 c 0
 519.964598132 1196.55418032 532.805385098 1146.31165623 561.571289062 1092.73535156 c 1
 586.93359375 1095.765625 593.546875 1097.34082031 621.458984375 1097.34082031 c 0
 726.210479736 1097.34082031 774 1037.8046875 774 973 c 0
 774 936.453125 704.904296875 904.481445312 649.264648438 904.481445312 c 0
 598.9140625 904.481445312 549.076171875 922.444335938 505.4453125 951.540039062 c 1
 440.34375 906.416015625 363 813.083312988 363 654.099609375 c 0
 363 573.099609375 465 529.099609375 465 515.099609375 c 0
 465 510.53950605 416.743800848 448.215535226 416.743800848 395.757141097 c 0
 416.743800848 241.531821754 625.30622604 167.108170899 771.455757348 167.108170899 c 0
 980.334485717 167.108170899 1202.37207031 285.001726312 1202.37207031 520.514648438 c 0
 1202.37207031 651.599609375 1132.12792969 747.3359375 1051.65332031 747.3359375 c 0
 926.172876821 747.3359375 876.187057995 686.884361676 876.187057995 621.817127183 c 0
 876.187057995 554.596172803 929.536694144 482.448947006 1008.109375 466.94140625 c 1
 997.815429688 445.067382812 980.466796875 437.377929688 960.875976562 437.377929688 c 0
 813.40675107 437.377929688 735.422047497 528.619622559 735.422047497 629.816737665 c 0
 735.422047497 755.801802864 856.290035256 897.216712607 1114.42741402 897.216712607 c 0
EndSplineSet
EndChar

StartChar: quoteright
Encoding: 373 8217 8
Width: 453
Flags: HW
LayerCount: 2
Fore
SplineSet
88 853 m 1
 88 947 l 1
 191 972 250 1026 250 1149 c 1
 248 1149 l 1
 221 1136 179 1132 140 1132 c 1
 109 1173 78 1239 78 1319 c 1
 99 1362 152 1395 216 1395 c 0
 267 1395 311 1381 350 1360 c 1
 367 1297 377 1229 377 1158 c 0
 377 974 264 869 88 853 c 1
EndSplineSet
EndChar

StartChar: parenleft
Encoding: 30 40 9
Width: 709
Flags: HW
LayerCount: 2
Fore
SplineSet
659 1608 m 1
 659 1467 l 1
 385 1342 308 1034 308 694 c 0
 308 355 385 44 659 -78 c 1
 659 -219 l 1
 271 -110 69 265 69 694 c 0
 69 1122 271 1499 659 1608 c 1
EndSplineSet
EndChar

StartChar: parenright
Encoding: 31 41 10
Width: 711
Flags: HW
LayerCount: 2
Fore
SplineSet
51 -219 m 1
 51 -78 l 1
 325 44 402 355 402 694 c 0
 402 1034 325 1342 51 1467 c 1
 51 1608 l 1
 438 1499 641 1123 641 694 c 0
 641 266 438 -112 51 -219 c 1
EndSplineSet
EndChar

StartChar: asterisk
Encoding: 32 42 11
Width: 866
Flags: HW
LayerCount: 2
Fore
SplineSet
670 412 m 1
 668 408 l 1
 440 550 l 1
 203 406 l 1
 202 409 l 1
 266 667 l 1
 56 849 l 1
 324 869 l 1
 432 1125 l 1
 534 876 l 1
 810 853 l 1
 605 679 l 1
 670 412 l 1
EndSplineSet
EndChar

StartChar: plus
Encoding: 33 43 12
Width: 1162
Flags: HW
LayerCount: 2
Fore
SplineSet
500 655 m 1
 500 1087 l 1
 663 1087 l 1
 663 655 l 1
 1095 655 l 1
 1095 492 l 1
 663 492 l 1
 663 60 l 1
 500 60 l 1
 500 492 l 1
 68 492 l 1
 68 655 l 1
 500 655 l 1
EndSplineSet
EndChar

StartChar: comma
Encoding: 34 44 13
Width: 470
Flags: HW
LayerCount: 2
Fore
SplineSet
96 -283 m 1
 96 -189 l 1
 199 -163 258 -109 258 13 c 1
 256 13 l 1
 229 1 187 -3 148 -3 c 1
 117 38 86 103 86 183 c 1
 107 226 160 259 224 259 c 0
 275 259 319 245 358 224 c 1
 375 161 385 93 385 22 c 0
 385 -160 272 -267 96 -283 c 1
EndSplineSet
EndChar

StartChar: hyphen
Encoding: 35 45 14
Width: 838
Flags: HW
LayerCount: 2
Fore
SplineSet
113 548 m 1
 113 548 88 551 88 594 c 2
 88 690 l 2
 88 733 113 736 113 736 c 1
 181 726 302 723 429 723 c 0
 545 723 671 729 723 736 c 1
 723 736 748 733 748 690 c 2
 748 594 l 2
 748 550 723 548 723 548 c 1
 676 554 544 561 426 561 c 0
 297 561 175 558 113 548 c 1
EndSplineSet
EndChar

StartChar: period
Encoding: 36 46 15
Width: 529
Flags: HW
LayerCount: 2
Fore
SplineSet
266 326 m 4
 266.008789062 326 477 142.040039062 477 142 c 6
 266 -48 l 6
 265.990234375 -48 54 134.923828125 54 135 c 4
 54 142.004882812 253.90234375 326 266 326 c 4
EndSplineSet
EndChar

StartChar: slash
Encoding: 37 47 16
Width: 916
Flags: HW
LayerCount: 2
Fore
SplineSet
318.522967758 35.0017897819 m 0
 318.522967758 -44.3423756583 386.230740853 -116.700195312 241.59375 -116.700195312 c 0
 160.117037384 -116.700195312 151.604189322 -76.0272237392 151.604189322 -59.0288537215 c 0
 151.604189322 -54.5384810592 152.198242188 -51.7001953125 152.198242188 -51.7001953125 c 1
 152.198242188 -51.7001953125 115.59375 -116.700195312 11.59375 -116.700195312 c 0
 -39.0986986192 -116.700195312 -51.5955415782 -101.281811589 -51.5955415782 -86.077166532 c 0
 -51.5955415782 -75.9670363057 -41.6408025792 -58.0834767001 -39.771484375 -56.7001953125 c 0
 92.2697940017 41.0093558874 304.7159224 485.62436593 304.7159224 696.226581977 c 0
 304.7159224 733.280290028 297.338671691 749.925358546 297.338671691 763.152257336 c 1
 297.338671691 763.152257336 630.613491455 1235.10600645 630.613491455 1487.85444883 c 0
 630.613491455 1564.89511373 556.941348599 1639.29980469 703.315429688 1639.29980469 c 0
 784.511154216 1639.29980469 793.41312378 1599.67993881 793.41312378 1582.3048939 c 0
 793.41312378 1577.4250149 792.7109375 1574.29980469 792.7109375 1574.29980469 c 1
 792.7109375 1574.29980469 830.315429688 1639.29980469 933.315429688 1639.29980469 c 0
 985.21046307 1639.29980469 997.956919949 1624.0275958 997.956919949 1609.02328797 c 0
 997.956919949 1598.74381066 986.65709149 1581.77954383 986.07421875 1580.29980469 c 0
 851.233782069 1485.1170773 650.562832329 1046.94927076 650.562832329 854.636893617 c 0
 650.562832329 817.369003284 658.940128824 802.230213447 658.940128824 787.33881288 c 0
 658.940128824 731.096538715 556.946004996 721.92880867 415.28125 362.299804688 c 0
 358.165479126 217.30637342 318.522967758 115.413358654 318.522967758 35.0017897819 c 0
EndSplineSet
EndChar

StartChar: zero
Encoding: 38 48 17
Width: 1263
Flags: HW
LayerCount: 2
Fore
SplineSet
479 388 m 0
 479 173 479 65 639 65 c 0
 800 65 801 185 801 399 c 0
 801 708 716 740 716 755 c 0
 716 788 801 783 801 1135 c 0
 801 1351 799 1441 639 1441 c 0
 480 1441 478 1351 478 1135 c 0
 478 783 562 788 562 755 c 0
 562 733 479 694 479 388 c 0
1104 421 m 0
 1104 94 871 -69 639 -69 c 0
 406 -69 174 94 174 421 c 0
 174 708 50 734 50 748 c 0
 50 773 174 779 174 1077 c 0
 174 1416 407 1587 639 1587 c 0
 872 1587 1104 1417 1104 1077 c 0
 1104 784 1214 772 1214 748 c 0
 1214 746 1211 744 1205 739 c 0
 1172 714 1104 659 1104 421 c 0
EndSplineSet
EndChar

StartChar: one
Encoding: 39 49 18
Width: 650
Flags: HW
LayerCount: 2
Fore
SplineSet
177 375 m 4
 177 726 68 722 68 756 c 4
 68 801 177 770 177 1148 c 4
 177 1338 146 1415 56 1503 c 5
 56 1503 60 1562 161 1562 c 4
 265 1562 326 1477 326 1477 c 5
 326 1477 388 1562 491 1562 c 4
 593 1562 597 1503 597 1503 c 5
 507 1415 476 1338 476 1148 c 4
 476 770 585 801 585 756 c 4
 585 722 476 726 476 375 c 4
 476 169 507 80 597 -14 c 5
 597 -14 593 -74 491 -74 c 4
 388 -74 326 11 326 11 c 5
 326 11 265 -74 161 -74 c 4
 61 -74 56 -14 56 -14 c 5
 146 80 177 169 177 375 c 4
EndSplineSet
EndChar

StartChar: two
Encoding: 40 50 19
Width: 1164
Flags: HW
LayerCount: 2
Fore
SplineSet
1056 1157 m 0
 1056 836 875 647 443 246 c 1
 530 246 699 240 785 240 c 0
 912 240 974 278 1041 367 c 1
 1041 367 1114 347 1114 291 c 0
 1114 199 961 133 944 129 c 1
 961 116 1024 67 1024 2 c 0
 1024 -61 997 -72 990 -74 c 1
 917 -20 853 0 796 0 c 0
 719.660565724 0 587.985182765 -70.1174692207 476.808052445 -70.1174692207 c 0
 407.397465677 -70.1174692207 345.976705491 -42.7870216306 311 46 c 1
 311 46 203 -76 125 -76 c 0
 96 -76 56 -50 56 -1 c 0
 56 7 57 14 61 24 c 1
 332 294 724 731 724 1016 c 0
 724 1138 615 1148 615 1165 c 0
 615 1174 708 1251 708 1310 c 2
 708 1318 l 1
 694 1430 611 1508 503 1508 c 0
 380 1508 321 1416 321 1320 c 0
 321 1213 392 1102 527 1102 c 0
 532 1102 539 1102 545 1103 c 1
 545 1098 549 1022 433 1022 c 0
 370.997453071 1022 312.996828529 1056.00447316 309.999062917 1056.00447316 c 0
 309.790242816 1056.00447316 274.626865672 890 150 890 c 0
 124 890 111 901 111 901 c 1
 139 934 151 964 151 999 c 0
 151 1045 103 1143 103 1232 c 0
 103 1479 354 1586 547 1586 c 0
 855 1586 1056 1385 1056 1157 c 0
EndSplineSet
EndChar

StartChar: three
Encoding: 41 51 20
Width: 1139
Flags: HW
LayerCount: 2
Fore
SplineSet
606 833 m 0
 666 833 732 910 732 1016 c 0
 732 1138 623 1148 623 1165 c 0
 623 1174 716 1251 716 1310 c 2
 716 1318 l 1
 702 1430 619 1508 511 1508 c 0
 388 1508 329 1416 329 1320 c 0
 329 1213 400 1102 535 1102 c 0
 540 1102 547 1102 553 1103 c 1
 553 1098 557 1022 441 1022 c 0
 378.997453071 1022 320.996828529 1056.00447316 317.999062917 1056.00447316 c 0
 317.790242816 1056.00447316 282.626865672 890 158 890 c 0
 133 890 119 901 119 901 c 1
 147 934 159 964 159 999 c 0
 159 1045 111 1143 111 1232 c 0
 111 1479 362 1586 555 1586 c 0
 863 1586 1064 1385 1064 1157 c 0
 1064 1023 995 879 839 761 c 1
 1000 642 1071 498 1071 362 c 0
 1071 130 864 -74 550 -74 c 0
 301 -74 62 60 62 332 c 0
 62 413 115 488 115 559 c 0
 115 589 106 620 81 654 c 1
 81 654 95 664 118 664 c 0
 205 664 275 557 276 477 c 1
 276 477 342 512 406 512 c 0
 505 512 515 450 515 434 c 2
 515 426 l 1
 393 418 336 307 336 202 c 0
 336 102 387 7 485 7 c 0
 602 7 709 101 709 230 c 0
 709 292 623 353 623 362 c 0
 623 378 730 390 730 516 c 0
 730 623 669 705 606 705 c 0
 549 705 524 686 495 686 c 0
 466 686 450 722 450 767 c 0
 450 814 465 852 502 852 c 0
 529 852 553 833 606 833 c 0
EndSplineSet
EndChar

StartChar: four
Encoding: 42 52 21
Width: 1243
Flags: HW
LayerCount: 2
Fore
SplineSet
798 1091 m 1
 800 1091 l 1
 800 1091 864 1228 970 1228 c 0
 1042 1228 1046 1174 1046 1174 c 1
 978 1078 956 1004 956 812 c 2
 956 515 l 1
 958 515 l 2
 1051 515 1098 538 1146 584 c 1
 1146 584 1186 580 1186 514 c 0
 1186 455 1134 419 1129 416 c 1
 1131 414 1186 377 1186 317 c 0
 1186 251 1146 246 1146 246 c 1
 1077 311 1020 336 967 336 c 2
 956 336 l 1
 960 158 989 76 1066 -13 c 1
 1066 -13 1062 -67 970 -67 c 0
 876 -67 820 10 820 10 c 1
 820 10 764 -67 670 -67 c 0
 579 -67 574 -13 574 -13 c 1
 646 71 676 149 682 307 c 1
 675 308 668 308 661 308 c 0
 589 308 513 246 445 246 c 0
 387 246 335 270 298 360 c 1
 298 360 240 246 142 246 c 0
 76 246 53 277 53 324 c 0
 53 428 124 503 193 586 c 1
 390 1068 l 2
 411.391022909 1120.1940959 419.685207838 1174.66590275 419.685207838 1226.8215785 c 0
 419.685207838 1357.53119621 367.591454449 1473.69375919 339 1503 c 1
 339 1503 356 1562 433 1562 c 0
 552 1562 565 1477 565 1477 c 1
 581 1542 637 1565 692 1565 c 0
 732.606668163 1565 802.555767522 1543.52992839 802.555767522 1524.80723166 c 0
 802.555767522 1521.39835533 800.236943384 1518.08055493 795 1515 c 0
 585 1391 278 516 278 516 c 1
 278 516 443 516 684 515 c 1
 682 812 l 1
 682 974 660 1036 592 1114 c 1
 592 1114 596 1168 668 1168 c 0
 750 1168 798 1091 798 1091 c 1
EndSplineSet
EndChar

StartChar: five
Encoding: 43 53 22
Width: 1119
Flags: HW
LayerCount: 2
Fore
SplineSet
719 643 m 0
 719 833 620 907 510 907 c 0
 416 907 314 855 254 776 c 0
 239 756 217 746 196 746 c 0
 160 746 126 772 126 817 c 0
 126 820 126 824 127 1509 c 1
 646 1476 l 1
 813 1476 888 1493 966 1546 c 1
 966 1546 1020 1542 1020 1470 c 0
 1020 1383 943 1349 943 1349 c 1
 943 1349 1020 1314 1020 1250 c 0
 1020 1138 974 1122 974 1122 c 1
 908 1209 844 1231 778 1231 c 0
 672 1231 567 1209 468 1209 c 0
 405 1209 341 1221 283 1266 c 1
 283 911 l 1
 393 973 497 1000 591 1000 c 0
 866 1000 1053 760 1053 438 c 0
 1053 161 894 -74 551 -74 c 0
 302 -74 63 36 63 315 c 0
 63 392 116 464 116 532 c 0
 116 562 107 593 82 627 c 1
 82 627 96 637 119 637 c 0
 206 637 276 530 277 450 c 1
 277 450 343 485 407 485 c 0
 488 485 496 375 496 347 c 2
 496 339 l 1
 479 347 463 351 449 351 c 0
 372 351 339 244 339 181 c 0
 339 75 442 13 543 13 c 0
 649 13 757 80 757 234 c 0
 757 446 631 468 631 488 c 0
 631 498 719 580 719 643 c 0
EndSplineSet
EndChar

StartChar: six
Encoding: 44 54 23
Width: 1170
Flags: HW
LayerCount: 2
Fore
SplineSet
140 728 m 0
 140 771 136 819 136 860 c 0
 136 1369 412 1552 658 1552 c 0
 857 1552 1037 1432 1037 1267 c 0
 1037 1208 1020 1142 980 1069 c 0
 976 1061 974 1051 974 1041 c 0
 974 1020 980 995 980 970 c 1
 980 970 974 969 968 969 c 0
 871 969 853 1081 853 1128 c 0
 853 1156 857 1177 857 1177 c 1
 857 1177 834 1172 802 1172 c 0
 679 1172 658 1237 658 1264 c 0
 658 1278 662 1284 662 1285 c 1
 675 1281 688 1279 702 1279 c 0
 748 1279 824 1312 824 1364 c 0
 824 1400 783 1427 708 1427 c 0
 591 1427 425 1352 425 1117 c 0
 425 1067 432 1011 449 946 c 1
 496 963 550 972 605 972 c 0
 822 972 1005 864 1025 672 c 0
 1044 493 1122 486 1122 471 c 0
 1122 455 1035 457 1035 277 c 0
 1035 15 822 -80 596 -80 c 0
 370 -80 137 15 137 277 c 0
 137 457 50 455 50 471 c 0
 50 487 140 532 140 728 c 0
515 461 m 0
 515 448 428 451 428 282 c 0
 428 131 492 55 595 55 c 0
 695 55 754 127 754 282 c 0
 754 451 666 447 666 461 c 0
 666 474 764 478 764 638 c 0
 764 767 702 832 600 832 c 0
 499 832 438 768 438 638 c 0
 438 478 515 474 515 461 c 0
EndSplineSet
EndChar

StartChar: seven
Encoding: 45 55 24
Width: 1120
Flags: HW
LayerCount: 2
Fore
SplineSet
1066 1472 m 0
 746 922 558 568 558 270 c 0
 558 162 583 61 635 -40 c 0
 635 -41 636 -43 636 -44 c 0
 636 -57 608 -67 569 -67 c 0
 503 -67 407 -38 366 51 c 1
 310 -22 184 -67 119 -67 c 0
 95 -67 79 -61 79 -47 c 0
 79 -41 82 -33 90 -23 c 0
 169 77 348 487 348 731 c 0
 348 768 345 787 335 832 c 1
 564 905 744 1173 812 1305 c 1
 812 1305 575 1304 413 1304 c 0
 257 1304 180 1240 93 1112 c 1
 93 1112 62 1130 62 1186 c 0
 62 1280 131 1357 139 1363 c 1
 133 1366 62 1416 62 1485 c 0
 62 1542 85 1557 95 1560 c 1
 194 1506 274 1488 353 1488 c 0
 462 1488 594 1557 698 1557 c 0
 764 1557 818 1529 847 1438 c 1
 847 1438 941 1561 1011 1561 c 0
 1035 1561 1074 1535 1074 1499 c 0
 1074 1491 1071 1481 1066 1472 c 0
EndSplineSet
EndChar

StartChar: eight
Encoding: 46 56 25
Width: 1096
Flags: HW
LayerCount: 2
Fore
SplineSet
94 1190 m 0
 94 1446 339 1585 570 1585 c 0
 776 1585 971 1473 971 1252 c 0
 971 1098 847 954 682 872 c 1
 939 756 1038 564 1038 347 c 0
 1038 45 790 -85 511 -85 c 0
 211 -85 63 95 63 290 c 0
 63 464 163 647 358 750 c 1
 196 853 94 1005 94 1190 c 0
689 318 m 0
 689 559 555 627 417 704 c 1
 384 637 341 567 341 477 c 4
 341 387 405 356 405 340 c 4
 405 332 342 280 342 195 c 4
 342 97 426 31 517 31 c 0
 599 31 689 110 689 318 c 0
405 1266 m 0
 405 1111 440 1035 621 919 c 1
 672 973 738 1037 738 1106 c 0
 738 1187 665 1234 665 1240 c 0
 665 1254 742 1279 742 1354 c 0
 742 1430 664 1477 581 1477 c 0
 497 1477 405 1416 405 1266 c 0
EndSplineSet
EndChar

StartChar: nine
Encoding: 47 57 26
Width: 1168
Flags: HW
LayerCount: 2
Fore
SplineSet
1029 744 m 0
 1029 701 1033 653 1033 612 c 0
 1033 103 757 -80 511 -80 c 0
 312 -80 132 40 132 205 c 0
 132 264 149 330 189 403 c 0
 193 411 195 421 195 431 c 0
 195 452 189 477 189 502 c 1
 189 502 195 503 201 503 c 0
 298 503 316 391 316 344 c 0
 316 316 312 295 312 295 c 1
 312 295 335 300 367 300 c 0
 490 300 511 235 511 208 c 0
 511 194 507 188 507 187 c 1
 494 191 481 193 467 193 c 0
 421 193 345 160 345 108 c 0
 345 72 386 45 461 45 c 0
 578 45 744 120 744 355 c 0
 744 405 737 461 720 526 c 1
 673 509 619 500 564 500 c 0
 347 500 164 608 144 800 c 0
 125 979 47 986 47 1001 c 0
 47 1017 134 1015 134 1195 c 0
 134 1457 347 1552 573 1552 c 0
 799 1552 1032 1457 1032 1195 c 0
 1032 1015 1119 1017 1119 1001 c 0
 1119 985 1029 940 1029 744 c 0
654 1011 m 0
 654 1024 741 1021 741 1190 c 0
 741 1341 677 1417 574 1417 c 0
 474 1417 415 1345 415 1190 c 0
 415 1021 503 1025 503 1011 c 0
 503 998 405 994 405 834 c 0
 405 705 467 640 569 640 c 0
 670 640 731 704 731 834 c 0
 731 994 654 998 654 1011 c 0
EndSplineSet
EndChar

StartChar: colon
Encoding: 48 58 27
Width: 441
Flags: HW
LayerCount: 2
Fore
SplineSet
225 326 m 0
 225.008789062 326 436 142.040039062 436 142 c 2
 225 -48 l 2
 224.990234375 -48 13 134.923828125 13 135 c 0
 13 142.004882812 212.90234375 326 225 326 c 0
225 1006.09960938 m 4
 225.008789062 1006.09960938 436 822.139648438 436 822.099609375 c 6
 225 632.099609375 l 6
 224.990234375 632.099609375 13 815.0234375 13 815.099609375 c 4
 13 822.104492188 212.90234375 1006.09960938 225 1006.09960938 c 4
EndSplineSet
EndChar

StartChar: semicolon
Encoding: 49 59 28
Width: 459
Flags: HW
LayerCount: 2
Fore
SplineSet
225 1006.09960938 m 0
 225.008789062 1006.09960938 436 822.139648438 436 822.099609375 c 2
 225 632.099609375 l 2
 224.990234375 632.099609375 13 815.0234375 13 815.099609375 c 0
 13 822.104492188 212.90234375 1006.09960938 225 1006.09960938 c 0
89 -283 m 1
 89 -189 l 1
 192 -163 251 -109 251 13 c 1
 249 13 l 1
 222 1 180 -3 141 -3 c 1
 110 38 79 103 79 183 c 1
 100 226 153 259 217 259 c 0
 268 259 312 245 351 224 c 1
 368 161 378 93 378 22 c 0
 378 -160 265 -267 89 -283 c 1
EndSplineSet
EndChar

StartChar: less
Encoding: 50 60 29
Width: 1209
Flags: HW
LayerCount: 2
Fore
SplineSet
1135 216 m 1
 1135 41 l 1
 66 498 l 1
 66 648 l 1
 1135 1107 l 1
 1135 931 l 1
 290 573 l 1
 1135 216 l 1
EndSplineSet
EndChar

StartChar: equal
Encoding: 51 61 30
Width: 1215
Flags: HW
LayerCount: 2
Fore
SplineSet
1121 870 m 1
 1121 707 l 1
 94 707 l 1
 94 870 l 1
 1121 870 l 1
1121 441 m 1
 1121 278 l 1
 94 278 l 1
 94 441 l 1
 1121 441 l 1
EndSplineSet
EndChar

StartChar: greater
Encoding: 52 62 31
Width: 1208
Flags: HW
LayerCount: 2
Fore
SplineSet
74 216 m 1
 919 573 l 1
 74 931 l 1
 74 1106 l 1
 1143 648 l 1
 1143 498 l 1
 74 41 l 1
 74 216 l 1
EndSplineSet
EndChar

StartChar: question
Encoding: 53 63 32
Width: 1043
Flags: HW
LayerCount: 2
Fore
SplineSet
671 1188 m 0
 671 1050.71082191 641.966381976 914.283203125 530.99609375 914.283203125 c 0
 485.625473322 914.283203125 434.736887495 943 418 943 c 0
 399.842105263 943 397.026790571 849.955326564 343 797 c 0
 279.974494229 735.224421538 261.574040388 647.43481742 261.574040388 565.548199165 c 0
 261.574040388 468.454051556 286 381.12774869 286 362 c 0
 286 316.79296875 322.836914062 294.545898438 357.73828125 294.545898438 c 0
 389.153320312 294.545898438 419 312.5703125 419 348.099609375 c 0
 419 487.6640625 454.999969482 613.799804688 605 613.799804688 c 0
 655 613.799804688 719 597 737 597 c 0
 741 597 741 598 745 599 c 1
 771 614 764.171544104 684.609520635 845 753 c 0
 951.755650549 843.327967237 1017 980.344660194 1017 1155 c 0
 1017 1434 822.80078125 1585 506 1585 c 0
 349.864257812 1585 102 1482 102 1242 c 0
 102 1159.49316406 150 1068.64355469 150 1026 c 0
 150 984.928710938 135 949.724609375 100 911 c 1
 100 911 117.58984375 917 149 917 c 0
 274 917 309 1083 309 1083 c 1
 312 1079 370 1049 432 1049 c 0
 548 1049 544 1125 544 1130 c 1
 476 1133.51464844 389 1161.62890625 389 1253 c 0
 389 1330 456.592773438 1365 514 1365 c 0
 651 1365 671 1261 671 1188 c 0
377 175.599609375 m 0
 377.009765625 175.599609375 588 -8.3603515625 588 -8.400390625 c 2
 377 -198.400390625 l 2
 376.990234375 -198.400390625 165 -15.4765625 165 -15.400390625 c 0
 165 -8.396484375 364.90234375 175.599609375 377 175.599609375 c 0
EndSplineSet
EndChar

StartChar: at
Encoding: 54 64 33
Width: 1798
Flags: HW
LayerCount: 2
Fore
SplineSet
659 496 m 0
 659 356 731 268 825 268 c 0
 997 268 1123 555 1123 733 c 0
 1123 862 1067 938 961 938 c 0
 781 938 659 682 659 496 c 0
1172 923 m 1
 1200 1038 l 1
 1367 1038 l 1
 1214 379 l 1
 1211 371 1210 363 1210 354 c 0
 1210 309 1230 266 1281 266 c 0
 1395 266 1598 475 1598 748 c 0
 1598 1046 1336 1319 948 1319 c 0
 566 1319 245 1034 245 553 c 0
 245 175 520 -106 971 -106 c 0
 1224 -106 1404 -32 1536 95 c 1
 1642 49 l 1
 1485 -121 1278 -237 973 -237 c 0
 349 -237 64 163 64 557 c 0
 64 985 366 1446 952 1446 c 0
 1415 1446 1732 1132 1732 747 c 0
 1732 463 1523 140 1230 140 c 0
 1099 140 1038 225 1038 298 c 1
 1036 298 l 1
 981 230 876 145 760 142 c 1
 656 142 531 203 499 379 c 1
 487 416 480 458 480 503 c 0
 480 763 682 1067 947 1067 c 0
 1058 1067 1121 1007 1172 923 c 1
EndSplineSet
EndChar

StartChar: A
Encoding: 55 65 34
Width: 1261
Flags: HW
LayerCount: 2
Fore
SplineSet
764 202 m 0
 764 358.382884206 736.122974159 378.480223176 690.15625 565.249023438 c 1
 687.771484375 565.249023438 685.385742188 565.25 683 565.25 c 2
 454.108398438 564.166015625 l 1
 425.974406756 444.918289808 392 349.496690653 392 220 c 0
 392 142 411.698242188 69 465 9 c 1
 465 9 450 -50 384 -50 c 0
 284.436523438 -50 255 55 255 55 c 1
 255 55 150 -50 53 -50 c 0
 -10 -50 -17 -13 -17 2 c 2
 -17 9 l 1
 94 97 137.725585938 175.663085938 191 364 c 2
 242.895507812 547.4609375 l 1
 199.62109375 536.461914062 165.626953125 519.46875 134 495 c 1
 134 495 107 498 107 546 c 0
 107 597.763671875 177 629 177 629 c 1
 177 629 107 662.224609375 107 717 c 0
 107 765 134 768 134 768 c 1
 175.837890625 735.631835938 221.818359375 716.345703125 287.942382812 706.709960938 c 1
 404 1117 l 2
 426.7578125 1197.45507812 443 1254.19140625 443 1325 c 0
 443 1381 430 1439 390 1502 c 1
 390 1506 l 2
 390 1519 397 1562 503 1562 c 0
 588.813476562 1562 660 1447 660 1447 c 1
 660 1447 705 1562 849 1562 c 0
 911.181640625 1562 921 1502 921 1502 c 1
 900.63671875 1443.08300781 892.05078125 1382.328125 892.05078125 1313.62402344 c 0
 892.05078125 1260.45410156 892.335535255 1201.65180538 906 1137 c 0
 983.328699318 771.128367875 1099 792.095831623 1099 752 c 0
 1099 724 1047 725 1047 592 c 0
 1047 358.494904457 1160.04992971 109.599425245 1280 9 c 1
 1279 6 1287 -50 1188 -50 c 0
 1076 -50 981 55 981 55 c 1
 981 55 937 -50 820 -50 c 0
 718 -50 701 9 701 9 c 1
 749 67 764 133 764 202 c 0
657.557617188 698.0078125 m 1
 617.01953125 863.493164062 576.08203125 1032.18457031 572 1054 c 1
 572 1054 530.40625 884.114257812 485.961914062 698.216796875 c 1
 522.541992188 697.912109375 559.122070312 697.795898438 595.702148438 697.795898438 c 2
 657.557617188 698.0078125 l 1
EndSplineSet
EndChar

StartChar: B
Encoding: 56 66 35
Width: 1149
Flags: HW
LayerCount: 2
Fore
SplineSet
888 761 m 1
 993 750 1044 612 1044 569 c 0
 1044 498 1131 420 1131 408 c 0
 1131 384 1044 326 1044 193 c 0
 1044 29.477443609 867 -50 664 -50 c 0
 557 -50 421 -38 350 65 c 1
 350 65 275 -50 163 -50 c 0
 90 -50 59 1 59 1 c 1
 146 77.4338235294 179 196.330882353 179 386 c 0
 179 727 70 723 70 756 c 0
 70 801 179 772 179 1151 c 0
 179 1334 148 1417 58 1503 c 1
 58 1503 62 1562 163 1562 c 0
 280 1562 350 1459 350 1459 c 1
 421 1548.29887426 557 1562.09960938 664 1562.09960938 c 0
 862 1562.09960938 1034 1495.7335581 1034 1323 c 0
 1034 1209 1131 1152 1131 1130 c 0
 1131 1116 1044 1088 1044 958 c 0
 1044 894 993 772 888 761 c 1
477 853 m 1
 575 853 l 2
 749 853 764 1007 764 1137 c 0
 764 1152.35416667 765.155381944 1173.01258681 765.155381944 1195.73778393 c 0
 765.155381944 1272.17708333 752.083333333 1372 638 1372 c 0
 480 1372 478 1285 478 1220 c 0
 478 870 477 853 477 853 c 1
477 682 m 1
 477 682 478 659 478 309 c 0
 478 234.920245399 480 134 638 134 c 4
 753.284210526 134 766.026149584 250.918159967 766.026149584 337.255666194 c 0
 766.026149584 361.756850394 765 383.795275591 765 400 c 0
 765 545 747 683 516 683 c 0
 491 683 477 682 477 682 c 1
EndSplineSet
EndChar

StartChar: C
Encoding: 57 67 36
Width: 1106
Flags: HW
LayerCount: 2
Fore
SplineSet
456 395 m 0
 456 205.26618705 457 97 598 97 c 0
 691 97 699 178.23046875 699 273 c 0
 699 383 684 533 595 545 c 1
 595 547 593 608 702 608 c 0
 772 608 819 550 819 550 c 2
 821.6875 548.66796875 886 628 998 628 c 0
 1046 628 1055 597 1055 597 c 1
 994.424916251 515.656316109 991 399.402257427 991 269 c 0
 991 -28.4326171875 739 -93 585 -93 c 0
 324 -93 148 49.842217484 148 396 c 0
 148 728 39 724 39 756 c 0
 39 796 148 770 148 1096 c 0
 148 1485 362 1586 602 1586 c 0
 751 1586 987 1527 987 1235 c 0
 987 1108.66037366 1001.89680929 984.301408614 1065 907 c 1
 1065 907 1057 875 1007 875 c 0
 894 875 828 954 828 950 c 1
 828 950 757 891 681 891 c 0
 601.708260624 891 588.27342556 915.080897014 588.27342556 930.601496619 c 0
 588.27342556 949.287020888 698 1065.88683861 698 1226 c 0
 698 1315 689 1392 596 1392 c 0
 467 1392 455 1290 455 1174 c 0
 455 779 565 811 565 765 c 0
 565 732 456 736 456 395 c 0
EndSplineSet
EndChar

StartChar: D
Encoding: 58 68 37
Width: 1211
Flags: HW
LayerCount: 2
Fore
SplineSet
490 362 m 4
 490 228.24 493 134 621 134 c 0
 750.116788321 134 752.001704939 213.226911943 752.001704939 357.780666413 c 0
 752.001704939 362.12814775 752 366.534718323 752 371 c 4
 752 723.679012346 676 720.827160494 676 756 c 0
 676 809.01142705 752 762.001293628 752 1218.09960938 c 0
 752 1258.09960938 752 1372.09960938 630 1372.09960938 c 0
 492 1372.09960938 490 1285.09960938 490 1220.09960938 c 0
 490 763.001502728 566 807.010948444 566 756 c 0
 566 719.835748792 490 724.594202899 490 362 c 4
180 386 m 0
 180 727 71 723 71 756 c 0
 71 802 180 773 180 1163 c 0
 180 1341 149 1419 59 1503 c 1
 59 1503 63 1562 164 1562 c 0
 275 1562 342 1462 342 1462 c 1
 419 1549.18353075 563 1562.09960938 678 1562.09960938 c 0
 893 1562.09960938 1082 1472.03555961 1082 1126 c 0
 1082 770 1169 799 1169 756 c 0
 1169 723 1082 727 1082 386 c 0
 1082 77.9565217391 922 -50 686 -50 c 0
 563 -50 420 -27 342 65 c 1
 342 65 275 -50 164 -50 c 0
 63 -50 59 10 59 10 c 1
 149 92.72 180 208.34 180 386 c 0
EndSplineSet
EndChar

StartChar: E
Encoding: 59 69 38
Width: 1082
Flags: HW
LayerCount: 2
Fore
SplineSet
532 669 m 1
 488 230 l 1
 488 137.235955056 557.818181818 134 596 134 c 0
 677.344537815 134 706 196.441666667 706 261 c 0
 706 334 677 378 635 419 c 1
 635 419 640 459 706 459 c 0
 787 459 837 401 837 401 c 1
 837 401 887 459 969 459 c 0
 1035 459 1039 419 1039 419 c 1
 977 370 958 302 958 223 c 0
 958 124 980 52 1049 -6 c 1
 1049 -6 1046 -50 970 -50 c 0
 865 -50 800 45 800 45 c 1
 744 -22 639 -50 563 -50 c 0
 429 -50 352 65 352 64 c 2
 352 64 281 -50 164 -50 c 0
 63 -50 59 10 59 10 c 1
 179 86 179 156 179 399 c 0
 179 727.88976378 70 724.141732283 70 756 c 0
 70 801 179 770 179 1148 c 0
 179 1332 148 1417 58 1503 c 1
 58 1503 62 1562 163 1562 c 0
 280 1562 350 1447 350 1447 c 1
 350 1444 427 1562 562 1562 c 0
 637 1562 743 1533 799 1466 c 1
 799 1466 864 1562 969 1562 c 0
 1044 1562 1048 1516 1048 1516 c 1
 979 1464 957 1402 957 1312 c 0
 957 1237 976 1174 1038 1127 c 1
 1038 1127 1033 1088 968 1088 c 0
 886 1088 836 1145 836 1145 c 1
 836 1145 786 1088 705 1088 c 0
 639 1088 634 1127 634 1127 c 1
 676 1165 705 1209 705 1277 c 0
 705 1329 680 1372 597 1372 c 0
 558.781240936 1372 488.531866482 1368.03789212 488.531866482 1303.43381234 c 0
 488.531866482 1300.42284509 488.68445949 1297.28015368 489 1294 c 2
 532 847 l 1
 677 847 752 861 817 905 c 1
 817 905 844 902 844 855 c 0
 844 795.349514563 774 759 774 759 c 1
 774 759 844 722.384615385 844 661 c 0
 844 613 817 610 817 610 c 1
 752 653 677 669 532 669 c 1
EndSplineSet
EndChar

StartChar: F
Encoding: 60 70 39
Width: 975
Flags: HW
LayerCount: 2
Fore
SplineSet
488 385 m 1
 488 143.793969849 489 76.256281407 609 1 c 1
 609 1 578 -50 504 -50 c 0
 405 -50 339 64 339 64 c 1
 339 64 268 -50 162 -50 c 0
 88 -50 58 1 58 1 c 1
 178 76.256281407 178 143.793969849 178 385 c 0
 178 726.787401575 69 722.892388451 69 756 c 0
 69 801 178 770 178 1148 c 0
 178 1332 147 1417 57 1503 c 1
 57 1503 61 1562 162 1562 c 0
 285 1562 361 1457 361 1457 c 1
 361 1455 425 1562 539 1562 c 0
 605 1562 694 1533 744 1466 c 1
 744 1466 805 1562 902 1562 c 0
 978 1562 982 1518 982 1518 c 1
 912 1466 890 1402 890 1312 c 0
 890 1237 910 1174 972 1127 c 1
 972 1127 967 1088 901 1088 c 0
 827 1088 780 1145 780 1145 c 1
 780 1145 735 1088 660 1088 c 0
 594 1088 590 1127 590 1127 c 1
 632 1165 660 1201 660 1266 c 0
 660 1312 642 1371 575 1371 c 0
 545.299878492 1371 487.66160194 1362.55779994 487.66160194 1296.06788272 c 0
 487.66160194 1293.15783357 487.772009815 1290.13659225 488 1287 c 2
 521 833 l 1
 660 833 732 850 795 894 c 1
 795 894 822 891 822 844 c 0
 822 780 751 741 751 741 c 1
 751 741 822 703 822 639 c 0
 822 591 795 588 795 588 c 1
 732 631 660 651 521 651 c 1
 488 385 l 1
EndSplineSet
EndChar

StartChar: G
Encoding: 61 71 40
Width: 1119
Flags: HW
LayerCount: 2
Fore
SplineSet
147 1126 m 0
 147 1491 364 1586 604 1586 c 0
 753 1586 996 1527 996 1235 c 0
 996 1108.66037366 1010.89680929 984.301408614 1074 907 c 1
 1074 907 1066 875 1016 875 c 0
 903 875 837 974 837 970 c 1
 837 970 786 891 710 891 c 0
 602.697478992 891 599.99237342 946.00381329 599.99237342 952.406654209 c 0
 599.99237342 977.18006155 708 1123.51300241 708 1228 c 0
 708 1316 695 1392 598 1392 c 0
 469 1392 454 1280 454 1154 c 0
 454 808 569 805 569 765 c 0
 569 732 460 736 460 395 c 0
 460 205 461 96 572 96 c 0
 683 96 686 245 686 326 c 0
 686 460 670 512 595 573 c 1
 595 573 598 617 674 617 c 0
 766 617 825 553 825 553 c 1
 825 553 892 617 990 617 c 0
 1066 617 1069 573 1069 573 c 1
 1001 516 988 464 988 345 c 0
 988 170.662790698 1023 103.895348837 1115 26 c 1
 1115 -20 1055 -50 984 -50 c 0
 942 -50 872 -16.5765765766 832 56 c 1
 744 -66.3076923077 623 -94 526 -94 c 0
 303 -94 147 40 147 386 c 0
 147 727 39 723 39 756 c 0
 39 799 147 770 147 1126 c 0
EndSplineSet
EndChar

StartChar: H
Encoding: 62 72 41
Width: 1322
Flags: HW
LayerCount: 2
Fore
SplineSet
655 679 m 0
 495.894106956 679 493 581.182906556 493 374 c 0
 493 186.222222222 523 96.6666666667 614 10 c 1
 614 10 609 -50 509 -50 c 0
 399 -50 334 65 334 65 c 1
 334 65 274 -50 165 -50 c 0
 65 -50 59 10 59 10 c 1
 149 96.6666666667 180 186.222222222 180 374 c 0
 180 716.045918367 71 722.867346939 71 756 c 0
 71 801 180 770 180 1148 c 0
 180 1332 149 1417 59 1503 c 1
 59 1503 63 1562 165 1562 c 0
 274 1562 334 1457 334 1457 c 1
 334 1457 399 1562 509 1562 c 0
 610 1562 614 1503 614 1503 c 1
 524 1417 493 1332 493 1148 c 0
 493 1137.27115075 492.988474515 1126.8542386 492.988474515 1116.74532649 c 0
 492.988474515 928.431374789 496.98806366 847 654 847 c 0
 817.871813418 847 821.004952862 926.412566131 821.004952862 1123.883766 c 0
 821.004952862 1131.7350741 821 1139.77300912 821 1148 c 0
 821 1332 790 1417 700 1503 c 1
 700 1503 706 1562 806 1562 c 0
 915 1562 981 1457 981 1457 c 1
 981 1457 1042 1562 1152 1562 c 0
 1253 1562 1257 1503 1257 1503 c 1
 1167 1417 1136 1332 1136 1148 c 0
 1136 770 1245 801 1245 756 c 0
 1245 722.867346939 1136 716.045918367 1136 374 c 0
 1136 186.222222222 1167 96.6666666667 1257 10 c 1
 1257 10 1253 -50 1152 -50 c 0
 1042 -50 981 65 981 65 c 1
 981 65 915 -50 806 -50 c 0
 706 -50 700 10 700 10 c 1
 790 96.6666666667 821 186.222222222 821 374 c 0
 821 584.086839325 818.363379357 679 655 679 c 0
EndSplineSet
EndChar

StartChar: I
Encoding: 63 73 42
Width: 665
Flags: HW
LayerCount: 2
Fore
SplineSet
180 389 m 0
 180 727.102362205 71 723.249343832 71 756 c 0
 71 801 180 770 180 1148 c 0
 180 1338 149 1415 59 1503 c 1
 59 1503 63 1562 164 1562 c 0
 268 1562 329 1457 329 1457 c 1
 329 1457 391 1562 494 1562 c 0
 596 1562 600 1503 600 1503 c 1
 510 1415 479 1338 479 1148 c 0
 479 770 588 801 588 756 c 0
 588 723.249343832 479 727.102362205 479 389 c 0
 479 188.29562982 510 101.583547558 600 10 c 1
 600 10 596 -50 494 -50 c 0
 391 -50 329 65 329 65 c 1
 329 65 268 -50 164 -50 c 0
 64 -50 59 10 59 10 c 1
 149 101.583547558 180 188.29562982 180 389 c 0
EndSplineSet
EndChar

StartChar: J
Encoding: 64 74 43
Width: 794
Flags: HW
LayerCount: 2
Fore
SplineSet
247 -147 m 0
 192 -147 133 -163 61 -207 c 1
 61 -207 21 -202 21 -136 c 0
 21 -69 78 -27 78 -27 c 1
 78 -27 21 17 21 91 c 0
 21 157 61 162 61 162 c 1
 99 115 140 93 216 93 c 0
 326 93 327 200 327 387 c 0
 327 736 219 726 219 759 c 0
 219 804 327 770 327 1148 c 0
 327 1321 296 1421 206 1503 c 1
 206 1503 212 1562 311 1562 c 0
 413 1562 474 1457 474 1457 c 1
 474 1457 533 1562 641 1562 c 0
 742 1562 747 1503 747 1503 c 1
 655 1421 626 1321 626 1148 c 0
 626 770 733 801 733 756 c 0
 733 723 626 727 626 386 c 0
 626 7 517 -147 247 -147 c 0
EndSplineSet
EndChar

StartChar: K
Encoding: 65 75 44
Width: 1359
Flags: HW
LayerCount: 2
Fore
SplineSet
969 -92 m 0
 847.141869316 -92 747 424.830927586 747 635 c 2
 747 649 l 1
 734.38807086 659.671632349 712.232219075 661.525350724 686.982607288 661.525350724 c 0
 673.540805247 661.525350724 659.222220046 661 645 661 c 2
 577 661 l 2
 559 661 541 661 515 665 c 1
 504 406 l 1
 504 177 542 77 654 -33 c 1
 654 -33 631 -92 536 -92 c 0
 429 -92 355 45 355 45 c 1
 355 45 280 -92 174 -92 c 0
 78 -92 59 -46 56 -33 c 1
 157 76 194 176 194 406 c 0
 194 745 70 757 70 788 c 0
 70 833 194 812 194 1102 c 0
 194 1313 159 1401 55 1499 c 1
 55 1499 78 1561 174 1561 c 0
 280 1561 355 1442 355 1442 c 1
 355 1442 429 1561 536 1561 c 0
 635 1561 651 1514 654 1500 c 1
 542 1404 504 1316 504 1113 c 0
 504 953 508 912 513 849 c 1
 535 844 554 843 579 843 c 0
 652 843 746 856 746 856 c 1
 780 1063 780 1285 888 1491 c 1
 888 1491 912 1562 969 1562 c 0
 1031 1562 1061 1456 1061 1456 c 1
 1061 1456 1157 1562 1246 1562 c 0
 1362 1562 1377 1522 1378 1505 c 1
 1213 1430 1130 1297 1130 1146 c 0
 1130 733 905 798 905 747 c 0
 905 698 1130 752 1130 364 c 0
 1130 202 1213 50 1378 -35 c 1
 1376 -52 1361 -92 1246 -92 c 0
 1162 -92 1071 43 1071 43 c 1
 1071 43 1037 -92 969 -92 c 0
EndSplineSet
EndChar

StartChar: L
Encoding: 66 76 45
Width: 873
Flags: HW
LayerCount: 2
Fore
SplineSet
478 395 m 0
 478 346.020254483 477.087489531 309.882839067 477.087489531 283.34710403 c 0
 477.087489531 225.112414926 481.482289716 213.120994406 509.56133672 213.120994406 c 0
 529.222037061 213.120994406 560.494357502 219 610 219 c 0
 703 219 731 241 778 288 c 1
 778 288 818 284 818 218 c 0
 818 159 766 123 761 120 c 1
 763 118 818 81 818 21 c 0
 818 -45 778 -50 778 -50 c 1
 709 -6 672 10 619 10 c 0
 552 10 520 -50 463 -50 c 0
 419 -50 373 -13.6814159292 320 64 c 1
 320 64 262 -50 164 -50 c 0
 63 -50 59 10 59 10 c 1
 179 85.2185089974 179 154.498714653 179 395 c 0
 179 727.57480315 70 723.784776903 70 756 c 0
 70 801 179 770 179 1148 c 0
 179 1332 148 1417 58 1503 c 1
 58 1503 62 1562 163 1562 c 0
 282 1562 329 1457 329 1457 c 1
 329 1457 390 1562 493 1562 c 0
 594 1562 599 1503 599 1503 c 1
 509 1417 478 1332 478 1148 c 0
 478 770 587 801 587 756 c 0
 587 723.784776903 478 727.57480315 478 395 c 0
EndSplineSet
EndChar

StartChar: M
Encoding: 67 77 46
Width: 1497
Flags: HW
LayerCount: 2
Fore
SplineSet
969 700.799804688 m 2
 1030 811 l 1
 1032 711 1033 557 1033 375 c 0
 1033 182 1002 98 912 10 c 1
 912 10 918 -50 1018 -50 c 0
 1121 -50 1183 65 1183 65 c 1
 1183 65 1240 -50 1337 -50 c 0
 1438 -50 1442 10 1442 10 c 1
 1351 98 1321 182 1321 375 c 0
 1321 726 1430 722 1430 756 c 0
 1430 801 1321 770 1321 1148 c 0
 1321 1338 1352 1415 1442 1503 c 1
 1442 1503 1438 1562 1337 1562 c 0
 1240 1562 1183 1457 1183 1457 c 1
 1183 1457 1121 1562 1018 1562 c 0
 917 1562 912 1503 912 1503 c 1
 972 1440 1007 1382 1022 1288 c 1
 751 748 l 1
 473 1310 l 1
 490 1390 523 1445 579 1503 c 1
 579 1503 575 1562 474 1562 c 0
 370 1562 309 1457 309 1457 c 1
 309 1457 251 1562 155 1562 c 0
 53 1562 49 1503 49 1503 c 1
 139 1415 170 1338 170 1148 c 0
 170 770 61 801 61 756 c 0
 61 722 170 726 170 375 c 0
 170 182 139 98 49 10 c 1
 49 10 53 -50 155 -50 c 0
 251 -50 309 65 309 65 c 1
 309 65 370 -50 474 -50 c 0
 575 -50 579 10 579 10 c 1
 489 98 458 182 458 375 c 0
 458 574 459 736 462 840 c 1
 543 700.799804688 l 2
 590.889648438 618.500976562 618.94140625 533.767578125 618.94140625 466.020507812 c 0
 618.94140625 430.600585938 611.762695312 400.116210938 597 377.799804688 c 1
 597 377.799804688 600 350.799804688 648 350.799804688 c 0
 709 350.799804688 746 420.799804688 746 420.799804688 c 1
 746 420.799804688 782 350.799804688 842 350.799804688 c 0
 889 350.799804688 892 377.799804688 892 377.799804688 c 1
 879.524414062 396.229492188 873.758789062 420.53515625 873.758789062 448.637695312 c 0
 873.758789062 519.6484375 918.6875 609.908203125 969 700.799804688 c 2
EndSplineSet
EndChar

StartChar: N
Encoding: 68 78 47
Width: 1322
Flags: HW
LayerCount: 2
Fore
SplineSet
180 375 m 0
 180 726 71 722 71 756 c 0
 71 801 180 770 180 1148 c 0
 180 1338 149 1415 59 1503 c 1
 59 1503 63 1562 165 1562 c 0
 268 1562 330 1457 330 1457 c 1
 330 1457 391 1562 495 1562 c 0
 596 1562 600 1503 600 1503 c 1
 520 1438 488 1375 480 1251 c 1
 805 741 l 1
 816 774.269754768 837 848.572207084 837 1148 c 0
 837 1338 806 1415 716 1503 c 1
 716 1503 720 1562 821 1562 c 0
 925 1562 986 1457 986 1457 c 1
 986 1457 1048 1562 1151 1562 c 0
 1253 1562 1257 1503 1257 1503 c 1
 1166 1415 1136 1338 1136 1148 c 0
 1136 770 1245 801 1245 756 c 0
 1245 722 1136 726 1136 375 c 0
 1136 181.709511568 1166 98.2005141388 1257 10 c 1
 1257 10 1253 -50 1151 -50 c 0
 1048 -50 986 65 986 65 c 1
 986 65 925 -50 821 -50 c 0
 721 -50 716 10 716 10 c 1
 794 80 826 151 835 284 c 1
 485 781 l 1
 483 739.956284153 479 653.431693989 479 375 c 0
 479 181.709511568 510 98.2005141388 600 10 c 5
 600 10 596 -50 495 -50 c 4
 391 -50 330 65 330 65 c 5
 330 65 268 -50 165 -50 c 4
 63 -50 59 10 59 10 c 5
 149 98.2005141388 180 181.709511568 180 375 c 0
EndSplineSet
EndChar

StartChar: O
Encoding: 69 79 48
Width: 1241
Flags: HW
LayerCount: 2
Fore
SplineSet
497 421 m 0
 497 227 497 128 627 128 c 0
 758 128 759 236 759 432 c 0
 759 705 674 733 674 748 c 0
 674 777 759 772 759 1088 c 0
 759 1304.62992126 757 1392 627 1392 c 0
 498 1392 496 1304.62992126 496 1088 c 0
 496 772 580 777 580 748 c 0
 580 730 497 695 497 421 c 0
1092 421 m 0
 1092 36.2514619883 925 -93 627 -93 c 4
 329 -93 162 36.2514619883 162 421 c 0
 162 708 38 734 38 748 c 0
 38 773 162 779 162 1077 c 0
 162 1505 329 1586 628 1586 c 0
 925 1586 1092 1505 1092 1077 c 0
 1092 784 1202 772 1202 748 c 0
 1202 746 1199 744 1193 739 c 0
 1160 714 1092 659 1092 421 c 0
EndSplineSet
EndChar

StartChar: P
Encoding: 70 80 49
Width: 1062
Flags: HW
LayerCount: 2
Fore
SplineSet
490 586 m 1
 490 396 l 2
 490 192.385 521 102.64 611 10 c 5
 611 10 606 -50 505 -50 c 4
 395 -50 329 65 329 65 c 5
 329 65 268 -50 164 -50 c 4
 64 -50 59 10 59 10 c 5
 149 100.71 180 197.21 180 396 c 0
 180 727.783783784 71 723.891891892 71 756 c 0
 71 800 180 770 180 1137 c 0
 180 1327 149 1415 59 1503 c 1
 59 1503 63 1562 164 1562 c 0
 281 1562 354 1466 354 1466 c 1
 354 1466 408 1562.09960938 644 1562.09960938 c 0
 820 1562.09960938 978.546910976 1470.70951467 1016 1299 c 0
 1049.54691098 1145.19896643 1092 1151 1092 1130 c 0
 1092 1115 1049.65484458 1110.69772772 1016 928 c 0
 965.654844579 654.697727715 691 586 490 586 c 1
605 1372 m 0
 552 1372 490 1346 490 1322 c 2
 490 748 l 1
 623 757 706 805 706 871 c 2
 706 1302 l 2
 706 1334 664 1372 605 1372 c 0
EndSplineSet
EndChar

StartChar: Q
Encoding: 71 81 50
Width: 1241
Flags: HW
LayerCount: 2
Fore
SplineSet
496 421 m 0
 496 227 496 128 626 128 c 0
 757 128 758 236 758 432 c 0
 758 705 673 733 673 748 c 0
 673 777 758 772 758 1088 c 0
 758 1304.62992126 756 1392 626 1392 c 0
 497 1392 495 1304.62992126 495 1088 c 0
 495 772 579 777 579 748 c 0
 579 730 496 695 496 421 c 0
973 -154 m 0
 973 -114 1006 19 1114 19 c 0
 1126 19 1136 17 1146 12 c 1
 1127 -15 1122 -40 1122 -65 c 0
 1122 -106 1138 -145 1138 -189 c 0
 1138 -366 989 -462 837 -462 c 0
 695 -462 550 -350 550 -115 c 0
 550 -106.324121657 550.445389734 -97.6482433131 551.038927114 -88.9723649697 c 1
 300.138958871 -67.5573861688 161 70.4924610708 161 421 c 0
 161 708 37 734 37 748 c 0
 37 773 161 779 161 1077 c 0
 161 1505 328 1586 627 1586 c 0
 924 1586 1091 1505 1091 1077 c 0
 1091 784 1201 772 1201 748 c 0
 1201 746 1198 744 1192 739 c 0
 1159 714 1091 659 1091 421 c 0
 1091 53.7537314091 938.25436578 -80.2581855281 664.253702248 -91.2528679926 c 1
 661.252670669 -109.090789169 660 -126.171729919 660 -142 c 0
 660 -274 738 -329 801 -329 c 0
 851 -329 878 -299 878 -269 c 0
 878 -241 854 -214 802 -214 c 0
 794 -214 785 -215 776 -216 c 0
 775 -216 775 -211 775 -209 c 0
 775 -194 788 -125 861 -125 c 0
 915 -125 973 -155 973 -154 c 0
EndSplineSet
EndChar

StartChar: R
Encoding: 72 82 51
Width: 1211
Flags: HW
LayerCount: 2
Fore
SplineSet
329 55 m 1
 329 55 268 -50 164 -50 c 0
 63 -50 59 10 59 10 c 1
 149 91.940874036 180 207.622107969 180 385 c 0
 180 726.787401575 71 722.892388451 71 756 c 0
 71 802 180 773 180 1163 c 0
 180 1341 149 1419 59 1503 c 1
 59 1503 63 1562 164 1562 c 0
 288 1562 362 1462 362 1462 c 1
 362 1462 397 1562.09960938 619 1562.09960938 c 0
 844 1562.09960938 1018.8313925 1517.71029588 1043 1307 c 0
 1056.8313925 1186.41312686 1119 1167 1119 1146 c 0
 1119 1131 1058 1102 1043 953 c 0
 1037 887 981 798 887 789 c 1
 1186 691.275773196 974 179.951030928 1224 23 c 1
 1162 -40 1092 -64 999 -64 c 0
 618 -64 837 695 624 695 c 2
 490 695 l 1
 490 385 l 2
 490 186.413881748 519 100.616966581 601 10 c 1
 601 10 597 -50 496 -50 c 0
 392 -50 329 55 329 55 c 1
620 1372 m 0
 564 1372 490 1346 490 1322 c 2
 490 851 l 1
 645 851 720 883 720 963 c 2
 720 1302 l 2
 720 1334 679 1372 620 1372 c 0
EndSplineSet
EndChar

StartChar: S
Encoding: 73 83 52
Width: 1043
Flags: HW
LayerCount: 2
Fore
SplineSet
670 305 m 0
 670 476.310513178 578.345021112 605 432 605 c 0
 382 605 344 587 326 587 c 0
 322 587 322 588 318 589 c 1
 292 604 300.46186688 676.572138781 218 743 c 0
 100.600538755 837.572138781 26 976 26 1155 c 0
 26 1434.64883721 220.19921875 1586 537 1586 c 0
 693.135742188 1586 941 1482.69970845 941 1242 c 0
 941 1159.49356223 893 1068.64377682 893 1026 c 0
 893 984.928571429 908 949.724489796 943 911 c 1
 943 911 925.41015625 917 894 917 c 0
 769 917 734 1083 734 1083 c 1
 731 1079 673 1049 611 1049 c 0
 495 1049 499 1125 499 1130 c 1
 567 1133.51428571 654 1161.62857143 654 1253 c 0
 654 1348.5625 586.407226562 1392 529 1392 c 0
 392 1392 372 1281.59525071 372 1204.09960938 c 0
 372 1063.27695488 430.987949576 926 554 926 c 0
 604 926 666 953 685 953 c 0
 708 953 710.894409422 852.549691251 780 807 c 0
 917.226440672 716.549691251 1017 566 1017 362 c 0
 1017 59.3623853211 753.114257812 -93 501 -93 c 0
 267.106445312 -93 43 38.3164893617 43 302 c 0
 43 383 96 458 96 529 c 0
 96 559 87 590 62 624 c 1
 62 624 76 634 99 634 c 0
 186 634 256 527 257 447 c 1
 257 447 323 482 387 482 c 0
 486 482 496 420 496 404 c 2
 496 396 l 1
 423 387 351 330 351 245 c 0
 351 146 430.013671875 116 483 116 c 0
 573 116 670 176 670 305 c 0
EndSplineSet
EndChar

StartChar: T
Encoding: 74 84 53
Width: 948
Flags: HW
LayerCount: 2
Fore
SplineSet
479 1480 m 1
 518 1548 555 1562 589 1562 c 0
 643 1562 690 1514 751 1514 c 0
 797 1514 847 1526 908 1562 c 1
 908 1562 947 1558 947 1492 c 0
 947 1431 892 1394 890 1393 c 1
 896 1389 947 1353 947 1295 c 0
 947 1229 908 1224 908 1224 c 1
 866 1272 821 1294 740 1294 c 0
 637 1294 637 1290 637 1290 c 1
 637 1290 625 1278 625 1136 c 0
 625 785 734 791 734 757 c 0
 734 713.145507812 625 743.356445312 625 374 c 0
 625 186.22265625 655 96.6669921875 746 10 c 1
 746 10 742 -50 640 -50 c 0
 537 -50 479 65 479 65 c 1
 479 65 432 -50 313 -50 c 0
 212 -50 207 10 207 10 c 1
 297 96.6669921875 328 186.22265625 328 374 c 0
 328 743.356445312 219 713.145507812 219 757 c 0
 219 791 328 785 328 1136 c 0
 328 1278 316 1290 316 1290 c 1
 316 1290 316 1294 192 1294 c 0
 121 1294 84 1272 48 1224 c 1
 48 1224 8 1229 8 1295 c 0
 8 1354 62 1390 64 1393 c 1
 61 1395 8 1431 8 1492 c 0
 8 1558 48 1562 48 1562 c 1
 108 1525 159 1514 205 1514 c 0
 265 1514 313 1562 367 1562 c 0
 401 1562 439 1548 479 1480 c 1
EndSplineSet
EndChar

StartChar: U
Encoding: 75 85 54
Width: 1286
Flags: HW
LayerCount: 2
Fore
SplineSet
652 -93 m 4
 339 -93 156 34.254509018 156 407 c 0
 156 728 69 725 69 756 c 0
 69 801 156 770 156 1148 c 0
 156 1332 125 1417 35 1503 c 1
 35 1503 39 1562 140 1562 c 0
 263 1562 343 1457 343 1457 c 1
 343 1457 414 1562 530 1562 c 0
 632 1562 636 1503 636 1503 c 1
 546 1417 515 1332 515 1148 c 0
 515 770 591 810 591 765 c 0
 591 738 515 741 515 460 c 0
 515 447.212121212 514.981634527 434.751147842 514.981634527 422.624426079 c 0
 514.981634527 234.660238751 519.393939394 127 665 127 c 0
 809.4 127 813.01 234.3975 813.01 420.899125 c 0
 813.01 430.715 813 440.75 813 451 c 0
 813 741 737 738 737 765 c 0
 737 810 813 770 813 1148 c 0
 813 1332 788 1417 706 1503 c 1
 706 1503 710 1562 812 1562 c 0
 915 1562 977 1457 977 1457 c 1
 977 1457 1042 1562 1151 1562 c 0
 1253 1562 1257 1503 1257 1503 c 1
 1167 1417 1136 1332 1136 1148 c 0
 1136 770 1223 801 1223 756 c 0
 1223 725 1136 728 1136 407 c 0
 1136 34.254509018 958 -93 652 -93 c 4
EndSplineSet
EndChar

StartChar: V
Encoding: 76 86 55
Width: 1271
Flags: HW
LayerCount: 2
Fore
SplineSet
1065 762 m 1
 1065 762 850 425.44847876 850 187 c 0
 850 131 863 73 903 10 c 1
 903 6 l 2
 903 -7 896 -50 790 -50 c 0
 702 -50 629 65 629 65 c 1
 629 65 584 -50 440 -50 c 0
 364 -50 352 10 352 10 c 1
 392 66 412 120 412 199 c 0
 412 243 401.114561935 302.348973437 383 375 c 0
 292.114561935 739.508973437 174 719.88765776 174 760 c 0
 174 788 226 787 226 920 c 0
 226 1165.76727904 121.081488506 1399.37043203 -7 1503 c 1
 -6 1506 -14 1562 85 1562 c 0
 197 1562 292 1457 292 1457 c 1
 292 1457 336 1562 453 1562 c 0
 555 1562 572 1503 572 1503 c 1
 524 1445 509 1379 509 1310 c 0
 509 1158.30747779 657.44270296 529.535751133 681 368 c 1
 712 467 733 546.781121996 733 604 c 0
 733 728.036285014 706 733 706 753 c 1
 706 753 851 994.092336811 851 1292 c 0
 851 1370 834 1443 788 1503 c 1
 788 1503 803 1562 869 1562 c 0
 984 1562 1018 1457 1018 1457 c 1
 1018 1457 1123 1562 1220 1562 c 0
 1283 1562 1290 1525 1290 1510 c 2
 1290 1503 l 1
 1160.89740826 1400.64839574 1045 1152.24809856 1045 910 c 0
 1045 790 1065 788 1065 762 c 1
EndSplineSet
EndChar

StartChar: W
Encoding: 77 87 56
Width: 1888
Flags: HW
LayerCount: 2
Fore
SplineSet
1716 762 m 1
 1716 762 1521 410.948722821 1521 183 c 0
 1521 128.265536723 1534 71.5762711864 1574 10 c 5
 1574 6 l 6
 1574 -7 1567 -50 1461 -50 c 4
 1373 -50 1300 65 1300 65 c 5
 1300 65 1255 -50 1111 -50 c 4
 1035 -50 1023 10 1023 10 c 5
 1063 64.8148148148 1083 117.671957672 1083 195 c 0
 1083 240 1068.20537224 299.736893885 1054 375 c 0
 1012.20537224 596.436893885 957 805 957 805 c 1
 957 805 803 345.695048167 803 183 c 0
 803 128.265536723 816 71.5762711864 856 10 c 5
 856 6 l 6
 856 -7 849 -50 743 -50 c 4
 655 -50 582 65 582 65 c 5
 582 65 537 -50 393 -50 c 4
 317 -50 305 10 305 10 c 5
 345 64.8148148148 365 117.671957672 365 195 c 0
 365 240 353.148454365 300.497606184 336 375 c 0
 252.148454365 739.297606184 147 719.88765776 147 760 c 0
 147 788 199 787 199 920 c 0
 199 1164.52032937 119.306312711 1395.72061882 6 1503 c 1
 7 1506 -1 1562 98 1562 c 0
 195 1562 275 1457 275 1457 c 1
 275 1457 319 1562 436 1562 c 0
 538 1562 555 1503 555 1503 c 1
 509.186925152 1442.09555932 494.683495737 1378.03927821 494.683495737 1313.4223312 c 0
 494.683495737 1258.15122194 505.29493268 1202.46990137 516 1148 c 0
 526.779736642 1093.15016356 628 416 634 368 c 1
 665 467 686 546.781121996 686 604 c 0
 686 708.043260233 655 730 655 745 c 0
 655 748 656 750 659 753 c 0
 747 855 812 1032 812 1277 c 0
 812 1385 759 1455 724 1503 c 1
 724 1504 l 2
 724 1510 744 1562 836 1562 c 0
 935 1562 983 1457 983 1457 c 1
 983 1457 1021 1562 1124 1562 c 0
 1226 1562 1243 1503 1243 1503 c 1
 1195 1445 1180 1379 1180 1310 c 0
 1180 1159.05662722 1325.30016702 528.198997886 1352 368 c 1
 1371 467 1384 546.921107229 1384 604 c 0
 1384 728.036285014 1357 733 1357 753 c 1
 1357 753 1472.49197077 1054.59532842 1472.49197077 1291.78438484 c 0
 1472.49197077 1375.625022 1458.06179445 1451.41839964 1419 1503 c 1
 1419 1503 1434 1562 1500 1562 c 0
 1615 1562 1649 1457 1649 1457 c 1
 1649 1457 1734 1562 1811 1562 c 0
 1874 1562 1881 1525 1881 1510 c 2
 1881 1503 l 1
 1765.74637962 1391.54594952 1696 1159.2348983 1696 910 c 0
 1696 790 1716 788 1716 762 c 1
EndSplineSet
EndChar

StartChar: X
Encoding: 78 88 57
Width: 1181
Flags: HW
LayerCount: 2
Fore
SplineSet
593 519 m 1
 523 311 l 1
 483 211.1 469 148.1 469 95 c 0
 469 65 472 37 477 10 c 1
 477 10 445 -50 361 -50 c 0
 280 -50 277 55 277 55 c 1
 277 55 187 -50 108 -50 c 0
 24 -50 9 -26 9 -9 c 0
 9 2 14 10 14 10 c 1
 113 98.2005141388 166.567855111 181.598655887 248 375 c 2
 360 641 l 1
 321 708 282 738 282 756 c 0
 282 785 315 792 360 868 c 1
 242 1148 l 1
 161 1336 111 1415 13 1503 c 1
 13 1503 8 1510 8 1520 c 0
 8 1538 23 1562 106 1562 c 0
 190 1562 285 1457 285 1457 c 1
 285 1457 289 1562 381 1562 c 0
 450 1562 475 1503 475 1503 c 1
 470 1475 465 1448 465 1417 c 0
 465 1367 482.335516581 1308.62143942 516 1212 c 2
 593 991 l 1
 681 1212 l 1
 720 1300 732 1359 732 1409 c 0
 732 1443 727 1473 721 1503 c 1
 721 1503 747 1562 816 1562 c 0
 905 1562 911 1457 911 1457 c 1
 911 1457 1006 1562 1090 1562 c 0
 1173 1562 1188 1538 1188 1520 c 0
 1188 1510 1183 1503 1183 1503 c 1
 1084 1415 1042 1332 953 1148 c 2
 814 862 l 1
 858 791 890 784 890 756 c 0
 890 738 853 711 814 648 c 1
 946 375 l 1
 1042 189.215938303 1082 98.2005141388 1182 10 c 1
 1182 10 1188 2 1188 -9 c 0
 1188 -26 1172 -50 1089 -50 c 0
 1010 -50 919 55 919 55 c 1
 919 55 915 -50 825 -50 c 0
 749 -50 719 10 719 10 c 1
 725 40 729 71 729 106 c 0
 729 157.92139738 709.231152361 216.799003863 673 311 c 2
 593 519 l 1
EndSplineSet
EndChar

StartChar: Y
Encoding: 79 89 58
Width: 1235
Flags: HW
LayerCount: 2
Fore
SplineSet
1245 1504 m 1
 1126.57083153 1411.47721213 922 1167.39867809 922 909 c 0
 922 802 982 752 983 752 c 1
 983 746 984 741 985 739 c 1
 962 723 l 1
 905 687 790 609 790 431 c 0
 790 207.284753363 823 119.497757848 914 10 c 1
 914 10 891 -50 795 -50 c 0
 689 -50 615 68 615 68 c 1
 615 68 540 -50 435 -50 c 0
 337 -50 320 -4 317 10 c 1
 407 119.497757848 440 207.284753363 440 431 c 0
 440 634 308 682 246 744 c 1
 248 746 l 1
 247 748 247 749 247 750 c 0
 247 770 308 798 308 911 c 0
 308 1172.32650272 105.687509161 1410.81544547 -14 1506 c 1
 -14 1506 -17 1515 -17 1519 c 0
 -17 1537 -1 1561 96 1561 c 0
 179 1561 298 1434 298 1434 c 1
 298 1434 310 1561 408 1561 c 0
 491 1561 529 1513 538 1497 c 1
 519 1459 508 1420 508 1375 c 0
 508 1261 599 832 618 832 c 0
 646 832 733 1270 733 1375 c 0
 733 1419 724 1459 705 1497 c 1
 705 1497 754 1561 835 1561 c 0
 942 1561 956 1434 956 1434 c 1
 956 1434 1060 1561 1135 1561 c 0
 1232 1561 1246 1537 1246 1519 c 0
 1246 1514 1245 1507 1245 1504 c 1
EndSplineSet
EndChar

StartChar: Z
Encoding: 80 90 59
Width: 1132
Flags: HW
LayerCount: 2
Fore
SplineSet
342 831 m 0
 342 848.409883081 607 988.315228513 607 1257 c 0
 607 1381.95384615 516 1443 431 1443 c 0
 349 1443 306 1373.56164384 306 1306 c 0
 306 1238 345 1172 423 1172 c 0
 441 1172 456 1174 472 1179 c 1
 472 1177 480 1167 480 1145 c 0
 480 1114 434 1058 317 1058 c 0
 302 1058 292 1059 292 1059 c 1
 301 1038 305 1013 305 987 c 0
 305 908 264 819 182 819 c 1
 186 835 188 850 188 863 c 0
 188 1023 25 1074 25 1266 c 0
 25 1448.23129252 237 1562 435 1562 c 0
 584 1562 726 1503.38947368 775 1370 c 1
 775 1370 943 1562 1061 1562 c 0
 1090 1562 1130 1536 1130 1487 c 0
 1130 1479 1129 1472 1125 1462 c 1
 1022.00973062 1383.04079348 773 1028.20498847 773 756 c 0
 773 709 793 684 796 675 c 1
 796 654.511761749 529 503.460766244 529 208 c 0
 529 86.7055837563 623 31 713 31 c 0
 805 31 852 97.8013245033 852 162 c 0
 852 245.744680851 807 326 713 326 c 0
 696 326 680 323 664 319 c 1
 664 321 656 331 656 353 c 0
 656 392 708 460 839 460 c 0
 854 460 864 459 864 459 c 1
 855 480 851 505 851 531 c 0
 851 610 892 699 974 699 c 1
 970 683 968 668 968 655 c 0
 968 507 1131 459 1131 282 c 0
 1131 44.4289772727 912 -93 702 -93 c 0
 560 -93 423 -26.7819148936 361 118 c 1
 361 118 193 -93 75 -93 c 0
 46 -93 6 -67 6 -18 c 0
 6 -10 7 -3 11 7 c 1
 114.935873667 90.0263314591 367 470.775914244 367 749 c 0
 367 796 342 821.944614862 342 831 c 0
EndSplineSet
EndChar

StartChar: bracketleft
Encoding: 81 91 60
Width: 666
Flags: HW
LayerCount: 2
Fore
SplineSet
604 -387 m 1
 101 -387 l 1
 101 1375 l 1
 604 1375 l 1
 604 1235 l 1
 325 1235 l 1
 325 -247 l 1
 604 -247 l 1
 604 -387 l 1
EndSplineSet
EndChar

StartChar: backslash
Encoding: 82 92 61
Width: 852
Flags: HW
LayerCount: 2
Fore
SplineSet
215 1395 m 1
 804 -35 l 1
 639 -35 l 1
 50 1395 l 1
 215 1395 l 1
EndSplineSet
EndChar

StartChar: bracketright
Encoding: 83 93 62
Width: 663
Flags: HW
LayerCount: 2
Fore
SplineSet
561 -387 m 1
 58 -387 l 1
 58 -247 l 1
 337 -247 l 1
 337 1235 l 1
 58 1235 l 1
 58 1375 l 1
 561 1375 l 1
 561 -387 l 1
EndSplineSet
EndChar

StartChar: asciicircum
Encoding: 84 94 63
Width: 1057
Flags: HW
LayerCount: 2
Fore
SplineSet
237 583 m 1
 58 583 l 1
 456 1315 l 1
 603 1315 l 1
 999 583 l 1
 820 583 l 1
 529 1126 l 1
 237 583 l 1
EndSplineSet
EndChar

StartChar: underscore
Encoding: 85 95 64
Width: 1260
Flags: HW
LayerCount: 2
Fore
SplineSet
111 -154 m 1
 1147 -154 l 1
 1147 -256 l 1
 111 -256 l 1
 111 -154 l 1
EndSplineSet
EndChar

StartChar: quoteleft
Encoding: 372 8216 65
Width: 448
Flags: HW
LayerCount: 2
Fore
SplineSet
363 1395 m 1
 363 1300 l 1
 259 1273 200 1219 200 1098 c 1
 202 1098 l 1
 229 1111 272 1115 311 1115 c 1
 342 1074 372 1008 372 928 c 1
 352 885 299 853 235 853 c 0
 184 853 140 867 101 888 c 1
 84 951 73 1018 73 1089 c 0
 73 1272 187 1379 363 1395 c 1
EndSplineSet
EndChar

StartChar: a
Encoding: 87 97 66
Width: 1133
Flags: HW
LayerCount: 2
Fore
SplineSet
732 107 m 1
 732 107 809 -50 935 -50 c 0
 1049 -50 1070 1 1070 1 c 1
 1012 63 968 145 968 335 c 0
 968 571 1082 595 1082 612 c 1
 1056 629 958 663 958 876 c 0
 958 1175 817 1312 559 1312 c 0
 424 1312 184 1222 184 1011 c 0
 184 960 212 893 212 856 c 0
 212 823 197 795 160 758 c 1
 164 753 176 743 198 743 c 0
 306 743 352 879 350 880 c 2
 350 880 403 839 460 839 c 0
 539 839 556 908 555 903 c 1
 477 922 441 1037 441 1094 c 0
 441 1135 472 1187 533 1187 c 0
 640 1187 644 1084 644 905 c 0
 644 627 210.067989181 800.534913286 138 458 c 0
 125.067989181 396.534913286 58 345 58 330 c 0
 58 316 127.398032506 257.269086595 142 179 c 0
 182.398032506 -37.5404837173 355 -70 463 -70 c 0
 572 -70 693 -32.1999969482 732 107 c 1
644 417 m 0
 644 209 643 89 520 89 c 0
 429.090909091 89 424.958677686 235.280991736 424.958677686 314.469571751 c 0
 424.958677686 322.388429752 425 329.636363636 425 336 c 0
 425 566 533 570 645 683 c 1
 644 683 644 547 644 417 c 0
EndSplineSet
EndChar

StartChar: b
Encoding: 88 98 67
Width: 1182
Flags: HW
HStem: -70 159<508.672 709.674> -51 21G<111 212.5> 1129 182<577.48 824>
VStem: 177 305<112.91 540.092 681.774 1089.39> 740 303<150.54 554.647 675.402 1081.55>
LayerCount: 2
Fore
SplineSet
1043 343 m 0x78
 1043 84.1478873239 845 -70 653 -70 c 0xb8
 547 -70 443 -27.0197368421 373 69 c 1
 333 19.7284768212 264 -51 161 -51 c 4
 61 -51 56 8 56 8 c 1
 144 92.7748691099 176 176.628272251 177 360 c 1
 171 578 65 597 65 611 c 0
 65 632 177 636 177 889 c 2
 177 1143 l 2
 177 1394.73076923 146 1504.57692308 56 1619 c 1
 56 1619 60 1678 161 1678 c 0
 265 1678 326 1573 326 1573 c 1
 326 1573 388 1678 491 1678 c 0
 593 1678 597 1619 597 1619 c 1
 534 1499.71186441 500 1383.93220339 485 1205 c 1
 572 1276 659 1311 737 1311 c 0
 911 1311 1043 1166 1043 889 c 0
 1043 641 1143 631 1143 611 c 1
 1121 590 1043 562 1043 343 c 0x78
482 343 m 0
 482 175 482 89 610 89 c 0
 739 89 740 182 740 353 c 0
 740 563 669 591 653 611 c 1
 653 635 740 633 740 889 c 0
 740 1049 695 1129 610 1129 c 0
 525 1129 481 1049 481 889 c 0
 481 633 567 635 567 611 c 0
 567 597 482 566 482 343 c 0
EndSplineSet
EndChar

StartChar: c
Encoding: 89 99 68
Width: 1008
Flags: HW
LayerCount: 2
Fore
SplineSet
903 679 m 0
 811 679 742 784 742 784 c 1
 742 784 703 759 649 759 c 0
 551 759 539 812 539 821 c 0
 539 824 540 826 540 826 c 1
 612 826 680 933 680 1021 c 0
 680 1081 648 1131 564 1131 c 0
 443 1131 442 1038 442 877 c 0
 442 630 541 635 541 612 c 0
 541 590 442 597 442 359 c 0
 442 198 509 112 624 112 c 0
 694 112 802 131 802 399 c 0
 802 424 838 437 875 437 c 0
 918 437 961 423 961 396 c 0
 961 -32.2946058091 696 -70 595 -70 c 4
 348 -70 181 54.2768878719 143 351 c 1
 114 587 40 589 40 611 c 2
 40 613 l 2
 40 635 139 637 139 875 c 1
 146 1153 311 1311 562 1311 c 0
 704 1311 946 1217 946 995 c 0
 946 924 918 843 918 800 c 0
 918 766 927 737 949 703 c 1
 949 703 940 679 903 679 c 0
EndSplineSet
EndChar

StartChar: d
Encoding: 90 100 69
Width: 1188
Flags: HW
LayerCount: 2
Fore
SplineSet
699 343 m 0
 699 566 614 597 614 611 c 0
 614 635 700 633 700 889 c 0
 700 1063 656 1149 571 1149 c 0
 486 1149 441 1063 441 889 c 0
 441 633 528 635 528 611 c 1
 512 591 441 563 441 353 c 0
 441 170 442 69 571 69 c 0
 699 69 699 161 699 343 c 0
138 343 m 0
 138 562 60 590 38 611 c 1
 38 631 138 641 138 889 c 0
 138 1166 282 1311 474 1311 c 0
 543 1311 628 1296 696 1205 c 1
 681 1383.93220339 647 1499.71186441 584 1619 c 1
 584 1619 588 1678 690 1678 c 0
 793 1678 855 1573 855 1573 c 1
 855 1573 916 1678 1020 1678 c 0
 1121 1678 1125 1619 1125 1619 c 1
 1035 1504.57692308 1004 1394.73076923 1004 1143 c 2
 1004 889 l 2
 1004 636 1116 632 1116 611 c 0
 1116 597 1010 578 1004 360 c 1
 1005 177.14921466 1037 93.5340314136 1125 9 c 5
 1125 9 1120 -51 1020 -51 c 4
 917 -51 848 19.7284768212 808 69 c 1
 738 -27.0197368421 634 -70 528 -70 c 0
 336 -70 138 84.1478873239 138 343 c 0
EndSplineSet
EndChar

StartChar: e
Encoding: 91 101 70
Width: 1053
Flags: HW
HStem: -70 181<541.939 770.702> 1131 181<493.764 662.319>
VStem: 162 305<718.376 1091.05> 694 273<749.427 1104.02> 836 149<187.514 434.078>
LayerCount: 2
Fore
SplineSet
658 111 m 0xf0
 728 111 836 133 836 401 c 0
 836 426 867 439 899 439 c 0
 942 439 985 425 985 398 c 0xe8
 985 -52.5228215768 706 -70 599 -70 c 4
 356 -70 191 75.6158663883 162 395 c 0
 147 567 62 592 38 612 c 1
 38 624.727272727 162 643.393939394 162 836 c 0
 162 1162.43119266 311 1312 579 1312 c 0
 747 1312 967 1240 967 865 c 0
 967 653.333333333 990 666.358974359 1017 611 c 1
 985 574 954 566 932 566 c 0
 914 566 902 572 902 572 c 1
 844 602.545454545 764 614 689 614 c 0
 608 614 533 607 501 595 c 1
 480 568 460 488 460 385 c 0
 460 231 524 111 658 111 c 0xf0
467 905 m 0
 467 860 468 766 488 716 c 1
 586 720 692 746 692 781 c 0
 692 815 694 861 694 909 c 0xf0
 694 1012 681 1131 595 1131 c 0
 468 1131 467 1048 467 905 c 0
EndSplineSet
EndChar

StartChar: f
Encoding: 92 102 71
Width: 758
Flags: HW
LayerCount: 2
Fore
SplineSet
493.182617188 1481.15722656 m 0
 522.5078125 1481.15722656 577.217773438 1494.10253906 577.217773438 1537.49414062 c 0
 577.217773438 1565.66992188 533.323242188 1597 464.995117188 1597 c 0
 350.956054688 1597 308.681640625 1531.00488281 308.681640625 1449.73046875 c 0
 308.681640625 1328.17525613 397.24609375 1170 492.995117188 1170 c 0
 561.995117188 1170 663.995117188 1181 681.995117188 1181 c 0
 730.995117188 1181 770.995117188 1156 770.995117188 1103 c 0
 770.995117188 1044 729.995117188 1016 681.995117188 1016 c 0
 658.995117188 1016 562.995117188 1016 523.995117188 1027 c 1
 523.995117188 958 l 2
 523.995117188 627 631.995117188 641 631.995117188 610 c 0
 631.995117188 575 523.995117188 595 523.995117188 316 c 0
 523.995117188 166.264615385 554.995117188 80.0246153846 644.995117188 8 c 1
 644.995117188 8 638.995117188 -51 539.995117188 -51 c 0
 437.995117188 -51 376.995117188 34 376.995117188 34 c 1
 376.995117188 34 317.995117188 -51 209.995117188 -51 c 0
 108.995117188 -51 103.995117188 8 103.995117188 8 c 1
 195.995117188 80.0246153846 224.995117188 166.264615385 224.995117188 316 c 0
 224.995117188 596 117.995117188 578 117.995117188 613 c 0
 117.995117188 648 226.995117188 644 226.995117188 953 c 0
 226.995117188 974.836065574 222.995117188 1001.98360656 222.995117188 1025 c 1
 184.995117188 1022 129.995117188 1019 105.995117188 1019 c 0
 57.9951171875 1019 16.9951171875 1047 16.9951171875 1106 c 0
 16.9951171875 1159 56.9951171875 1184 105.995117188 1184 c 0
 123.995117188 1184 165.995117188 1183 198.995117188 1182 c 1
 162.004506416 1255.85278192 141.987340929 1337.96592901 141.987340929 1415.73965613 c 0
 141.987340929 1584.02875491 235.710889839 1732 453.995117188 1732 c 0
 641.252203068 1732 777 1637.81356994 777 1489.62597656 c 0
 777 1357.125 610.681640625 1352.51953125 580.995117188 1223 c 1
 532.62890625 1228.61105286 505.462890625 1269.07038682 505.462890625 1307.83496094 c 0
 505.462890625 1336.17773438 517.083984375 1363.70898438 541.995117188 1379 c 1
 540.00390625 1378.87011719 537.951171875 1378.80664062 535.845703125 1378.80664062 c 0
 486.13671875 1378.80664062 406.751953125 1409.87428322 400.995117188 1448 c 1
 396.995117188 1486 416.995117188 1499 416.995117188 1499 c 1
 440.094726562 1490.44433594 463.194335938 1481.15722656 493.182617188 1481.15722656 c 0
EndSplineSet
EndChar

StartChar: g
Encoding: 93 103 72
Width: 1161
Flags: HW
LayerCount: 2
Fore
SplineSet
753 125 m 1
 688 53 611 20 534 20 c 0
 328 20 127 153 127 389 c 0
 127 587 40 595 40 612 c 0
 40 638 127 636 127 906 c 0
 127 1203 330 1311 546 1311 c 0
 654 1311 778 1253 856 1176 c 1
 856 1176 921 1289 1017 1289 c 0
 1128 1289 1147 1250 1150 1237 c 1
 1048 1148 1013 1069 1013 881 c 0
 1013 642 1112 631 1112 612 c 0
 1112 582 1013 474 1013 351 c 0
 1013 -11.5999502698 992.500030518 -412 620 -412 c 0
 466.324468085 -412 318.170212766 -341.420875421 274 -189 c 1
 250 -84 227 -38 181 6 c 1
 181 6 197 18 227 18 c 0
 353 18 399 -89 399 -96 c 1
 398 -90 448 -60 495 -60 c 0
 555 -60 595 -93 595 -101 c 0
 595 -102 594 -103 592 -103 c 0
 541 -107.607802354 518 -147.92607295 518 -191.700195312 c 0
 518 -243.318139772 572.313923851 -281.21962667 629.048830438 -281.21962667 c 0
 691.077490909 -281.21962667 756 -235.915228585 756 -113.700195312 c 0
 756 -32.6322044517 753 49.9370454992 753 125 c 1
647 613 m 0
 647 635 734 631 734 881 c 0
 734 1045 677 1130 568 1130 c 0
 464 1130 408 1049 408 881 c 0
 408 631 496 636 496 613 c 0
 496 600 408 576 408 413 c 0
 408 284 490 219 572 219 c 0
 653 219 734 283 734 413 c 0
 734 576 647 600 647 613 c 0
EndSplineSet
EndChar

StartChar: h
Encoding: 94 104 73
Width: 1249
Flags: HW
LayerCount: 2
Fore
SplineSet
1162 611 m 0
 1162 598 1071 569 1071 344 c 0
 1071 166.79494382 1102 88.25 1196 3 c 5
 1196 3 1174 -51 1088 -51 c 4
 979 -51 904 56 904 56 c 5
 904 56 836 -51 739 -51 c 4
 661 -51 648 -9 645 3 c 5
 735 89.3114754098 770 175.62295082 770 354 c 0
 770 573 672 599 672 611 c 0
 672 634 759 632 759 879 c 0
 759 1065 728 1147 645 1147 c 0
 480 1147 480 908 480 856 c 0
 480 632 566 633 566 611 c 0
 566 597 481 567 481 344 c 0
 481 166.79494382 513 88.25 606 3 c 5
 606 3 587 -51 510 -51 c 4
 402 -51 322 56 322 56 c 5
 322 56 253 -51 158 -51 c 4
 69 -51 53 -9 50 3 c 5
 142 88.25 176 167.752808989 176 344 c 0
 176 545 76 601 76 611 c 0
 76 624 176 635 176 879 c 2
 176 1133 l 2
 176 1389.69014085 145 1502.63380282 55 1619 c 1
 55 1619 59 1678 160 1678 c 0
 270 1678 335 1573 335 1573 c 1
 335 1573 385 1678 470 1678 c 0
 560 1678 566 1619 566 1619 c 1
 521 1496.69230769 496 1377.87912088 484 1195 c 1
 563 1270 666 1310 764 1310 c 0
 921 1310 1062 1189 1062 919 c 0
 1062 671 1162 631 1162 611 c 0
EndSplineSet
EndChar

StartChar: i
Encoding: 95 105 74
Width: 615
Flags: HW
LayerCount: 2
Fore
SplineSet
169 315 m 0
 169 589 70 585 70 611 c 0
 70 650 169 610 169 934 c 0
 169 1106 141 1175 59 1256 c 1
 59 1256 63 1310 155 1310 c 0
 249 1310 305 1233 305 1233 c 1
 305 1233 361 1310 455 1310 c 0
 547 1310 551 1256 551 1256 c 1
 469 1176 441 1106 441 934 c 0
 441 610 540 650 540 611 c 0
 540 585 441 589 441 315 c 0
 441 156.146341463 469 77.1951219512 551 3 c 5
 551 3 547 -51 455 -51 c 4
 361 -51 305 26 305 26 c 5
 305 26 249 -51 155 -51 c 4
 64 -51 59 3 59 3 c 5
 141 77.1951219512 169 156.146341463 169 315 c 0
303 1754 m 0
 303.009330569 1754 513 1570.03984375 513 1570 c 2
 302 1380 l 2
 301.990280439 1380 91 1562.9234375 91 1563 c 0
 91 1570.00411615 290.902598489 1754 303 1754 c 0
EndSplineSet
EndChar

StartChar: j
Encoding: 96 106 75
Width: 830
Flags: HW
LayerCount: 2
Fore
SplineSet
291 -289 m 0
 162 -289 -3 -219 -3 -26 c 0
 -3 101 111 131 111 248 c 0
 111 260 110 273 107 288 c 1
 115 288 l 2
 191 288 220 179 220 136 c 1
 210 99 210 73 210 71 c 1
 210 71 218 72 231 72 c 0
 255 72 297 69 333 54 c 0
 390 31 401 -6 401 -29 c 0
 401 -50 394 -56 394 -56 c 1
 369 -48 342 -42 316 -42 c 0
 285 -42 223 -59 223 -117 c 0
 223 -168 267 -201 325 -201 c 0
 374 -201 465 -164 465 -58 c 0
 465 92 351 150 351 245 c 0
 351 594 243 580 243 613 c 0
 243 650 351 629 351 927 c 0
 351 1085 320 1176 230 1252 c 1
 230 1252 236 1311 335 1311 c 0
 437 1311 498 1226 498 1226 c 1
 498 1226 557 1311 665 1311 c 0
 766 1311 771 1252 771 1252 c 1
 679 1176 650 1085 650 927 c 0
 650 629 757 647 757 610 c 0
 757 577 650 585 650 244 c 0
 650 -135 547 -289 291 -289 c 0
496 1754 m 4
 496.009375 1754 707 1570.03984375 707 1570 c 4
 707 1569.99648437 496.01328125 1380 496 1380 c 4
 495.990234375 1380 284 1562.9234375 284 1563 c 4
 284 1570.00411615 483.902598489 1754 496 1754 c 4
EndSplineSet
EndChar

StartChar: k
Encoding: 97 107 76
Width: 1241
Flags: HW
LayerCount: 2
Fore
SplineSet
682 527 m 1
 648 541 618 541 528 541 c 0
 511 541 495 541 471 545 c 1
 461 329 l 1
 461 158.281337047 496 84.7270194986 598 3 c 1
 598 3 577 -51 490 -51 c 0
 393 -51 326 56 326 56 c 1
 326 56 258 -51 161 -51 c 0
 74 -51 57 -9 54 3 c 1
 146 84.7270194986 179 157.373259053 179 329 c 0
 179 574 67 591 67 612 c 0
 67 672 179 648 179 1083 c 0
 179 1366.565762 148 1494.84551148 53 1622 c 1
 53 1622 74 1678 161 1678 c 0
 258 1678 326 1570 326 1570 c 1
 326 1570 393 1678 490 1678 c 0
 580 1678 595 1635 598 1623 c 1
 496 1482.04255319 461 1368.14893617 461 1093 c 0
 461 863 465 797 469 712 c 1
 489 707 507 706 529 706 c 0
 596 706 681 718 681 718 c 1
 712 891 712 1074 810 1246 c 1
 810 1246 832 1311 884 1311 c 0
 952 1311 986 1215 986 1215 c 1
 986 1215 1064 1311 1136 1311 c 0
 1241 1311 1255 1275 1256 1259 c 1
 1106 1191 1040 1020 1030 933 c 0
 993 609 826 660 826 619 c 0
 826 577 984 621 1030 291 c 0
 1039.55752212 227.253869969 1102.63716814 62.9504643963 1246 1 c 5
 1244 -14 1230 -51 1126 -51 c 4
 1054 -51 976 45 976 45 c 5
 976 45 942 -51 874 -51 c 4
 813 -51 802 9 802 9 c 5
 777.076923077 53.1851179673 687.538461538 393.504537205 682 527 c 1
EndSplineSet
EndChar

StartChar: l
Encoding: 98 108 77
Width: 608
Flags: HW
LayerCount: 2
Fore
SplineSet
301 16 m 5
 301 16 252 -51 152 -51 c 4
 60 -51 56 3 56 3 c 5
 165 64.8862275449 165 122.011976048 165 321 c 0
 165 586 66 586 66 611 c 0
 66 666 165 620 165 1104 c 0
 165 1371.91304348 137 1504.17391304 55 1624 c 1
 55 1624 59 1678 151 1678 c 0
 259 1678 302 1601 302 1601 c 1
 302 1601 357 1678 451 1678 c 0
 543 1678 547 1624 547 1624 c 1
 465 1504.17391304 437 1371.91304348 437 1104 c 0
 437 620 536 666 536 611 c 0
 536 586 437 586 437 321 c 0
 437 122.011976048 437 64.8862275449 546 3 c 5
 546 3 542 -51 450 -51 c 4
 350 -51 301 16 301 16 c 5
EndSplineSet
EndChar

StartChar: m
Encoding: 99 109 78
Width: 1806
Flags: HW
LayerCount: 2
Fore
SplineSet
392 1127 m 1
 454 1259 558 1312 681 1312 c 0
 786 1312 901 1280 969 1138 c 1
 1040 1265 1163 1312 1268 1312 c 0
 1453 1312 1627 1211 1627 914 c 0
 1627 634.203821656 1713 637.108280255 1713 610 c 0
 1713 596.494163424 1627 576.754863813 1627 343 c 0
 1627 166.314606742 1659 88 1752 3 c 1
 1752 3 1731 -51 1644 -51 c 0
 1547 -51 1480 56 1480 56 c 1
 1480 56 1404 -51 1295 -51 c 0
 1249 -51 1244 -9 1241 3 c 1
 1303 89.0655737705 1326 175.131147541 1326 353 c 0
 1326 573.582995951 1258 597.51417004 1258 610 c 0
 1258 634.137931034 1326 631.24137931 1326 890 c 0
 1326 1072 1283 1149 1197 1149 c 0
 1112 1149 1064 1076 1049 924 c 1
 1049 632.290123457 1137 635.197530864 1137 610 c 0
 1137 596.494163424 1051 576.754863813 1051 343 c 0
 1051 166.314606742 1081 88 1176 3 c 5
 1176 3 1155 -51 1068 -51 c 4
 972 -51 903 56 903 56 c 5
 903 56 832 -51 730 -51 c 4
 667 -51 658 -9 655 3 c 5
 732 89.0655737705 760 175.131147541 760 353 c 0
 760 571.502024291 673 597.51417004 673 610 c 0
 673 634.137931034 760 634.137931034 760 890 c 0
 760 1071 714 1149 627 1149 c 0
 536 1149 483 1064 483 890 c 0
 483 631.24137931 551 634.137931034 551 610 c 0
 551 596.494163424 485 566.365758755 485 343 c 0
 485 166.314606742 512 88 590 3 c 1
 590 3 575 -51 515 -51 c 0
 406 -51 331 56 331 56 c 1
 331 56 263 -51 167 -51 c 0
 79 -51 62 -9 59 3 c 1
 152 88 185 167.269662921 185 343 c 0
 185 562.210116732 106 589.221789883 86 610 c 1
 86 626.411764706 185 652.477508651 185 889 c 0
 185 1071 150 1150 47 1237 c 1
 47 1237 72 1289 180 1289 c 0
 301 1289 392 1127 392 1127 c 1
EndSplineSet
EndChar

StartChar: n
Encoding: 100 110 79
Width: 1259
Flags: HW
HStem: -51 21G<122.5 214.5 465 557.5 717 796.5 1042.5 1140> 1148 164<558.087 738.268>
VStem: 185 305<106.077 553.737 672.595 1073.93> 779 301<104.665 551 683.789 1103.73>
LayerCount: 2
Fore
SplineSet
385 1139 m 1
 493 1255 611 1312 718 1312 c 0
 920 1312 1080 1169 1080 894 c 0
 1080 623 1166 626 1166 600 c 0
 1166 587 1080 568 1080 343 c 0
 1080 166.314606742 1112 88 1205 3 c 5
 1205 3 1183 -51 1097 -51 c 4
 988 -51 913 56 913 56 c 5
 913 56 845 -51 748 -51 c 4
 686 -51 673 -9 670 3 c 5
 746 89.0655737705 779 175.131147541 779 353 c 0
 779 572 681 598 681 610 c 0
 681 631 779 665 779 894 c 0
 779 1076 735 1148 661 1148 c 0
 569 1148 488 1068 488 876 c 0
 488 647 575 631 575 610 c 0
 575 596 490 566 490 343 c 0
 490 166.314606742 522 88 615 3 c 5
 615 3 596 -51 519 -51 c 4
 411 -51 331 56 331 56 c 5
 331 56 262 -51 167 -51 c 4
 78 -51 62 -9 59 3 c 5
 151 88 185 167.269662921 185 343 c 0
 185 562 107 588 85 610 c 1
 85 623 185 649 185 869 c 0
 185 1061 149 1144 47 1237 c 1
 47 1237 72 1289 180 1289 c 0
 307 1289 385 1139 385 1139 c 1
EndSplineSet
EndChar

StartChar: o
Encoding: 101 111 80
Width: 1155
Flags: HW
HStem: -68 180<499.506 664.938> 1131 180<499.815 666.233>
VStem: 150 305<160.127 545.101 680.727 1078.81> 713 303<160.127 556.069 674.593 1078.81>
LayerCount: 2
Fore
SplineSet
455 365 m 0
 455 195 497 112 580 112 c 0
 669 112 713 201 713 375 c 0
 713 588 642 590 626 612 c 1
 626 636 713 635 713 891 c 0
 713 1050 668 1131 583 1131 c 0
 498 1131 454 1050 454 891 c 0
 454 635 540 636 540 612 c 0
 540 599 455 589 455 365 c 0
1016 355 m 0
 1016 73 799 -68 583 -68 c 0
 366 -68 150 73 150 355 c 0
 150 580 38 600 38 612 c 0
 38 632 150 637 150 881 c 0
 150 1167 366 1311 583 1311 c 0
 799 1311 1016 1167 1016 881 c 0
 1016 642 1116 631 1116 612 c 1
 1095 591 1016 564 1016 355 c 0
EndSplineSet
EndChar

StartChar: p
Encoding: 102 112 81
Width: 1172
Flags: HW
LayerCount: 2
Fore
SplineSet
1033 884 m 0
 1033 665 1111 637 1133 616 c 1
 1133 597 1033 587 1033 348 c 0
 1033 63.5277777778 859 -70 686 -70 c 4
 606 -70 527 -45.7209302326 465 2 c 1
 481 -159 518 -264 587 -372 c 1
 587 -372 583 -431 481 -431 c 0
 378 -431 316 -326 316 -326 c 1
 316 -326 255 -431 151 -431 c 0
 50 -431 46 -372 46 -372 c 1
 136 -262 167 -151 167 94 c 2
 167 348 l 2
 167 592 55 596 55 616 c 0
 55 630 161 649 167 867 c 1
 166 1066 134 1157 46 1249 c 1
 46 1249 51 1309 151 1309 c 0
 244 1309 307 1220 343 1158 c 1
 432 1259 550 1311 662 1311 c 0
 855 1311 1033 1174 1033 884 c 0
472 884 m 0
 472 661 557 630 557 616 c 0
 557 593 471 595 471 348 c 0
 471 188 515 111 600 111 c 0
 685 111 730 188 730 348 c 0
 730 595 643 593 643 616 c 1
 659 636 730 663 730 874 c 0
 730 1048 683 1131 598 1131 c 0
 514 1131 472 1054 472 884 c 0
EndSplineSet
EndChar

StartChar: q
Encoding: 103 113 82
Width: 1170
Flags: HW
LayerCount: 2
Fore
SplineSet
699 884 m 0
 699 1054 657 1131 573 1131 c 0
 488 1131 441 1048 441 874 c 0
 441 663 512 636 528 616 c 1
 528 593 441 595 441 348 c 0
 441 188 486 111 571 111 c 0
 656 111 700 188 700 348 c 0
 700 595 614 593 614 616 c 0
 614 630 699 661 699 884 c 0
138 884 m 0
 138 1174 316 1311 509 1311 c 0
 621 1311 739 1259 828 1158 c 1
 864 1220 927 1309 1020 1309 c 0
 1120 1309 1125 1249 1125 1249 c 1
 1037 1157 1005 1066 1004 867 c 1
 1010 649 1116 630 1116 616 c 0
 1116 596 1004 592 1004 348 c 2
 1004 94 l 2
 1004 -151 1035 -262 1125 -372 c 1
 1125 -372 1121 -431 1020 -431 c 0
 916 -431 855 -326 855 -326 c 1
 855 -326 793 -431 690 -431 c 0
 588 -431 584 -372 584 -372 c 1
 653 -264 690 -159 706 2 c 1
 644 -45.7209302326 565 -70 485 -70 c 4
 312 -70 138 63.5277777778 138 348 c 0
 138 587 38 597 38 616 c 1
 60 637 138 665 138 884 c 0
EndSplineSet
EndChar

StartChar: r
Encoding: 104 114 83
Width: 916
Flags: HW
LayerCount: 2
Fore
SplineSet
486 933.299804688 m 0
 486 742.720121133 582 608 594 608 c 1
 585 593 490 556 490 343 c 0
 490 166.314606742 522 88 615 3 c 1
 615 3 596 -51 519 -51 c 0
 411 -51 331 56 331 56 c 1
 331 56 262 -51 167 -51 c 0
 78 -51 62 -9 59 3 c 1
 151 88 185 167.269662921 185 343 c 0
 185 562 107 588 85 610 c 1
 85 623 185 649 185 869 c 0
 185 1061 149 1144 47 1237 c 1
 47 1237 72 1289 180 1289 c 0
 268 1289 329 1199 367 1135 c 1
 460 1258 572 1310 672 1310 c 0
 880 1310 940 1192 940 1063 c 0
 940 980 902 890 867 834 c 0
 865 830 864 823 864 820 c 0
 864 800 882 778 900 750 c 1
 896 750 887 741 873 741 c 0
 762 741 740 872 740 878 c 2
 740 879 l 1
 740 879 702 858 661 858 c 0
 561 858 554 944 554 944 c 1
 559 943 565 943 570 943 c 0
 650 943 702 1016.55862475 702 1079.29980469 c 0
 702 1141.64362817 658.592072423 1186.27435501 610.694771443 1186.27435501 c 0
 551.747272238 1186.27435501 486 1118.67498523 486 933.299804688 c 0
EndSplineSet
EndChar

StartChar: s
Encoding: 105 115 84
Width: 986
Flags: HW
LayerCount: 2
Fore
SplineSet
346 467 m 0
 322 480 330 547 255 607 c 1
 151 681 86 781 86 920 c 0
 86 1175 254 1311 507 1311 c 0
 642 1311 891 1240 891 1001 c 0
 891 960 868 910 868 872 c 0
 868 839 877 809 911 774 c 1
 911 774 897 761 870 761 c 0
 767 761 718 900 718 903 c 1
 715 901 660 861 604 861 c 0
 526 861 520 912 520 924 c 1
 585 932 654 963 654 1039 c 0
 654 1100 595 1129 526 1129 c 0
 410 1129 393 1036 393 970 c 0
 393 866 433 809 506 777 c 0
 515 773 527 772 537 772 c 0
 581 772 635 788 654 788 c 0
 674 788 673 697 737 661 c 1
 865 567 930 433 930 305 c 0
 930 110 781 -70 480 -70 c 0
 315 -70 84 46 84 268 c 0
 84 306 95 348 95 386 c 0
 95 423 85 460 53 496 c 1
 53 496 68 510 96 510 c 0
 103 510 110 509 118 507 c 0
 222 479 249 364 249 358 c 1
 249 358 308 405 365 405 c 0
 446 405 455 351 455 342 c 0
 455 341 455 340 455 339 c 0
 407 329 350 297 350 221 c 0
 350 144 411 107 488 107 c 0
 605 107 639 198 639 247 c 0
 639 398 542 481 449 481 c 0
 404 481 369 465 353 465 c 0
 351 465 348 466 346 467 c 0
EndSplineSet
EndChar

StartChar: t
Encoding: 106 116 85
Width: 940
Flags: HW
LayerCount: 2
Fore
SplineSet
106 1109 m 0
 60 1109 39 1156 39 1201 c 0
 39 1226 47 1247 66 1251 c 0
 328 1305.41860465 384 1641 384 1641 c 1
 393 1666 425 1681 455 1681 c 0
 484 1681 510 1666 510 1634 c 0
 510 1547 502 1466 502 1373 c 0
 502 1335.34567901 504 1295.43209877 511 1251 c 1
 562 1251 624 1275 675 1275 c 0
 724 1275 764 1247 764 1187 c 0
 764 1128 724 1100 675 1100 c 0
 624 1100 562 1124 511 1124 c 1
 509 1073 509 1016 509 954 c 0
 509 620 598 651 598 611 c 0
 598 586 509 586 509 321 c 0
 509 245 513 61 643 61 c 0
 701 61 791 93 791 442 c 0
 791 467 832 480 874 480 c 0
 907 480 940 465 940 439 c 0
 940 -52.4482758621 703 -70 614 -70 c 0
 428 -70 343.903320312 33.4306640625 343 33 c 2
 343 33 294 -51 194 -51 c 0
 102 -51 98 3 98 3 c 1
 207 62.0571428571 207 131.108571429 207 321 c 0
 207 586 108 586 108 611 c 0
 108 651 207 620 207 954 c 0
 207 1016 206 1073 204 1124 c 1
 173 1124 137 1109 106 1109 c 0
EndSplineSet
EndChar

StartChar: u
Encoding: 107 117 86
Width: 1200
Flags: HW
LayerCount: 2
Fore
SplineSet
1017 880 m 0
 1017 644 1103 625 1103 612 c 0
 1103 588 1018 587 1018 345 c 0
 1018 161.448467967 1046 86.4902506964 1138 0 c 5
 1138 0 1117 -51 1003 -51 c 4
 877 -51 800 106 800 106 c 5
 729 -14.0462427746 626 -70 520 -70 c 0
 337 -70 160 69.0809399478 160 316 c 0
 160 586 72 586 72 612 c 0
 72 625 160 644 160 890 c 0
 160 1078 132 1166 44 1256 c 1
 44 1256 61 1311 152 1311 c 0
 248 1311 316 1204 316 1204 c 1
 316 1204 383 1311 480 1311 c 0
 557 1311 566 1265 567 1256 c 1
 481 1167 451 1066 451 880 c 0
 451 644 537 625 537 612 c 0
 537 588 451 587 451 330 c 0
 451 171 517 96 592 96 c 0
 665 96 741 179 741 330 c 0
 741 587 663 588 663 612 c 0
 663 626 739 654 739 890 c 0
 739 1078 715 1166 643 1256 c 1
 643 1256 657 1311 729 1311 c 0
 826 1311 893 1204 893 1204 c 1
 893 1204 953 1311 1038 1311 c 0
 1132 1311 1145 1265 1146 1256 c 1
 1051 1166 1017 1068 1017 880 c 0
EndSplineSet
EndChar

StartChar: v
Encoding: 108 118 87
Width: 1096
Flags: HW
LayerCount: 2
Fore
SplineSet
906 601 m 1
 904 601 l 2
 860 601 749 352.705882353 749 199 c 0
 749 130.58490566 766 60.320754717 804 3 c 1
 804 -4 812 -51 693 -51 c 0
 620 -51 561 26 561 26 c 1
 561 26 524 -51 423 -51 c 0
 332 -51 312 3 312 3 c 1
 345 41.3197278912 361 81.4217687075 361 134 c 0
 361 182 351 240 330 315 c 0
 248 606 146 582 146 616 c 0
 146 637 192 634 192 730 c 0
 192 773 182 837 155 934 c 0
 108 1106 60 1175 -44 1256 c 1
 -44 1256 -45 1258 -45 1261 c 0
 -45 1275 -37 1310 37 1310 c 0
 170 1310 287 1193 287 1193 c 1
 287 1193 319 1310 406 1310 c 0
 490 1310 507 1256 507 1256 c 1
 473 1211 456 1169 456 1110 c 0
 456 1064 466 1009 487 934 c 1
 550 612 585 456 603 382 c 1
 632 435.531914894 647 486.70212766 647 530 c 0
 647 559 642 586 634 608 c 0
 634 609.186477919 632.987450959 610.119680106 632.987450959 611.488805451 c 0
 632.987450959 630.803644814 691.293388199 655.58324478 726 934 c 0
 736 1009 737 1064 737 1110 c 0
 737 1169 720 1211 686 1256 c 1
 686 1256 703 1310 787 1310 c 0
 863 1310 886 1213 886 1213 c 1
 886 1213 960 1310 1056 1310 c 0
 1132 1310 1137 1272 1137 1260 c 2
 1137 1256 l 1
 1007 1173.11089866 901 820.024856597 901 693 c 0
 901 649 910 622 910 609 c 0
 910 605 909 602 906 601 c 1
EndSplineSet
EndChar

StartChar: w
Encoding: 109 119 88
Width: 1775
Flags: HW
LayerCount: 2
Fore
SplineSet
1304.86816406 548 m 4
 1304.86816406 569 1298.86816406 591 1298.86816406 611 c 4
 1298.86816406 630.402826855 1376.77966849 654.371024735 1422.86816406 934 c 5
 1429.86816406 1009 1433.86816406 1064 1433.86816406 1110 c 4
 1433.86816406 1169 1416.86816406 1211 1382.86816406 1256 c 5
 1382.86816406 1256 1399.86816406 1310 1483.86816406 1310 c 4
 1559.86816406 1310 1582.86816406 1213 1582.86816406 1213 c 5
 1582.86816406 1213 1648.86816406 1310 1732.86816406 1310 c 4
 1820.86816406 1310 1813.86816406 1259 1813.86816406 1256 c 5
 1698.86816406 1175 1658.86816406 1102 1594.86816406 934 c 4
 1570.86816406 870 1562.86816406 819 1562.86816406 778 c 4
 1562.86816406 682.364341085 1575.86816406 629.96124031 1575.86816406 609 c 4
 1575.86816406 605 1574.86816406 602 1571.86816406 601 c 4
 1551.07214416 590.064301552 1381.86816406 341.277161863 1381.86816406 190 c 4
 1381.86816406 98.802955665 1437.86816406 35.2413793103 1480.86816406 3 c 5
 1480.86816406 -4 1488.86816406 -51 1369.86816406 -51 c 4
 1296.86816406 -51 1237.86816406 26 1237.86816406 26 c 5
 1237.86816406 26 1200.86816406 -51 1099.86816406 -51 c 4
 1008.86816406 -51 988.868164062 3 988.868164062 3 c 5
 1021.86816406 41.3197278912 1037.86816406 81.4217687075 1037.86816406 134 c 4
 1037.86816406 342 914.868164063 618 882.868164062 647 c 5
 851.868164062 608 714.868164062 366 714.868164062 170 c 4
 714.868164062 88.781420765 770.868164062 32.2021857923 813.868164062 3 c 5
 813.868164062 -4 821.868164062 -51 702.868164062 -51 c 4
 629.868164062 -51 570.868164062 26 570.868164062 26 c 5
 570.868164062 26 533.868164062 -51 432.868164062 -51 c 4
 341.868164062 -51 321.868164062 3 321.868164062 3 c 5
 354.868164062 41.3197278912 370.868164062 81.4217687075 370.868164062 134 c 4
 370.868164062 182 360.868164062 240 339.868164062 315 c 4
 257.868164062 606 155.868164062 582 155.868164062 616 c 4
 155.868164062 637 201.868164062 634 201.868164062 730 c 4
 201.868164062 773 191.868164062 837 164.868164062 934 c 4
 117.868164062 1106 69.8681640628 1175 -34.1318359375 1256 c 5
 -34.1318359375 1256 -35.1318359375 1258 -35.1318359375 1261 c 4
 -35.1318359375 1275 -27.1318359375 1310 46.8681640625 1310 c 4
 179.868164062 1310 296.868164062 1193 296.868164062 1193 c 5
 296.868164062 1193 328.868164062 1310 415.868164062 1310 c 4
 499.868164062 1310 516.868164062 1256 516.868164062 1256 c 5
 482.868164062 1211 465.868164062 1169 465.868164062 1110 c 4
 465.868164062 1064 475.868164062 1009 496.868164062 934 c 5
 559.868164062 612 594.868164062 456 612.868164062 382 c 5
 637.254527699 431.914893617 649.868164062 479.627659574 649.868164062 520 c 4
 649.868164062 552.717948718 644.868164062 583.179487179 636.868164062 608 c 4
 636.868164062 609 635.868164062 610 635.868164062 611 c 4
 635.868164062 630.402826855 711.266394151 654.371024735 755.868164062 934 c 5
 762.868164062 1007 766.868164062 1062 766.868164062 1107 c 5
 733.868164062 1167 692.868164062 1210 632.868164062 1256 c 5
 632.868164062 1256 631.868164062 1258 631.868164062 1261 c 4
 631.868164062 1275 639.868164062 1310 713.868164062 1310 c 4
 846.868164062 1310 963.868164062 1193 963.868164062 1193 c 5
 963.868164062 1193 995.868164061 1310 1082.86816406 1310 c 4
 1166.86816406 1310 1183.86816406 1256 1183.86816406 1256 c 5
 1149.86816406 1211 1132.86816406 1169 1132.86816406 1110 c 4
 1132.86816406 1064 1142.86816406 1009 1163.86816406 934 c 5
 1226.86816406 612 1261.86816406 456 1279.86816406 382 c 5
 1292.36816406 438.40776699 1304.86816406 492.398058252 1304.86816406 548 c 4
EndSplineSet
EndChar

StartChar: x
Encoding: 110 120 89
Width: 1108
Flags: HW
LayerCount: 2
Fore
SplineSet
243 275 m 5
 407 527 l 5
 375 552 340 573 303 576 c 4
 292 577 288 581 288 589 c 4
 288 613 325 665 325 733 c 4
 325 758 320 785 306 814 c 6
 225 984 l 5
 148 1126 94 1186 -4 1252 c 5
 -4 1252 -9 1259 -9 1269 c 4
 -9 1287 6 1311 89 1311 c 4
 189 1311 299 1226 299 1226 c 5
 299 1226 303 1311 394 1311 c 4
 463 1311 488 1252 488 1252 c 5
 477 1222 476 1189 476 1155 c 4
 476 1120 482 1044 584 869 c 5
 655 969 679 1031 679 1107 c 4
 679 1150 674 1196 664 1252 c 5
 664 1252 689 1311 758 1311 c 4
 849 1311 853 1226 853 1226 c 5
 853 1226 954 1311 1043 1311 c 4
 1126 1311 1141 1287 1141 1269 c 4
 1141 1259 1136 1252 1136 1252 c 5
 1002 1170 938 1089 817 904 c 6
 697 720 l 5
 725 700 766 677 824 663 c 4
 840 659 846 651 846 641 c 4
 846 614 805 568 805 522 c 4
 805 486 816 436 850 367 c 5
 899 275 l 5
 989 136.937716263 1035 74.3494809689 1135 9 c 5
 1135 9 1141 1 1141 -10 c 4
 1141 -27 1125 -51 1042 -51 c 4
 963 -51 872 34 872 34 c 5
 872 34 868 -51 748 -51 c 4
 679 -51 652 9 652 9 c 5
 656 41 658 69 658 95 c 4
 658 183.171875 626 247.2125 532 392 c 5
 435 243 403 186 403 132 c 4
 403 98.301369863 419 65.4452054795 440 9 c 5
 440 9 413 -51 344 -51 c 4
 235 -51 230 34 230 34 c 5
 230 34 139 -51 60 -51 c 4
 -23 -51 -39 -27 -39 -10 c 4
 -39 1 -33 9 -33 9 c 5
 83 74.3494809689 137 136.937716263 243 275 c 5
EndSplineSet
EndChar

StartChar: y
Encoding: 111 121 90
Width: 1126
Flags: HW
LayerCount: 2
Fore
SplineSet
695 -65 m 0
 664 -319 515 -437 308 -437 c 0
 136 -437 -29 -337 -29 -149 c 0
 -29 -121 -24 -92 -15 -61 c 0
 -3 -20 17 15 17 56 c 0
 17 74 14 93 4 114 c 1
 4 114 11 116 23 116 c 0
 134 116 150 -30 150 -58 c 0
 150 -69 149 -76 149 -77 c 2
 149 -77 190 -64 235 -64 c 0
 327 -64 358 -125 358 -147 c 0
 358 -155 356 -161 355 -163 c 1
 342 -162 328 -161 314 -161 c 0
 259 -161 199 -174 199 -229 c 0
 199 -310 256 -352 316 -352 c 0
 379 -352 444 -304 444 -203 c 0
 444 -188 443 -172 440 -155 c 0
 439 -152 442 -80 348 315 c 1
 266 606 164 582 164 616 c 0
 164 637 210 634 210 730 c 0
 210 773 200 837 173 934 c 0
 126 1106 78 1175 -26 1256 c 1
 -26 1256 -27 1258 -27 1261 c 0
 -27 1275 -19 1310 55 1310 c 0
 188 1310 305 1193 305 1193 c 1
 305 1193 337 1310 424 1310 c 0
 508 1310 525 1256 525 1256 c 1
 491 1211 474 1169 474 1110 c 0
 474 1064 491 1010 505 934 c 0
 568 598 621 352 621 352 c 1
 621 352 662 482.688073394 662 537 c 4
 662 566 657 593 649 615 c 4
 649 616 648 617 648 618 c 4
 648 636.921232877 728.108108108 669.198630137 762 943 c 0
 772 1018 775 1064 775 1110 c 0
 775 1169 758 1211 724 1256 c 1
 724 1256 741 1310 825 1310 c 0
 901 1310 924 1213 924 1213 c 1
 924 1213 990 1310 1074 1310 c 0
 1150 1310 1155 1272 1155 1260 c 2
 1155 1256 l 1
 1040 1175 970 1061 936 934 c 0
 923 887 910 819 910 778 c 0
 910 686.325581395 925 636.093023256 925 616 c 4
 925 612 924 609 921 608 c 4
 860.799126638 577.495750708 751.253275109 383.031161473 695 -65 c 0
EndSplineSet
EndChar

StartChar: z
Encoding: 112 122 91
Width: 990
Flags: HW
LayerCount: 2
Fore
SplineSet
504 1050 m 0
 504 1177 426 1223 384 1223 c 0
 308 1223 276 1175 276 1131 c 0
 276 1096 298 1064 335 1064 c 0
 358 1064 381 1070 403 1078 c 1
 403 1078 410 1072 410 1051 c 0
 410 982 341 950 285 950 c 0
 279 950 274 950 269 951 c 1
 270 949 279 923 279 886 c 0
 279 842 250 734 173 734 c 2
 166 734 l 1
 169 749 170 762 170 774 c 0
 170 891 56 921 56 1048 c 0
 56 1241 207 1312 355 1312 c 0
 541 1312 608 1253 683 1182 c 1
 683 1182 829 1313 932 1313 c 0
 958 1313 995 1289 995 1245 c 0
 995 1238 994 1231 990 1222 c 1
 919 1196 705 754 705 602 c 0
 705 564 722 542 722 530 c 0
 722 527 720 524 716 522 c 0
 677 505 511 354 511 204 c 0
 511 82.4480874317 572 38 651 38 c 4
 726 38 753 64.3214285714 753 105 c 0
 753 163 705 180 680 180 c 0
 654 180 627 174 602 166 c 1
 602 166 595 172 595 193 c 0
 595 222 632 294 745 294 c 0
 758 294 766 293 766 293 c 1
 756 295 756 321 756 358 c 0
 756 402 785 510 862 510 c 2
 869 510 l 1
 866 495 865 482 865 470 c 0
 865 353 979 323 979 196 c 0
 979 15.428030303 813 -51 650 -51 c 4
 458 -51 389 0.284615384615 312 62 c 1
 312 62 166 -69 63 -69 c 0
 37 -69 0 -45 0 -1 c 0
 0 6 1 13 5 22 c 1
 107 60 319 424 319 599 c 0
 319 642 298 664 298 673 c 1
 300 676 l 1
 304 687 504 821 504 1050 c 0
EndSplineSet
EndChar

StartChar: braceleft
Encoding: 113 123 92
Width: 670
Flags: HW
LayerCount: 2
Fore
SplineSet
227 -110 m 2
 227 70 l 2
 227 183 214 281 124 313 c 1
 124 406 109 465 46 510 c 1
 226 537 227 666 227 871 c 2
 227 1050 l 2
 227 1302 318 1374 616 1374 c 1
 616 1289 l 1
 459 1265 440 1206 440 1018 c 2
 440 862 l 2
 440 633 419 530 252 472 c 1
 252 470 l 1
 418 411 440 313 440 77 c 2
 440 -122 l 2
 440 -282 474 -334 616 -350 c 1
 616 -434 l 1
 318 -434 227 -362 227 -110 c 2
EndSplineSet
EndChar

StartChar: bar
Encoding: 114 124 93
Width: 367
Flags: HW
LayerCount: 2
Fore
SplineSet
102 1463 m 1
 264 1463 l 1
 264 -473 l 1
 102 -473 l 1
 102 1463 l 1
EndSplineSet
EndChar

StartChar: braceright
Encoding: 115 125 94
Width: 675
Flags: HW
LayerCount: 2
Fore
SplineSet
232 818 m 2
 232 1062 l 2
 232 1223 195 1270 54 1289 c 1
 54 1374 l 1
 354 1374 443 1302 443 1050 c 2
 443 852 l 2
 443 655 447 534 625 510 c 1
 625 430 l 1
 448 406 443 289 443 87 c 2
 443 -110 l 2
 443 -362 354 -434 54 -434 c 1
 54 -350 l 1
 195 -334 232 -282 232 -122 c 2
 232 33 l 2
 232 293 243 408 419 469 c 1
 419 471 l 1
 266 527 232 614 232 818 c 2
EndSplineSet
EndChar

StartChar: asciitilde
Encoding: 116 126 95
Width: 1151
Flags: HW
LayerCount: 2
Fore
SplineSet
1032 764 m 1
 1068 587 l 1
 994 503 918 441 800 441 c 0
 627 441 511 579 335 579 c 0
 245 579 188 524 119 436 c 1
 82 610 l 1
 138 692 227 759 348 759 c 0
 520 759 688 620 811 620 c 0
 893 620 967 683 1032 764 c 1
EndSplineSet
EndChar

StartChar: exclamdown
Encoding: 118 161 96
Width: 611
Flags: HW
LayerCount: 2
Fore
SplineSet
169 414.900390625 m 1
 189 604.997070312 255.5 1065.90039062 305 1065.90039062 c 0
 360.5 1065.90039062 421 607.169921875 441 414.900390625 c 1
 468.919921875 101.140625 469 45.2353515625 551 -70.099609375 c 1
 551 -70.099609375 547 -124.099609375 455 -124.099609375 c 0
 361 -124.099609375 305 -47.099609375 305 -47.099609375 c 1
 305 -47.099609375 249 -124.099609375 155 -124.099609375 c 0
 64 -124.099609375 59 -70.099609375 59 -70.099609375 c 1
 141 45.2353515625 140.763671875 101.168945312 169 414.900390625 c 1
303 1586.90039062 m 0
 303.009765625 1586.90039062 513 1402.94042969 513 1402.90039062 c 2
 302 1212.90039062 l 2
 301.990234375 1212.90039062 91 1395.82421875 91 1395.90039062 c 0
 91 1402.90429688 290.90234375 1586.90039062 303 1586.90039062 c 0
EndSplineSet
EndChar

StartChar: cent
Encoding: 119 162 97
Width: 1062
Flags: HW
HStem: -85 88<386 497 566 677> 1262 180<498.409 561.037> 1383 59<386 497 566 677>
VStem: 149 280<129.723 614.712 765.094 1235.91> 386 111<-217 3 1383 1603> 566 111<-217 3 1383 1603> 655 270<129.767 481.906 884.916 1239.84>
LayerCount: 2
Fore
SplineSet
386 -217 m 1x88
 386 3 l 1
 497 3 l 1
 497 -217 l 1
 386 -217 l 1x88
386 1383 m 1xa8
 386 1603 l 1
 497 1603 l 1
 497 1383 l 1
 386 1383 l 1xa8
566 -217 m 1x84
 566 3 l 1
 677 3 l 1
 677 -217 l 1
 566 -217 l 1x84
566 1383 m 1xa4
 566 1603 l 1
 677 1603 l 1
 677 1383 l 1
 566 1383 l 1xa4
429 359 m 0xd2
 429 198 430 106 551 106 c 0
 651 106 655 235 655 300 c 0
 655 419 638 466 572 521 c 1
 572 521 575 561 644 561 c 0
 727 561 777 503 777 503 c 1
 777 503 838 561 927 561 c 0
 996 561 999 521 999 521 c 1
 937 469 925 422 925 314 c 2
 925 193 l 2
 925 -51 694 -85 529 -85 c 0
 302 -85 149 43 149 257 c 2
 149 351 l 2
 149 661 50 657 50 687 c 0
 50 726 149 700 149 1024 c 2
 149 1118 l 2
 149 1355 331 1442 536 1442 c 0
 701 1442 925 1408 925 1182 c 2
 925 1061 l 2
 925 948 945 898 1008 844 c 1
 1008 844 1005 804 936 804 c 0
 847 804 786 862 786 862 c 1
 786 862 732 804 643 804 c 0
 574 804 571 844 571 844 c 1
 644 907 655 959 655 1110 c 0
 655 1175 643 1262 540 1262 c 0
 439 1262 428 1176 428 1100 c 0
 428 1077 429 1056 429 1037 c 0
 429 708 528 734 528 695 c 0
 528 665 429 669 429 359 c 0xd2
EndSplineSet
EndChar

StartChar: sterling
Encoding: 120 163 98
Width: 1191
Flags: HW
LayerCount: 2
Fore
SplineSet
83 670 m 1
 83 670 58 673 58 716 c 2
 58 812 l 2
 58 855 83 858 83 858 c 1
 121 854 184 835 246 835 c 0
 255 835 264 838 273 848 c 1
 270 931 269 1028 269 1124 c 0
 269 1358 384 1586 678 1586 c 0
 843 1586 1064 1554 1064 1217 c 0
 1064 1153 1082 1127 1135 1098 c 1
 1135 1098 1132 1054 1056 1054 c 0
 988 1054 941 1118 941 1118 c 1
 941 1118 894 1054 814 1054 c 0
 739 1054 734 1098 734 1098 c 1
 797 1134 807 1163.07692308 807 1242 c 4
 807 1348.02193244 796 1488.90039062 702 1488.90039062 c 0
 596 1488.90039062 563 1368.18162995 563 1229 c 4
 563 1053.6374269 590 855.935672515 599 847 c 1
 610 832 621 828 633 828 c 0
 717 828 798 854 843 858 c 1
 843 858 868 855 868 812 c 2
 868 716 l 2
 868 672 843 670 843 670 c 1
 800 672 719 699 634 699 c 0
 596 699 582 675 582 494 c 0
 582 206 517 179 517 179 c 1
 517 179 517 204 884 204 c 0
 977 204 1025 226 1072 273 c 1
 1072 273 1112 269 1112 203 c 0
 1112 144 1060 108 1055 105 c 1
 1057 103 1112 66 1112 6 c 0
 1112 -60 1072 -65 1072 -65 c 1
 1003 -21 946 -5 893 -5 c 0
 791 -5 712 -64 627 -64 c 0
 571 -64 513 -41 444 9 c 1
 444 9 378 -65 268 -65 c 0
 167 -65 163 -5 163 -5 c 1
 283 71 283 141 283 384 c 0
 283 594 283 693 245 693 c 0
 182 693 120 673 83 670 c 1
EndSplineSet
EndChar

StartChar: fraction
Encoding: 385 8260 99
Width: 1225
Flags: HW
LayerCount: 2
Fore
SplineSet
49 -16 m 1
 1047 1330 l 1
 1175 1330 l 1
 178 -16 l 1
 49 -16 l 1
EndSplineSet
EndChar

StartChar: yen
Encoding: 122 165 100
Width: 1247
Flags: HW
LayerCount: 2
Fore
SplineSet
219 562 m 1
 219 562 194 565 194 608 c 2
 194 654 l 2
 194 697 219 700 219 700 c 1
 268 694 340 691 423 689 c 1
 357 950 219 1230 53 1369 c 1
 53 1369 50 1377 50 1381 c 0
 50 1397 64 1419 153 1419 c 0
 228 1419 336 1304 336 1304 c 1
 336 1304 347 1419 436 1419 c 0
 512 1419 546 1375 554 1361 c 1
 537 1326 527 1291 527 1250 c 0
 527 1146 610 756 627 756 c 0
 653 756 732 1155 732 1250 c 0
 732 1290 723 1326 706 1361 c 1
 706 1361 751 1419 824 1419 c 0
 922 1419 934 1304 934 1304 c 1
 934 1304 1029 1419 1097 1419 c 0
 1185 1419 1198 1397 1198 1381 c 0
 1198 1376 1197 1370 1197 1367 c 1
 1031 1229 891 950 825 689 c 1
 924 692 1010 695 1059 700 c 1
 1059 700 1084 697 1084 654 c 2
 1084 608 l 2
 1084 565 1059 562 1059 562 c 1
 1009 566 911 570 800 573 c 1
 792 529 787 486 785 445 c 1
 900 447 1004 452 1059 457 c 1
 1059 457 1084 454 1084 411 c 2
 1084 365 l 2
 1084 322 1059 319 1059 319 c 1
 1007 323 901 328 784 330 c 1
 789 159 821 81 896 -14 c 1
 896 -14 875 -68 788 -68 c 0
 692 -68 624 39 624 39 c 1
 624 39 556 -68 461 -68 c 0
 372 -68 356 -26 353 -14 c 1
 427 81 458 159 464 331 c 1
 361 329 272 325 219 319 c 1
 219 319 194 322 194 365 c 2
 194 411 l 2
 194 454 219 457 219 457 c 1
 275 450 363 446 463 445 c 1
 460 486 456 529 448 573 c 1
 352 571 270 567 219 562 c 1
EndSplineSet
EndChar

StartChar: florin
Encoding: 321 402 101
Width: 1182
Flags: HW
LayerCount: 2
Fore
SplineSet
296 832 m 1
 307 963 l 1
 549 963 l 1
 575 1110 l 2
 608 1300 701 1445 912 1445 c 0
 997 1445 1101 1408 1143 1332 c 1
 1136 1264 1103 1210 1058 1183 c 1
 982 1192 936 1219 915 1254 c 1
 915 1278 928 1295 953 1299 c 1
 945 1304 928 1307 912 1307 c 0
 815 1307 793 1215 773 1066 c 1
 761 963 l 1
 1003 963 l 1
 991 832 l 1
 741 832 l 1
 629 87 l 2
 579 -244 519 -434 264 -434 c 0
 161 -434 77 -398 34 -319 c 1
 41 -254 75 -201 122 -174 c 1
 197 -182 242 -217 261 -249 c 1
 261 -265 245 -287 222 -296 c 1
 222 -297 l 1
 225 -302 234 -304 248 -304 c 0
 364 -304 379 -221 408 0 c 1
 529 832 l 1
 296 832 l 1
EndSplineSet
EndChar

StartChar: section
Encoding: 124 167 102
Width: 1061
Flags: HW
LayerCount: 2
Fore
SplineSet
241 556 m 0
 241 400 544 353 667 301 c 1
 747 322 825 384 825 482 c 0
 825 642 507 696 400 736 c 1
 295 705 241 652 241 556 c 0
1005 530 m 0
 1005 390 914 295 776 231 c 1
 776 229 l 1
 892 178 954 75 954 -45 c 0
 954 -270 749 -395 529 -395 c 0
 338 -395 138 -308 122 -120 c 1
 122 -64 143 -17 188 -2 c 1
 268 -2 326 -33 358 -61 c 1
 358 -104 342 -122 302 -122 c 1
 305 -230 438 -257 534 -257 c 0
 653 -257 766 -183 766 -72 c 0
 766 193 60 100 60 506 c 0
 60 643 143 749 292 800 c 1
 292 802 l 1
 184 862 118 954 118 1075 c 0
 118 1288 321 1407 537 1407 c 0
 730 1407 928 1318 928 1105 c 1
 896 1066 841 1032 768 1032 c 0
 710 1032 697 1064 697 1131 c 0
 697 1173 701 1206 703 1227 c 1
 686 1242 660 1251 625 1252 c 1
 594 1264 564 1271 532 1271 c 0
 421 1271 305 1221 305 1108 c 0
 305 863 1005 910 1005 530 c 0
EndSplineSet
EndChar

StartChar: quotesingle
Encoding: 29 39 104
Width: 328
Flags: HW
LayerCount: 2
Fore
SplineSet
245 1192 m 1
 213 841 l 1
 193 820 168 810 137 810 c 1
 122 819 114 839 111 870 c 2
 88 1113 l 1
 85 1186 80 1260 80 1332 c 1
 108 1379 149 1395 204 1395 c 1
 231 1379 246 1347 246 1284 c 0
 246 1253 245 1223 245 1192 c 1
EndSplineSet
EndChar

StartChar: quotedblleft
Encoding: 375 8220 105
Width: 923
Flags: HW
LayerCount: 2
Fore
SplineSet
838 1395 m 1
 838 1300 l 1
 734 1273 675 1219 675 1098 c 1
 677 1098 l 1
 704 1111 747 1115 786 1115 c 1
 817 1074 847 1008 847 928 c 1
 827 885 774 853 710 853 c 0
 659 853 615 867 576 888 c 1
 559 951 548 1018 548 1089 c 0
 548 1272 662 1379 838 1395 c 1
363 1395 m 1
 363 1300 l 1
 259 1273 200 1219 200 1098 c 1
 202 1098 l 1
 229 1111 272 1115 311 1115 c 1
 342 1074 372 1008 372 928 c 1
 352 885 299 853 235 853 c 0
 184 853 140 867 101 888 c 1
 84 951 73 1018 73 1089 c 0
 73 1272 187 1379 363 1395 c 1
EndSplineSet
EndChar

StartChar: guillemotleft
Encoding: 128 171 106
Width: 968
Flags: HW
LayerCount: 2
Fore
SplineSet
312 894 m 1
 479 894 l 1
 426 790 323 575 275 484 c 1
 323 390 425 176 479 71 c 1
 312 71 l 1
 245 183 115 371 65 480 c 1
 116 587 245 782 312 894 c 1
728 894 m 1
 896 894 l 1
 840 790 740 575 692 484 c 1
 740 390 840 175 896 71 c 1
 728 71 l 1
 664 184 532 371 482 480 c 1
 533 587 664 782 728 894 c 1
EndSplineSet
EndChar

StartChar: guilsinglleft
Encoding: 383 8249 107
Width: 552
Flags: HW
LayerCount: 2
Fore
SplineSet
311 894 m 1
 480 894 l 1
 424 791 323 576 275 484 c 1
 323 390 424 176 480 71 c 1
 311 71 l 1
 247 184 115 371 65 480 c 1
 116 587 247 782 311 894 c 1
EndSplineSet
EndChar

StartChar: guilsinglright
Encoding: 384 8250 108
Width: 549
Flags: HW
LayerCount: 2
Fore
SplineSet
238 71 m 1
 70 71 l 1
 126 175 227 388 275 481 c 1
 226 575 126 790 70 894 c 1
 238 894 l 1
 305 782 434 593 485 485 c 1
 434 375 305 184 238 71 c 1
EndSplineSet
EndChar

StartChar: endash
Encoding: 370 8211 109
Width: 1213
Flags: HW
LayerCount: 2
Fore
SplineSet
1126 410 m 1
 90 410 l 1
 90 579 l 1
 1126 579 l 1
 1126 410 l 1
EndSplineSet
EndChar

StartChar: dagger
Encoding: 378 8224 110
Width: 1104
Flags: HW
LayerCount: 2
Fore
SplineSet
56 775 m 1
 56 842 79 897 114 929 c 1
 165 929 214 924 265 919 c 1
 340 884 407 863 503 863 c 1
 503 997 481 1082 449 1160 c 1
 442 1227 438 1287 438 1346 c 1
 473 1383 532 1406 604 1406 c 1
 639 1367 666 1307 666 1231 c 1
 642 1146 600 1040 600 863 c 1
 692 863 783 895 839 919 c 1
 890 926 939 929 990 929 c 1
 1025 897 1048 842 1048 775 c 1
 1016 740 960 718 892 718 c 1
 809 737 722 783 600 783 c 1
 600 704 614 624 634 557 c 1
 637 331 642 145 642 -26 c 0
 642 -143 639 -253 633 -363 c 1
 621 -408 593 -439 533 -439 c 1
 463 -388 457 -267 457 -146 c 0
 457 55 464 265 469 557 c 1
 496 629 503 658 503 783 c 1
 391 783 284 731 212 718 c 1
 144 718 88 740 56 775 c 1
EndSplineSet
EndChar

StartChar: daggerdbl
Encoding: 379 8225 111
Width: 1088
Flags: HW
LayerCount: 2
Fore
SplineSet
1024 830 m 1
 1003 797 949 776 894 776 c 0
 804 776 711 836 589 836 c 1
 589 720 620 588 660 487 c 1
 621 388 589 257 589 139 c 1
 708 139 801 199 894 199 c 0
 949 199 1003 178 1024 145 c 1
 1024 81 991 27 956 -4 c 1
 804 -4 751 48 589 59 c 1
 594 -93 635 -171 654 -257 c 1
 654 -333 628 -391 596 -430 c 1
 492 -430 l 1
 457 -391 433 -333 433 -257 c 1
 449 -174 497 -104 497 59 c 1
 413 56 330 30 262 1 c 1
 218 -2 174 -4 131 -4 c 1
 96 27 63 81 63 145 c 1
 84 178 137 199 193 199 c 0
 297 199 388 139 497 139 c 1
 489 277 467 373 424 487 c 1
 466 604 489 698 497 836 c 1
 375 836 286 776 193 776 c 0
 137 776 84 797 63 830 c 1
 63 894 96 949 131 980 c 1
 193 980 l 2
 282 980 384 921 497 916 c 1
 492 1075 452 1146 433 1233 c 1
 433 1308 459 1367 492 1406 c 1
 596 1406 l 1
 628 1367 654 1308 654 1233 c 1
 633 1148 594 1069 589 916 c 1
 693 921 756 948 824 974 c 1
 868 977 911 980 956 980 c 1
 991 949 1024 894 1024 830 c 1
EndSplineSet
EndChar

StartChar: periodcentered
Encoding: 140 183 112
Width: 527
Flags: HW
LayerCount: 2
Fore
SplineSet
111 828 m 1
 152 849 205 861 263 861 c 0
 309 861 359 853 408 836 c 1
 429 795 441 743 441 686 c 0
 441 638 432 588 415 539 c 1
 374 518 321 506 263 506 c 0
 216 506 166 514 116 532 c 1
 96 572 85 623 85 680 c 0
 85 727 93 778 111 828 c 1
EndSplineSet
EndChar

StartChar: paragraph
Encoding: 139 182 113
Width: 1162
Flags: HW
LayerCount: 2
Fore
SplineSet
618 -421 m 1
 448 -421 l 1
 448 540 l 1
 200 548 61 712 61 961 c 0
 61 1213 189 1374 504 1374 c 2
 1108 1374 l 1
 1108 1263 l 1
 1032 1263 980 1246 956 1182 c 1
 956 -421 l 1
 786 -421 l 1
 786 1256 l 1
 618 1256 l 1
 618 -421 l 1
EndSplineSet
EndChar

StartChar: bullet
Encoding: 380 8226 114
Width: 1229
Flags: HW
LayerCount: 2
Fore
SplineSet
969 235 m 1
 967 229 l 1
 625 442 l 1
 269 226 l 1
 267 231 l 1
 363 618 l 1
 49 891 l 1
 451 921 l 1
 613 1305 l 1
 765 931 l 1
 1179 897 l 1
 872 636 l 1
 969 235 l 1
EndSplineSet
EndChar

StartChar: quotesinglbase
Encoding: 374 8218 115
Width: 470
Flags: HW
LayerCount: 2
Fore
SplineSet
96 -283 m 1
 96 -189 l 1
 199 -163 258 -109 258 13 c 1
 256 13 l 1
 229 1 187 -3 148 -3 c 1
 117 38 86 103 86 183 c 1
 107 226 160 259 224 259 c 0
 275 259 319 245 358 224 c 1
 375 161 385 93 385 22 c 0
 385 -160 272 -267 96 -283 c 1
EndSplineSet
EndChar

StartChar: quotedblbase
Encoding: 377 8222 116
Width: 945
Flags: HW
LayerCount: 2
Fore
SplineSet
96 -283 m 1
 96 -189 l 1
 199 -163 258 -109 258 13 c 1
 256 13 l 1
 229 1 187 -3 148 -3 c 1
 117 38 86 103 86 183 c 1
 107 226 160 259 224 259 c 0
 275 259 319 245 358 224 c 1
 375 161 385 93 385 22 c 0
 385 -160 272 -267 96 -283 c 1
570 -283 m 1
 570 -189 l 1
 674 -162 733 -110 733 13 c 1
 731 13 l 1
 704 1 662 -3 623 -3 c 1
 592 38 561 103 561 183 c 1
 582 226 634 259 698 259 c 0
 749 259 793 245 832 224 c 1
 851 161 860 93 860 22 c 0
 860 -160 747 -267 570 -283 c 1
EndSplineSet
EndChar

StartChar: quotedblright
Encoding: 376 8221 117
Width: 928
Flags: HW
LayerCount: 2
Fore
SplineSet
88 853 m 1
 88 947 l 1
 191 972 250 1026 250 1149 c 1
 248 1149 l 1
 221 1136 179 1132 140 1132 c 1
 109 1173 78 1239 78 1319 c 1
 99 1362 152 1395 216 1395 c 0
 267 1395 311 1381 350 1360 c 1
 367 1297 377 1229 377 1158 c 0
 377 974 264 869 88 853 c 1
562 853 m 1
 562 947 l 1
 666 972 725 1026 725 1149 c 1
 723 1149 l 1
 696 1136 654 1132 615 1132 c 1
 584 1173 553 1239 553 1319 c 1
 574 1362 626 1395 690 1395 c 0
 741 1395 785 1381 824 1360 c 1
 843 1297 852 1229 852 1158 c 0
 852 974 739 869 562 853 c 1
EndSplineSet
EndChar

StartChar: guillemotright
Encoding: 144 187 118
Width: 965
Flags: HW
LayerCount: 2
Fore
SplineSet
654 71 m 1
 487 71 l 1
 541 176 643 388 691 481 c 1
 643 575 541 789 487 894 c 1
 654 894 l 1
 721 782 850 592 901 485 c 1
 850 376 721 184 654 71 c 1
238 71 m 1
 70 71 l 1
 126 175 226 388 274 481 c 1
 226 575 126 790 70 894 c 1
 238 894 l 1
 302 782 433 592 484 485 c 1
 433 376 303 184 238 71 c 1
EndSplineSet
EndChar

StartChar: ellipsis
Encoding: 381 8230 119
Width: 1809
Flags: HW
LayerCount: 2
Fore
SplineSet
86 183 m 1
 127 226 201 259 285 259 c 1
 328 218 361 144 361 60 c 1
 320 17 246 -16 162 -16 c 1
 119 25 86 99 86 183 c 1
768 183 m 1
 809 226 883 259 967 259 c 1
 1010 218 1043 144 1043 60 c 1
 1002 17 928 -16 844 -16 c 1
 801 25 768 99 768 183 c 1
1450 183 m 1
 1491 226 1565 259 1649 259 c 1
 1692 218 1725 144 1725 60 c 1
 1684 17 1610 -16 1526 -16 c 1
 1483 25 1450 99 1450 183 c 1
EndSplineSet
EndChar

StartChar: perthousand
Encoding: 382 8240 120
Width: 2170
Flags: HW
LayerCount: 2
Fore
SplineSet
1812 576 m 0
 1732 576 1692 499 1692 330 c 0
 1692 161 1732 82 1812 82 c 0
 1891 82 1932 161 1932 330 c 0
 1932 499 1891 576 1812 576 c 0
312 -16 m 1
 176 -16 l 1
 1147 1330 l 1
 1279 1330 l 1
 312 -16 l 1
361 1227 m 0
 281 1227 241 1150 241 981 c 0
 241 812 281 733 361 733 c 0
 440 733 481 812 481 981 c 0
 481 1150 440 1227 361 1227 c 0
1812 689 m 0
 2009 689 2111 533 2111 330 c 0
 2111 128 2009 -30 1812 -30 c 0
 1612 -30 1513 128 1513 330 c 0
 1513 533 1612 689 1812 689 c 0
361 1340 m 0
 558 1340 660 1184 660 981 c 0
 660 779 558 621 361 621 c 0
 161 621 62 779 62 981 c 0
 62 1184 161 1340 361 1340 c 0
1087 689 m 0
 1284 689 1386 533 1386 330 c 0
 1386 128 1284 -30 1087 -30 c 0
 887 -30 788 128 788 330 c 0
 788 533 887 689 1087 689 c 0
1087 576 m 0
 1007 576 967 499 967 330 c 0
 967 161 1007 82 1087 82 c 0
 1166 82 1207 161 1207 330 c 0
 1207 499 1166 576 1087 576 c 0
EndSplineSet
EndChar

StartChar: questiondown
Encoding: 148 191 121
Width: 1043
Flags: HW
LayerCount: 2
Fore
SplineSet
738 1109.16015625 m 4
 738 969.595703125 613.465820312 842.259765625 486 842.259765625 c 4
 436 842.259765625 398 860.259765625 380 860.259765625 c 4
 376 860.259765625 376 859.259765625 372 858.259765625 c 5
 346 843.259765625 354 771.259765625 272 704.259765625 c 5
 166.416015625 612.541015625 100 476.915039062 100 302.259765625 c 4
 100 23.259765625 294.19921875 -127.740234375 611 -127.740234375 c 4
 767.135742188 -127.740234375 1015 -24.740234375 1015 215.259765625 c 4
 1015 297.766601562 967 388.616210938 967 431.259765625 c 4
 967 472.331054688 982 507.53515625 1017 546.259765625 c 5
 1017 546.259765625 999.41015625 540.259765625 968 540.259765625 c 4
 843 540.259765625 808 374.259765625 808 374.259765625 c 5
 805 378.259765625 747 408.259765625 685 408.259765625 c 4
 569 408.259765625 573 332.259765625 573 327.259765625 c 5
 641 323.745117188 728 295.630859375 728 204.259765625 c 4
 728 127.259765625 660.407226562 92.259765625 603 92.259765625 c 4
 466 92.259765625 446 196.259765625 446 269.259765625 c 4
 446 409.028320312 475 518.984375 568 541.259765625 c 4
 573.834960938 542.451171875 579.869140625 542.9765625 586.00390625 542.9765625 c 4
 631.375 542.9765625 682.262695312 514.259765625 699 514.259765625 c 4
 717.158203125 514.259765625 721 606.259765625 774 660.259765625 c 5
 860.26953125 735.486328125 875.306640625 806.126953125 875.306640625 897.74609375 c 4
 875.306640625 955.037109375 871 1019.34863281 871 1095.25976562 c 4
 871 1140.46679688 834.163085938 1162.71386719 799.26171875 1162.71386719 c 4
 767.846679688 1162.71386719 738 1144.68945312 738 1109.16015625 c 4
780 1281.66015625 m 4
 779.990234375 1281.66015625 569 1465.62011719 569 1465.66015625 c 6
 780 1655.66015625 l 6
 780.009765625 1655.66015625 992 1472.73632812 992 1472.66015625 c 4
 992 1465.65625 792.09765625 1281.66015625 780 1281.66015625 c 4
EndSplineSet
EndChar

StartChar: grave
Encoding: 86 96 122
Width: 598
Flags: HW
LayerCount: 2
Fore
SplineSet
525 1098 m 1
 400 1098 l 1
 142 1310 l 1
 107 1337 83 1359 71 1404 c 1
 90 1427 131 1446 171 1446 c 0
 244 1446 299 1402 355 1370 c 1
 375 1324 l 1
 525 1098 l 1
EndSplineSet
EndChar

StartChar: acute
Encoding: 137 180 123
Width: 594
Flags: HW
LayerCount: 2
Fore
SplineSet
196 1098 m 1
 71 1098 l 1
 241 1370 l 1
 299 1401 358 1446 433 1446 c 0
 470 1446 509 1427 524 1404 c 1
 508 1355 481 1328 441 1296 c 2
 196 1098 l 1
EndSplineSet
EndChar

StartChar: circumflex
Encoding: 356 710 124
Width: 793
Flags: HW
LayerCount: 2
Fore
SplineSet
279 1435 m 1
 507 1435 l 1
 719 1099 l 1
 591 1099 l 1
 394 1287 l 1
 196 1099 l 1
 71 1099 l 1
 279 1435 l 1
EndSplineSet
EndChar

StartChar: tilde
Encoding: 362 732 125
Width: 865
Flags: HW
LayerCount: 2
Fore
SplineSet
686 1395 m 1
 785 1395 l 1
 772 1250 704 1127 574 1127 c 0
 446 1127 342 1239 252 1239 c 0
 205 1239 184 1190 179 1135 c 1
 80 1135 l 1
 88 1297 173 1398 293 1398 c 0
 400 1398 533 1286 592 1286 c 0
 650 1286 673 1327 686 1395 c 1
EndSplineSet
EndChar

StartChar: macron
Encoding: 132 175 126
Width: 807
Flags: HW
LayerCount: 2
Fore
SplineSet
719 1184 m 1
 88 1184 l 1
 88 1311 l 1
 719 1311 l 1
 719 1184 l 1
EndSplineSet
EndChar

StartChar: breve
Encoding: 358 728 127
Width: 772
Flags: HW
LayerCount: 2
Fore
SplineSet
78 1415 m 1
 194 1415 l 1
 209 1312 278 1253 382 1253 c 0
 491 1253 560 1303 579 1415 c 1
 696 1415 l 1
 683 1227 571 1106 381 1106 c 0
 196 1106 86 1238 78 1415 c 1
EndSplineSet
EndChar

StartChar: dotaccent
Encoding: 359 729 128
Width: 414
Flags: HW
LayerCount: 2
Fore
SplineSet
82 1253 m 0
 82 1320 135 1377 206 1377 c 0
 277 1377 330 1320 330 1253 c 0
 330 1186 277 1129 206 1129 c 0
 135 1129 82 1186 82 1253 c 0
EndSplineSet
EndChar

StartChar: dieresis
Encoding: 125 168 129
Width: 810
Flags: HW
LayerCount: 2
Fore
SplineSet
479 1253 m 0
 479 1320 533 1377 602 1377 c 0
 673 1377 726 1320 726 1253 c 0
 726 1186 673 1129 602 1129 c 0
 533 1129 479 1186 479 1253 c 0
82 1253 m 0
 82 1320 135 1377 206 1377 c 0
 277 1377 330 1320 330 1253 c 0
 330 1186 277 1129 206 1129 c 0
 135 1129 82 1186 82 1253 c 0
EndSplineSet
EndChar

StartChar: ring
Encoding: 360 730 130
Width: 579
Flags: HW
LayerCount: 2
Fore
SplineSet
288 1490 m 0
 405 1490 497 1400 497 1283 c 0
 497 1166 405 1074 288 1074 c 0
 171 1074 80 1166 80 1283 c 0
 80 1400 171 1490 288 1490 c 0
288 1401 m 0
 220 1401 169 1350 169 1283 c 0
 169 1215 220 1163 288 1163 c 0
 356 1163 407 1215 407 1283 c 0
 407 1350 356 1401 288 1401 c 0
EndSplineSet
EndChar

StartChar: cedilla
Encoding: 141 184 131
Width: 543
Flags: HW
LayerCount: 2
Fore
SplineSet
161 -185 m 1
 221 7 l 1
 311 7 l 1
 275 -98 l 1
 284 -97 293 -97 302 -97 c 0
 401 -97 459 -157 459 -252 c 0
 459 -369 324 -424 207 -424 c 0
 165 -424 120 -418 78 -406 c 1
 94 -317 l 1
 124 -324 153 -328 180 -328 c 0
 236 -328 287 -314 287 -255 c 0
 287 -218 261 -198 226 -194 c 0
 218 -194 206 -195 193 -198 c 1
 184 -193 173 -189 161 -185 c 1
EndSplineSet
EndChar

StartChar: hungarumlaut
Encoding: 363 733 132
Width: 900
Flags: HW
LayerCount: 2
Fore
SplineSet
191 1103 m 1
 73 1103 l 1
 198 1361 l 1
 249 1399 297 1446 377 1446 c 0
 420 1446 449 1430 464 1410 c 1
 439 1361 400 1319 354 1272 c 2
 191 1103 l 1
557 1103 m 1
 439 1103 l 1
 564 1361 l 1
 612 1399 659 1446 734 1446 c 0
 779 1446 812 1430 831 1410 c 1
 807 1361 767 1320 720 1272 c 2
 557 1103 l 1
EndSplineSet
EndChar

StartChar: ogonek
Encoding: 361 731 133
Width: 583
Flags: HW
LayerCount: 2
Fore
SplineSet
286 0 m 1
 419 0 l 1
 334 -74 274 -144 274 -222 c 0
 274 -292 317 -312 372 -312 c 0
 417 -312 446 -305 483 -286 c 1
 499 -393 l 1
 435 -424 379 -434 307 -434 c 0
 197 -434 83 -378 83 -256 c 0
 83 -156 202 -78 286 0 c 1
EndSplineSet
EndChar

StartChar: caron
Encoding: 357 711 134
Width: 780
Flags: HW
LayerCount: 2
Fore
SplineSet
507 1099 m 1
 279 1099 l 1
 66 1435 l 1
 194 1435 l 1
 395 1247 l 1
 589 1435 l 1
 714 1435 l 1
 507 1099 l 1
EndSplineSet
EndChar

StartChar: emdash
Encoding: 371 8212 135
Width: 2237
Flags: HW
LayerCount: 2
Fore
SplineSet
2150 410 m 1
 90 410 l 1
 90 579 l 1
 2150 579 l 1
 2150 410 l 1
EndSplineSet
EndChar

StartChar: AE
Encoding: 155 198 136
Width: 1800
Flags: HW
LayerCount: 2
Fore
SplineSet
888 1562 m 0
 954 1562 1011 1522 1039 1448 c 1
 1046 1456 1121 1562 1250 1562 c 0
 1325 1562 1431 1533 1487 1466 c 1
 1487 1466 1552 1562 1657 1562 c 0
 1732 1562 1736 1516 1736 1516 c 1
 1667 1464 1645 1402 1645 1312 c 0
 1645 1237 1664 1174 1726 1127 c 1
 1726 1127 1721 1088 1656 1088 c 0
 1574 1088 1524 1145 1524 1145 c 1
 1524 1145 1474 1088 1393 1088 c 0
 1327 1088 1322 1127 1322 1127 c 1
 1364 1165 1393 1209 1393 1277 c 0
 1393 1329 1368 1372 1285 1372 c 0
 1245 1372 1177 1368 1177 1294 c 1
 1200 847 l 1
 1355 847 1436 861 1505 905 c 1
 1505 905 1532 902 1532 855 c 0
 1532 791 1492 752 1492 752 c 1
 1492 752 1532 718 1532 661 c 0
 1532 613 1505 610 1505 610 c 1
 1436 653 1355 669 1200 669 c 1
 1176 206 l 1
 1176 120 1240 117 1275 117 c 0
 1363 117 1394 176 1394 237 c 0
 1394 310 1365 354 1323 395 c 1
 1323 395 1328 435 1394 435 c 0
 1475 435 1525 377 1525 377 c 1
 1525 377 1575 435 1657 435 c 0
 1723 435 1727 395 1727 395 c 1
 1665 346 1646 278 1646 199 c 0
 1646 100 1668 28 1737 -30 c 1
 1737 -30 1734 -74 1658 -74 c 0
 1553 -74 1488 21 1488 21 c 1
 1436 -36 1348 -74 1264 -74 c 0
 1195 -74 1130 -49 1090 11 c 1
 1090 11 1026 -74 913 -74 c 0
 811 -74 808 -14 808 -14 c 1
 862 61 896 134 911 256 c 0
 920 327 924 392 924 449 c 0
 924 508 919 560 913 601 c 1
 889 627 831 640 771 640 c 0
 713 640 652 627 623 602 c 1
 588 521 556 402 538 257 c 0
 534 225 532 196 532 169 c 0
 532 95 547 41 572 -14 c 1
 572 -14 553 -74 452 -74 c 0
 338 -74 296 11 296 11 c 1
 296 11 223 -74 135 -74 c 0
 54 -74 47 -33 47 -19 c 2
 47 -14 l 1
 160 80 214 169 264 375 c 0
 289 481 296 552 296 604 c 0
 296 721 255 731 255 753 c 0
 255 801 388 764 486 1148 c 1
 496 1205 509 1256 509 1309 c 0
 509 1375 489 1440 428 1503 c 1
 428 1503 448 1562 548 1562 c 0
 671 1562 714 1456 714 1456 c 1
 757 1531 827 1562 888 1562 c 0
691 857 m 1
 689 854 689 852 689 849 c 0
 689 810 734 790 789 790 c 0
 849 790 908 812 908 858 c 1
 904 917 902 1367 866 1367 c 0
 829 1367 709 915 691 857 c 1
EndSplineSet
EndChar

StartChar: ordfeminine
Encoding: 127 170 137
Width: 817
Flags: HW
LayerCount: 2
Fore
SplineSet
694 903 m 1
 756 872 l 1
 736 774 685 736 595 736 c 0
 533 736 486 788 476 847 c 1
 421 767 347 732 267 732 c 0
 162 732 70 784 70 894 c 0
 70 1051 259 1092 403 1092 c 0
 426 1092 448 1091 468 1089 c 1
 468 1202 433 1259 326 1259 c 0
 242 1259 232 1238 211 1172 c 0
 203 1147 181 1141 152 1141 c 0
 114 1141 86 1166 86 1197 c 0
 86 1308 242 1341 357 1341 c 0
 468 1341 607 1297 607 1116 c 2
 607 880 l 2
 607 842 620 826 635 826 c 0
 658 826 688 859 694 903 c 1
468 932 m 1
 468 1015 l 1
 399 1010 216 1024 216 909 c 0
 216 854 250 822 313 822 c 0
 386 822 443 871 468 932 c 1
152 530 m 5
 152 637 l 5
 607 637 l 5
 607 530 l 5
 152 530 l 5
EndSplineSet
EndChar

StartChar: Lslash
Encoding: 270 321 138
Width: 1135
Flags: HW
LayerCount: 2
Fore
SplineSet
776 195 m 0
 869 195 917 217 964 264 c 1
 964 264 1004 260 1004 194 c 0
 1004 135 952 99 947 96 c 1
 949 94 1004 57 1004 -3 c 0
 1004 -69 964 -74 964 -74 c 1
 895 -30 838 -14 785 -14 c 0
 718 -14 666 -73 609 -73 c 0
 565 -73 519 -37 466 40 c 1
 466 40 408 -74 310 -74 c 0
 209 -74 205 -14 205 -14 c 1
 325 62 325 132 325 375 c 0
 325 726 216 722 216 756 c 0
 216 801 325 770 325 1148 c 0
 325 1332 294 1417 204 1503 c 1
 204 1503 208 1562 309 1562 c 0
 428 1562 475 1457 475 1457 c 1
 475 1457 536 1562 639 1562 c 0
 740 1562 745 1503 745 1503 c 1
 655 1417 624 1332 624 1148 c 0
 624 770 733 801 733 756 c 0
 733 722 624 726 624 375 c 0
 624 213 636 200 636 200 c 1
 636 200 636 195 776 195 c 0
1082 659 m 1
 46 659 l 1
 46 828 l 1
 1082 828 l 1
 1082 659 l 1
EndSplineSet
EndChar

StartChar: Oslash
Encoding: 173 216 139
Width: 1240
Flags: HW
LayerCount: 2
Fore
SplineSet
165 -229 m 1
 983 1750 l 1
 1067 1710 l 1
 249 -269 l 1
 165 -229 l 1
496 421 m 0
 496 206 496 98 626 98 c 0
 757 98 758 218 758 432 c 2
 758 1088 l 2
 758 1290 756 1372 626 1372 c 0
 497 1372 495 1290 495 1088 c 0
 495 494 496 998 496 421 c 0
1091 421 m 0
 1091 37 924 -92 626 -92 c 0
 328 -92 161 37 161 421 c 0
 161 708 37 734 37 748 c 0
 37 773 161 779 161 1077 c 0
 161 1505 328 1586 627 1586 c 0
 924 1586 1091 1505 1091 1077 c 0
 1091 784 1201 772 1201 748 c 0
 1201 746 1198 744 1192 739 c 0
 1159 714 1091 659 1091 421 c 0
EndSplineSet
EndChar

StartChar: OE
Encoding: 284 338 140
Width: 1693
Flags: HW
LayerCount: 2
Fore
SplineSet
1113 669 m 1
 1069 206 l 1
 1069 120 1133 117 1168 117 c 0
 1256 117 1287 176 1287 237 c 0
 1287 310 1258 354 1216 395 c 1
 1216 395 1221 435 1287 435 c 0
 1368 435 1418 377 1418 377 c 1
 1418 377 1468 435 1550 435 c 0
 1616 435 1620 395 1620 395 c 1
 1558 346 1539 278 1539 199 c 0
 1539 100 1561 28 1630 -30 c 1
 1630 -30 1627 -74 1551 -74 c 0
 1446 -74 1381 21 1381 21 c 1
 1325 -46 1220 -74 1144 -74 c 0
 998.632034632 -74 913.737073893 40.0064841364 913.004776824 40.0064841364 c 0
 869.006084443 40.0064841364 726.0034833 -92 627 -92 c 0
 329 -92 162 37 162 421 c 0
 162 708 38 734 38 748 c 0
 38 773 162 779 162 1077 c 0
 162 1505 329 1586 628 1586 c 0
 755 1586 851 1547 911 1447 c 1
 911 1444 996 1562 1143 1562 c 0
 1218 1562 1324 1533 1380 1466 c 1
 1380 1466 1445 1562 1550 1562 c 0
 1625 1562 1629 1516 1629 1516 c 1
 1560 1464 1538 1402 1538 1312 c 0
 1538 1237 1557 1174 1619 1127 c 1
 1619 1127 1614 1088 1549 1088 c 0
 1467 1088 1417 1145 1417 1145 c 1
 1417 1145 1367 1088 1286 1088 c 0
 1220 1088 1215 1127 1215 1127 c 1
 1257 1165 1286 1209 1286 1277 c 0
 1286 1329 1261 1372 1178 1372 c 0
 1138 1372 1070 1368 1070 1294 c 1
 1113 847 l 1
 1258 847 1333 861 1398 905 c 1
 1398 905 1425 902 1425 855 c 0
 1425 791 1385 752 1385 752 c 1
 1385 752 1425 718 1425 661 c 0
 1425 613 1398 610 1398 610 c 1
 1333 653 1258 669 1113 669 c 1
497 421 m 0
 497 206 497 98 627 98 c 0
 758 98 759 218 759 432 c 1
 748 725 651 724 651 756 c 0
 651 798 747 774 759 1086 c 1
 759 1088 l 2
 759 1290 757 1372 627 1372 c 0
 498 1372 496 1290 496 1088 c 0
 496 772 580 777 580 748 c 0
 580 730 497 695 497 421 c 0
EndSplineSet
EndChar

StartChar: ordmasculine
Encoding: 143 186 141
Width: 805
Flags: HW
LayerCount: 2
Fore
SplineSet
221 1034 m 0
 221 903 291 824 402 824 c 0
 513 824 583 903 583 1034 c 0
 583 1163 513 1244 402 1244 c 0
 291 1244 221 1163 221 1034 c 0
65 1034 m 0
 65 1220 208 1341 402 1341 c 0
 597 1341 738 1220 738 1034 c 0
 738 850 597 728 402 728 c 0
 208 728 65 850 65 1034 c 0
171 530 m 1
 171 637 l 1
 626 637 l 1
 626 530 l 1
 171 530 l 1
EndSplineSet
EndChar

StartChar: ae
Encoding: 187 230 142
Width: 1568
Flags: HW
LayerCount: 2
Fore
SplineSet
1441 936 m 0
 1441 743 1470 681 1489 656 c 1
 1113 656 l 2
 1067 656 1007 654 955 649 c 1
 952 597 950 513 950 405 c 0
 950 219 951 113 1078 113 c 0
 1192 113 1196 219 1196 273 c 0
 1196 367 1167 409 1092 451 c 1
 1092 451 1114 485 1169 485 c 0
 1252 485 1313 402 1313 402 c 1
 1313 402 1374 485 1456 485 c 0
 1515 485 1530 461 1533 451 c 1
 1456 409 1441 372 1441 285 c 0
 1441 -39 1230 -84 1062 -84 c 0
 941 -84 851 -40 793 48 c 1
 696 -59 598 -84 473 -84 c 0
 331 -84 156 -48 112 199 c 1
 99 278 38 336 38 350 c 0
 38 365 99 416 108 478 c 1
 141 678 271 757 478 757 c 0
 595 757 634 834 634 955 c 0
 634 1142 630 1246 513 1246 c 0
 389 1246 385 1139 385 1085 c 0
 385 991 414 949 489 907 c 1
 489 907 467 873 412 873 c 0
 329 873 268 956 268 956 c 1
 268 956 207 873 125 873 c 0
 66 873 51 897 48 907 c 1
 125 949 140 986 140 1073 c 0
 140 1397 363 1442 539 1442 c 0
 644 1442 730 1405 795 1325 c 1
 863 1405 952 1442 1062 1442 c 0
 1230 1442 1441 1385 1441 936 c 0
634 417 m 0
 634 599 549 619 521 619 c 0
 429 619 395 535 395 336 c 0
 395 330.615384615 394.970414201 324.597633136 394.970414201 318.076012745 c 0
 394.970414201 239.816568047 399.230769231 89 510 89 c 0
 633 89 634 209 634 417 c 0
950 955 m 0
 950 898 948 856 944 823 c 1
 990 813 1033 813 1080 813 c 0
 1130 813 1163 820 1186 831 c 1
 1196 861 1196 894 1196 936 c 0
 1196 943.852941176 1196.0467128 952.733564014 1196.0467128 962.39937411 c 0
 1196.0467128 1062.27941176 1191.05882353 1246 1078 1246 c 0
 951 1246 950 1142 950 955 c 0
EndSplineSet
EndChar

StartChar: dotlessi
Encoding: 254 305 143
Width: 606
Flags: HW
LayerCount: 2
Fore
SplineSet
165 341 m 0
 165 660 66 656 66 687 c 0
 66 728 165 700 165 1044 c 0
 165 1216 137 1286 55 1366 c 1
 55 1366 59 1420 151 1420 c 0
 245 1420 301 1343 301 1343 c 1
 301 1343 357 1420 451 1420 c 0
 543 1420 547 1366 547 1366 c 1
 465 1286 437 1216 437 1044 c 0
 437 700 536 728 536 687 c 0
 536 656 437 660 437 341 c 0
 437 154 465 73 547 -13 c 1
 547 -13 543 -67 451 -67 c 0
 357 -67 301 10 301 10 c 1
 301 10 245 -67 151 -67 c 0
 60 -67 55 -13 55 -13 c 1
 137 73 165 154 165 341 c 0
EndSplineSet
EndChar

StartChar: lslash
Encoding: 271 322 144
Width: 1115
Flags: HW
LayerCount: 2
Fore
SplineSet
691 177 m 0
 775 177 819 197 862 240 c 1
 862 240 898 236 898 176 c 0
 898 123 851 90 846 87 c 1
 848 85 898 52 898 -3 c 0
 898 -63 862 -67 862 -67 c 1
 799 -27 747 -13 699 -13 c 0
 628 -13 573 -66 512 -66 c 0
 472 -66 430 -45 382 0 c 1
 382 0 322 -67 222 -67 c 0
 130 -67 126 -13 126 -13 c 1
 235 56 235 120 235 341 c 0
 235 660 136 656 136 687 c 0
 136 728 235 700 235 1044 c 0
 235 1211 207 1288 125 1366 c 1
 125 1366 129 1420 221 1420 c 0
 329 1420 372 1343 372 1343 c 1
 372 1343 427 1420 521 1420 c 0
 613 1420 617 1366 617 1366 c 1
 535 1288 507 1211 507 1044 c 0
 507 700 606 728 606 687 c 0
 606 656 507 660 507 341 c 0
 507 194 518 182 518 182 c 1
 518 182 518 177 691 177 c 0
1077 410 m 1
 41 410 l 1
 41 579 l 1
 1077 579 l 1
 1077 410 l 1
EndSplineSet
EndChar

StartChar: oslash
Encoding: 205 248 145
Width: 1151
Flags: HW
LayerCount: 2
Fore
SplineSet
160 -229 m 1
 910 1605 l 1
 994 1565 l 1
 244 -269 l 1
 160 -229 l 1
454 383 m 0
 454 187 454 89 582 89 c 0
 711 89 712 198 712 393 c 2
 712 979 l 2
 712 1170 710 1247 582 1247 c 0
 455 1247 453 1170 453 979 c 0
 453 458 454 898 454 383 c 0
1015 383 m 0
 1015 34 859 -84 582 -84 c 0
 305 -84 149 34 149 383 c 0
 149 644 37 667 37 680 c 0
 37 703 149 708 149 979 c 0
 149 1368 305 1442 583 1442 c 0
 859 1442 1015 1368 1015 979 c 0
 1015 713 1115 702 1115 680 c 0
 1115 678 1112 676 1107 672 c 0
 1077 649 1015 599 1015 383 c 0
EndSplineSet
EndChar

StartChar: oe
Encoding: 285 339 146
Width: 1637
Flags: HW
LayerCount: 2
Fore
SplineSet
1510 936 m 0
 1510 743 1539 681 1558 656 c 1
 1182 656 l 2
 1136 656 1076 654 1024 649 c 1
 1021 597 1019 513 1019 405 c 0
 1019 219 1020 113 1147 113 c 0
 1261 113 1265 219 1265 273 c 0
 1265 367 1236 409 1161 451 c 1
 1161 451 1183 485 1238 485 c 0
 1321 485 1382 402 1382 402 c 1
 1382 402 1443 485 1525 485 c 0
 1584 485 1599 461 1602 451 c 1
 1525 409 1510 372 1510 285 c 0
 1510 -39 1299 -84 1131 -84 c 0
 1021 -84 932 -44 864 43 c 1
 797 -46 703 -84 582 -84 c 0
 305 -84 149 34 149 383 c 0
 149 644 37 667 37 680 c 0
 37 703 149 708 149 979 c 0
 149 1368 305 1442 583 1442 c 0
 709 1442 806 1416 874 1322 c 1
 940 1404 1026 1442 1131 1442 c 0
 1299 1442 1510 1385 1510 936 c 0
454 383 m 0
 454 187 454 89 582 89 c 0
 711 89 712 198 712 393 c 0
 712 601 657 649 632 672 c 0
 627 676 625 678 625 680 c 0
 625 706 712 705 712 979 c 0
 712 1170 710 1247 582 1247 c 0
 455 1247 453 1170 453 979 c 0
 453 705 539 706 539 680 c 0
 539 663 454 630 454 383 c 0
1019 955 m 0
 1019 898 1017 856 1013 823 c 1
 1059 813 1102 813 1149 813 c 0
 1199 813 1232 820 1255 831 c 1
 1265 861 1265 894 1265 936 c 0
 1265 943.852941176 1265.0467128 952.733564014 1265.0467128 962.39937411 c 0
 1265.0467128 1062.27941176 1260.05882353 1246 1147 1246 c 0
 1020 1246 1019 1142 1019 955 c 0
EndSplineSet
EndChar

StartChar: germandbls
Encoding: 180 223 147
Width: 1149
Flags: HW
LayerCount: 2
Fore
SplineSet
586.5 722 m 1,0,0
586.5 809 m 1,0,0
 586.5 722 l 1,0,0
 779.64045001 686.330067789 794.250976562 494.246375267 794.250976562 370 c 0,0,0
 794.250976562 202.234432159 767.239388166 79.2509765625 674.142578125 79.2509765625 c 0,0,0
 624.311919208 79.2509765625 594.5 113.115441003 594.5 145 c 0,23,24
 594.5 192.533333333 627.608108108 207 644.5 207 c 0,21,22
 675.322580645 207 706.14516129 211 735.5 215 c 1,19,20
 735.5 215 741.5 220 741.5 237 c 0,17,18
 741.5 255 735.12962963 285 698.5 303 c 0,15,16
 677.987804878 313.4 653.93902439 316 640.5 316 c 0,13,14
 630.5 316 623.5 315 623.5 315 c 1,11,12
 623.5 317 623.5 337 631.5 367 c 1,9,10
 631.5 401 608.5 489 547.5 489 c 2,7,8
 541.5 489 l 1,6,-1
 543.5 477 544.5 467 544.5 457 c 0,4,5
 544.5 363 453.5 339 453.5 237 c 0,2,3
 453.5 63.2 604.59787234 0 722.5 0 c 0,0,1
 919.623684211 0 1052.09212459 77.6260808342 1091.5 327 c 1,6,7
 1097.49990804 378.999957889 1149.98190641 449.985400483 1148.5 459 c 1,4,5
 1148.5 468.689440994 1068.53936164 536.829630928 1056.5 589 c 1,2,3
 1023.146947 712.464033677 949.381737625 764.165750374 846.5 780 c 1,0,1
 927.754152975 805.415677024 973.493293705 855.329209006 987.5 954 c 5,34,35
 1007.53640412 1064.93893691 1081 1124.86046512 1081 1140 c 4,32,33
 1081 1160.86010363 1006.289268 1216.99296437 984 1323 c 4,30,31
 950.787949825 1480.99992535 804.173515982 1586 596 1586 c 0,28,29
 373 1586 179 1510 179 1151 c 0,30,31
 179 772 70 801 70 756 c 0,18,19
 70 723 179 727 179 386 c 0,16,17
 179 185 146 59 59 -22 c 1,14,15
 59 -22 90 -73 163 -73 c 0,12,13
 256.230769231 -73 319 42 319 42 c 1,10,11
 319 42 375 -73 459 -73 c 0,12,13
 532 -73 563 -22 563 -22 c 1,14,15
 444.463414634 41 401 138 401 294 c 0,47,48
 401 619.536082474 452.5 641 452.5 641 c 1,45,46
 491.197719057 687.844634835 510.014437328 706.551035335 510.014437328 728.143811809 c 0,0,0
 510.014437328 738.356181561 505.805427248 749.214189166 497.5 764 c 1,0,0
 454.83337744 822.666465934 452.462960513 885.668055526 452.462960513 1040.47262411 c 0,0,0
 452.462960513 1059.82364527 452.5 1080.60915471 452.5 1103 c 0,0,0
 452.5 1238.19191442 492.126798868 1372 600 1372 c 4,41,42
 717.499916986 1372 744 1244.59024904 744 1137 c 4,39,40
 744 968.238421426 731.093630629 809 586.5 809 c 1,0,0
EndSplineSet
EndChar

StartChar: uni00B9
Encoding: 142 185 148
Width: 650
Flags: HMW
LayerCount: 2
Fore
SplineSet
174 612 m 4
 174 893 87 890 87 917 c 4
 87 953 174 929 174 1231 c 4
 174 1383 149 1445 77 1515 c 5
 77 1515 80 1562 161 1562 c 4
 244 1562 293 1494 293 1494 c 5
 293 1494 343 1562 425 1562 c 4
 507 1562 510 1515 510 1515 c 5
 438 1445 413 1383 413 1231 c 4
 413 929 500 953 500 917 c 4
 500 890 413 893 413 612 c 4
 413 447 438 376 510 301 c 5
 510 301 507 253 425 253 c 4
 343 253 293 321 293 321 c 5
 293 321 244 253 161 253 c 4
 81 253 77 301 77 301 c 5
 149 376 174 447 174 612 c 4
EndSplineSet
EndChar

StartChar: logicalnot
Encoding: 129 172 149
Width: 1207
Flags: HW
LayerCount: 2
Fore
SplineSet
946 278 m 1
 946 712 l 1
 82 712 l 1
 82 874 l 1
 1109 874 l 1
 1109 278 l 1
 946 278 l 1
EndSplineSet
EndChar

StartChar: uni00B5
Encoding: 138 181 150
Width: 1242
Flags: HW
LayerCount: 2
Fore
SplineSet
167 -50 m 0
 167 323 168 356 168 356 c 2
 168 653 80 651 80 680 c 0
 80 693 168 714 168 978 c 0
 168 1176 140 1271 52 1365 c 1
 52 1365 69 1420 160 1420 c 0
 256 1420 324 1313 324 1313 c 1
 324 1313 391 1420 488 1420 c 0
 565 1420 574 1374 575 1365 c 1
 489 1272 459 1164 459 968 c 0
 459 714 535 693 535 680 c 0
 535 653 459 654 459 370 c 0
 459 179 496 96 620 96 c 0
 760 96 785 205 785 370 c 0
 785 654 707 653 707 680 c 0
 707 695 783 726 783 978 c 0
 783 1176 755 1271 667 1365 c 1
 667 1365 681 1420 753 1420 c 0
 850 1420 917 1313 917 1313 c 1
 917 1313 985 1420 1082 1420 c 0
 1176 1420 1189 1374 1190 1365 c 1
 1095 1271 1062 1176 1062 978 c 0
 1062 760 1124 710 1154 688 c 0
 1158 684 1162 682 1162 680 c 0
 1162 660 1062 634 1062 381 c 0
 1062 173 1091 85 1182 -14 c 1
 1182 -14 1161 -65 1047 -65 c 0
 963 -65 914 36 914 36 c 1
 824 -18 706 -84 597 -84 c 0
 540 -84 485 -66 439 -17 c 1
 439 -50 l 2
 439 -207 467 -271 549 -344 c 1
 549 -344 545 -398 453 -398 c 0
 359 -398 303 -321 303 -321 c 1
 303 -321 247 -398 153 -398 c 0
 62 -398 57 -344 57 -344 c 1
 139 -271 167 -207 167 -50 c 0
EndSplineSet
EndChar

StartChar: trademark
Encoding: 388 8482 151
Width: 1770
Flags: HW
LayerCount: 2
Fore
SplineSet
456 1289 m 1
 456 695 l 2
 456 642 455 627 548 611 c 1
 548 552 l 1
 212 552 l 1
 212 611 l 1
 304 627 303 641 303 695 c 2
 303 1289 l 1
 180 1289 l 2
 148 1289 131 1259 120 1224 c 1
 64 1224 l 1
 64 1374 l 1
 686 1374 l 1
 686 1224 l 1
 630 1224 l 1
 619 1259 601 1289 569 1289 c 2
 456 1289 l 1
1154 551 m 1
 943 1193 l 1
 939 1193 l 1
 939 761 l 2
 939 683 948 644 1033 614 c 1
 1033 552 l 1
 754 552 l 1
 754 613 l 1
 838 641 847 682 847 758 c 2
 847 1236 l 2
 847 1297 793 1314 735 1314 c 1
 735 1374 l 1
 1018 1374 l 1
 1225 752 l 1
 1227 752 l 1
 1440 1374 l 1
 1701 1374 l 1
 1701 1314 l 1
 1617 1299 1606 1274 1606 1227 c 2
 1606 737 l 2
 1606 670 1605 642 1698 613 c 1
 1698 552 l 1
 1357 552 l 1
 1357 614 l 1
 1442.75 639.375 1448.109375 665.515625 1448.109375 715.869140625 c 0
 1448.109375 723.0625 1448 730.75 1448 739 c 2
 1448 1195 l 1
 1444 1195 l 1
 1229 551 l 1
 1154 551 l 1
EndSplineSet
EndChar

StartChar: Eth
Encoding: 165 208 152
Width: 1212
Flags: HW
LayerCount: 2
Fore
SplineSet
26 663 m 1
 26 663 1 666 1 709 c 2
 1 783 l 2
 1 826 26 829 26 829 c 1
 50.0568219564 824.797238093 81.993893959 821.830900721 118.874264514 819.804050859 c 1
 148.143314463 863.779584107 180 952.160657926 180 1163 c 0
 180 1341 149 1419 59 1503 c 1
 59 1503 63 1562 164 1562 c 0
 275 1562 342 1462 342 1462 c 1
 419 1570 563 1586 678 1586 c 0
 893 1586 1082 1491 1082 1230 c 2
 1082 1126 l 2
 1082 770 1169 799 1169 756 c 0
 1169 723 1082 727 1082 386 c 2
 1082 283 l 2
 1082 61 922 -74 686 -74 c 0
 563 -74 420 -51 342 41 c 1
 342 41 275 -74 164 -74 c 0
 63 -74 59 -14 59 -14 c 1
 149 74 180 197 180 386 c 0
 180 541.065277451 157.460365928 624.78951128 132.880303713 673.09332839 c 1
 88.7214746374 671.081808735 51.3785493715 667.871511072 26 663 c 1
490 342 m 0
 490 210 493 117 621 117 c 0
 750.116788321 117 752.001704939 195.22403964 752.001704939 337.94799975 c 0
 752.001704939 342.240449678 752 346.591240876 752 351 c 0
 752 722 676 719 676 756 c 0
 676 809 752 762 752 1218 c 0
 752 1258 752 1372 630 1372 c 0
 492 1372 490 1285 490 1220 c 0
 490 972.875120855 512.22358569 872.250457905 532.635742069 823.883452328 c 1
 554.364623258 825.466173866 572.628769691 827.200026689 586 829 c 1
 586 829 611 826 611 783 c 2
 611 709 l 2
 611 665 586 663 586 663 c 1
 572.129689044 664.770677994 550.856585099 666.628447671 524.725175031 668.36769393 c 1
 506.877228024 615.367662942 490 521.5431079 490 342 c 0
EndSplineSet
EndChar

StartChar: onehalf
Encoding: 146 189 153
Width: 1979
Flags: HMW
LayerCount: 2
Fore
SplineSet
720.709960938 35.001953125 m 4
 720.709960938 -10.3525390625 743.686523438 -50.271484375 743.686523438 -77.76171875 c 4
 743.686523438 -102.102539062 725.673828125 -116.700195312 657.75 -116.700195312 c 4
 583.760742188 -116.700195312 553.970703125 -84.5087890625 553.970703125 -60.87109375 c 4
 553.970703125 -57.6162109375 554.15625 -54.5244140625 554.385742188 -51.7001953125 c 5
 554.385742188 -51.7001953125 527.78125 -116.700195312 423.78125 -116.700195312 c 4
 373.088867188 -116.700195312 360.591796875 -101.282226562 360.591796875 -86.0771484375 c 4
 360.591796875 -75.966796875 370.545898438 -58.0830078125 372.416015625 -56.7001953125 c 4
 504.45703125 41.009765625 716.903320312 485.624023438 716.903320312 696.2265625 c 4
 716.903320312 733.280273438 709.525390625 749.92578125 709.525390625 763.15234375 c 5
 709.525390625 763.15234375 1022.80078125 1235.10644531 1022.80078125 1487.85449219 c 4
 1022.80078125 1526.50195312 1004.26074219 1564.48632812 1004.26074219 1592.74707031 c 4
 1004.26074219 1620.82128906 1022.55761719 1639.29980469 1095.50292969 1639.29980469 c 4
 1159.26757812 1639.29980469 1166.11230469 1614.86425781 1166.11230469 1595.95800781 c 4
 1166.11230469 1590.79003906 1165.60058594 1586.03417969 1165.60058594 1582.3046875 c 4
 1165.60058594 1579.87207031 1165.7421875 1578.79882812 1166.16894531 1578.79882812 c 4
 1169.37890625 1578.79882812 1208.72024862 1639.29980469 1305.50292969 1639.29980469 c 4
 1357.39746094 1639.29980469 1370.14453125 1624.02734375 1370.14453125 1609.0234375 c 4
 1370.14453125 1598.74414062 1358.84472656 1581.77929688 1358.26171875 1580.29980469 c 4
 1223.42089844 1485.1171875 1022.75 1046.94921875 1022.75 854.63671875 c 4
 1022.75 817.369140625 1031.12695312 802.23046875 1031.12695312 787.338867188 c 4
 1031.12695312 731.096679688 949.1328125 721.928710938 807.46875 362.299804688 c 4
 750.352539062 217.306640625 720.709960938 115.413085938 720.709960938 35.001953125 c 4
223.5 746.599609375 m 0
 223.5 1027.59960938 136.5 1004.59960938 136.5 1031.59960938 c 0
 136.5 1067.59960938 223.5 1003.59960938 223.5 1305.59960938 c 0
 223.5 1457.59960938 198.5 1519.59960938 126.5 1589.59960938 c 1
 126.5 1589.59960938 129.5 1636.59960938 210.5 1636.59960938 c 0
 293.5 1636.59960938 332.5 1568.59960938 332.5 1568.59960938 c 1
 332.5 1568.59960938 372.5 1636.59960938 454.5 1636.59960938 c 0
 536.5 1636.59960938 539.5 1589.59960938 539.5 1589.59960938 c 1
 467.5 1519.59960938 442.5 1457.59960938 442.5 1305.59960938 c 0
 442.5 1003.59960938 529.5 1067.59960938 529.5 1031.59960938 c 0
 529.5 1004.59960938 442.5 1027.59960938 442.5 746.599609375 c 0
 442.5 581.599609375 467.5 510.599609375 539.5 435.599609375 c 1
 539.5 435.599609375 536.5 387.599609375 454.5 387.599609375 c 0
 372.5 387.599609375 332.5 455.599609375 332.5 455.599609375 c 1
 332.5 455.599609375 293.5 387.599609375 210.5 387.599609375 c 0
 130.5 387.599609375 126.5 435.599609375 126.5 435.599609375 c 1
 198.5 510.599609375 223.5 581.599609375 223.5 746.599609375 c 0
2048.5 931.599609375 m 0
 2048.5 674.599609375 1904.5 523.599609375 1558.5 202.599609375 c 1
 1628.5 202.599609375 1762.5 197.599609375 1831.5 197.599609375 c 0
 1933.5 197.599609375 1982.5 228.599609375 2036.5 299.599609375 c 1
 2036.5 299.599609375 2095.5 283.599609375 2095.5 238.599609375 c 0
 2095.5 164.599609375 1973.5 111.599609375 1959.5 108.599609375 c 1
 1973.5 98.599609375 2023.5 59.599609375 2023.5 7.599609375 c 0
 2023.5 -42.400390625 2001.5 -51.400390625 1995.5 -53.400390625 c 1
 1937.5 -10.400390625 1886.5 5.599609375 1840.5 5.599609375 c 0
 1779.57692308 5.599609375 1674.34615385 -50.4477279031 1585.39940828 -50.4477279031 c 0
 1529.80769231 -50.4477279031 1480.57692308 -28.5542367788 1452.5 42.599609375 c 1
 1452.5 42.599609375 1365.5 -55.400390625 1303.5 -55.400390625 c 0
 1280.5 -55.400390625 1248.5 -34.400390625 1248.5 4.599609375 c 0
 1248.5 10.599609375 1249.5 16.599609375 1252.5 24.599609375 c 1
 1469.5 240.599609375 1783.5 590.599609375 1783.5 818.599609375 c 0
 1783.5 916.599609375 1695.5 923.599609375 1695.5 937.599609375 c 0
 1695.5 944.599609375 1770.5 1006.59960938 1770.5 1053.59960938 c 2
 1770.5 1060.59960938 l 1
 1759.5 1150.59960938 1692.5 1212.59960938 1606.5 1212.59960938 c 0
 1508.5 1212.59960938 1460.5 1138.59960938 1460.5 1061.59960938 c 0
 1460.5 975.599609375 1517.5 887.599609375 1625.5 887.599609375 c 0
 1629.5 887.599609375 1634.5 887.599609375 1639.5 888.599609375 c 1
 1639.5 884.599609375 1643.5 823.599609375 1550.5 823.599609375 c 0
 1501.50449998 823.599609375 1452.15250542 847.475220902 1451.49883689 850.605178673 c 0
 1451.29082655 850.605178673 1423.12825279 717.599609375 1323.5 717.599609375 c 0
 1302.5 717.599609375 1292.5 726.599609375 1292.5 726.599609375 c 1
 1314.5 752.599609375 1324.5 776.599609375 1324.5 804.599609375 c 0
 1324.5 841.599609375 1286.5 920.599609375 1286.5 991.599609375 c 0
 1286.5 1189.59960938 1487.5 1274.59960938 1641.5 1274.59960938 c 0
 1887.5 1274.59960938 2048.5 1113.59960938 2048.5 931.599609375 c 0
EndSplineSet
EndChar

StartChar: plusminus
Encoding: 134 177 154
Width: 1173
Flags: HW
LayerCount: 2
Fore
SplineSet
506 799 m 1
 506 1172 l 1
 669 1172 l 1
 669 799 l 1
 1101 799 l 1
 1101 636 l 1
 669 636 l 1
 669 262 l 1
 506 262 l 1
 506 636 l 1
 74 636 l 1
 74 799 l 1
 506 799 l 1
74 -25 m 1
 74 138 l 1
 1101 138 l 1
 1101 -25 l 1
 74 -25 l 1
EndSplineSet
EndChar

StartChar: Thorn
Encoding: 179 222 155
Width: 1118
Flags: HW
LayerCount: 2
Fore
SplineSet
62 756 m 0
 62 796 171 770 171 1097 c 2
 171 1282 l 2
 171 1468 136 1562 51 1652 c 1
 51 1652 56 1712 156 1712 c 0
 260 1712 321 1597 321 1597 c 1
 321 1597 387 1712 497 1712 c 0
 598 1712 603 1652 603 1652 c 1
 533 1575 496 1499 480 1379 c 1
 521 1413 572 1436 635 1436 c 0
 811 1436 964 1350 1007 1189 c 1
 1035 1034 1083 1041 1083 1020 c 0
 1083 1005 1039 1001 1007 818 c 1
 955 545 682 476 481 476 c 1
 481 386 l 2
 481 175 512 82 602 -14 c 1
 602 -14 597 -74 496 -74 c 0
 386 -74 320 41 320 41 c 1
 320 41 259 -74 155 -74 c 0
 55 -74 50 -14 50 -14 c 1
 140 80 171 180 171 386 c 0
 171 727 62 723 62 756 c 0
596 1222 m 0
 543 1222 481 1196 481 1172 c 2
 481 658 l 1
 614 671 697 698 697 821 c 2
 697 1152 l 2
 697 1183 655 1222 596 1222 c 0
EndSplineSet
EndChar

StartChar: onequarter
Encoding: 145 188 156
Width: 2229
Flags: HMW
LayerCount: 2
Fore
SplineSet
720.709960938 35.001953125 m 4
 720.709960938 -10.3525390625 743.686523438 -50.271484375 743.686523438 -77.76171875 c 4
 743.686523438 -102.102539062 725.673828125 -116.700195312 657.75 -116.700195312 c 4
 583.760742188 -116.700195312 553.970703125 -84.5087890625 553.970703125 -60.87109375 c 4
 553.970703125 -57.6162109375 554.15625 -54.5244140625 554.385742188 -51.7001953125 c 5
 554.385742188 -51.7001953125 527.78125 -116.700195312 423.78125 -116.700195312 c 4
 373.088867188 -116.700195312 360.591796875 -101.282226562 360.591796875 -86.0771484375 c 4
 360.591796875 -75.966796875 370.545898438 -58.0830078125 372.416015625 -56.7001953125 c 4
 504.45703125 41.009765625 716.903320312 485.624023438 716.903320312 696.2265625 c 4
 716.903320312 733.280273438 709.525390625 749.92578125 709.525390625 763.15234375 c 5
 709.525390625 763.15234375 1022.80078125 1235.10644531 1022.80078125 1487.85449219 c 4
 1022.80078125 1526.50195312 1004.26074219 1564.48632812 1004.26074219 1592.74707031 c 4
 1004.26074219 1620.82128906 1022.55761719 1639.29980469 1095.50292969 1639.29980469 c 4
 1159.26757812 1639.29980469 1166.11230469 1614.86425781 1166.11230469 1595.95800781 c 4
 1166.11230469 1590.79003906 1165.60058594 1586.03417969 1165.60058594 1582.3046875 c 4
 1165.60058594 1579.87207031 1165.7421875 1578.79882812 1166.16894531 1578.79882812 c 4
 1169.37890625 1578.79882812 1208.72024862 1639.29980469 1305.50292969 1639.29980469 c 4
 1357.39746094 1639.29980469 1370.14453125 1624.02734375 1370.14453125 1609.0234375 c 4
 1370.14453125 1598.74414062 1358.84472656 1581.77929688 1358.26171875 1580.29980469 c 4
 1223.42089844 1485.1171875 1022.75 1046.94921875 1022.75 854.63671875 c 4
 1022.75 817.369140625 1031.12695312 802.23046875 1031.12695312 787.338867188 c 4
 1031.12695312 731.096679688 949.1328125 721.928710938 807.46875 362.299804688 c 4
 750.352539062 217.306640625 720.709960938 115.413085938 720.709960938 35.001953125 c 4
223.5 746.599609375 m 0
 223.5 1027.59960938 136.5 1004.59960938 136.5 1031.59960938 c 0
 136.5 1067.59960938 223.5 1003.59960938 223.5 1305.59960938 c 0
 223.5 1457.59960938 198.5 1519.59960938 126.5 1589.59960938 c 1
 126.5 1589.59960938 129.5 1636.59960938 210.5 1636.59960938 c 0
 293.5 1636.59960938 332.5 1568.59960938 332.5 1568.59960938 c 1
 332.5 1568.59960938 372.5 1636.59960938 454.5 1636.59960938 c 0
 536.5 1636.59960938 539.5 1589.59960938 539.5 1589.59960938 c 1
 467.5 1519.59960938 442.5 1457.59960938 442.5 1305.59960938 c 0
 442.5 1003.59960938 529.5 1067.59960938 529.5 1031.59960938 c 0
 529.5 1004.59960938 442.5 1027.59960938 442.5 746.599609375 c 0
 442.5 581.599609375 467.5 510.599609375 539.5 435.599609375 c 1
 539.5 435.599609375 536.5 387.599609375 454.5 387.599609375 c 0
 372.5 387.599609375 332.5 455.599609375 332.5 455.599609375 c 1
 332.5 455.599609375 293.5 387.599609375 210.5 387.599609375 c 0
 130.5 387.599609375 126.5 435.599609375 126.5 435.599609375 c 1
 198.5 510.599609375 223.5 581.599609375 223.5 746.599609375 c 0
1644 875.599609375 m 1
 1645 875.599609375 l 1
 1645 875.599609375 1696 984.599609375 1781 984.599609375 c 0
 1839 984.599609375 1842 941.599609375 1842 941.599609375 c 1
 1788 864.599609375 1770 806.599609375 1770 652.599609375 c 2
 1770 414.599609375 l 1
 1772 414.599609375 l 2
 1846 414.599609375 1884 432.599609375 1922 469.599609375 c 1
 1922 469.599609375 1954 466.599609375 1954 413.599609375 c 0
 1954 366.599609375 1913 337.599609375 1909 335.599609375 c 1
 1911 333.599609375 1954 304.599609375 1954 256.599609375 c 0
 1954 203.599609375 1922 199.599609375 1922 199.599609375 c 1
 1867 251.599609375 1821 271.599609375 1779 271.599609375 c 2
 1770 271.599609375 l 1
 1773 129.599609375 1796 63.599609375 1858 -7.400390625 c 1
 1858 -7.400390625 1855 -51.400390625 1781 -51.400390625 c 0
 1706 -51.400390625 1661 10.599609375 1661 10.599609375 c 1
 1661 10.599609375 1616 -51.400390625 1541 -51.400390625 c 0
 1468 -51.400390625 1465 -7.400390625 1465 -7.400390625 c 1
 1523 59.599609375 1546 122.599609375 1551 248.599609375 c 1
 1545 249.599609375 1540 248.599609375 1534 248.599609375 c 0
 1476 248.599609375 1415 199.599609375 1361 199.599609375 c 0
 1315 199.599609375 1274 218.599609375 1244 290.599609375 c 1
 1244 290.599609375 1197 199.599609375 1119 199.599609375 c 0
 1066 199.599609375 1048 223.599609375 1048 261.599609375 c 0
 1048 344.599609375 1105 405.599609375 1160 471.599609375 c 1
 1317 856.599609375 l 2
 1334.23339844 898.53515625 1340.90722656 942.3671875 1340.90722656 984.330078125 c 0
 1340.90722656 1088.46289062 1299.80859375 1181.078125 1277 1204.59960938 c 1
 1277 1204.59960938 1290 1252.59960938 1352 1252.59960938 c 0
 1447 1252.59960938 1457 1184.59960938 1457 1184.59960938 c 1
 1470 1236.59960938 1515 1254.59960938 1559 1254.59960938 c 0
 1591.16699219 1254.59960938 1646.98046875 1237.40234375 1646.98046875 1222.41796875 c 0
 1646.98046875 1219.70019531 1645.14453125 1217.05566406 1641 1214.59960938 c 0
 1473 1115.59960938 1228 415.599609375 1228 415.599609375 c 1
 1228 415.599609375 1360 415.599609375 1553 414.599609375 c 1
 1551 652.599609375 l 1
 1551 782.599609375 1533 831.599609375 1479 893.599609375 c 1
 1479 893.599609375 1482 936.599609375 1540 936.599609375 c 0
 1606 936.599609375 1644 875.599609375 1644 875.599609375 c 1
EndSplineSet
EndChar

StartChar: divide
Encoding: 204 247 157
Width: 1166
Flags: HW
LayerCount: 2
Fore
SplineSet
545 1372.09960938 m 4
 545.008789062 1372.09960938 756 1188.13964844 756 1188.09960938 c 6
 545 998.099609375 l 6
 544.990234375 998.099609375 333 1181.0234375 333 1181.09960938 c 4
 333 1188.10449219 532.90234375 1372.09960938 545 1372.09960938 c 4
545 509.099609375 m 4
 545.008789062 509.099609375 756 325.139648438 756 325.099609375 c 6
 545 135.099609375 l 6
 544.990234375 135.099609375 333 318.0234375 333 318.099609375 c 4
 333 325.104492188 532.90234375 509.099609375 545 509.099609375 c 4
1095 838.099609375 m 5
 753 838.099609375 411 838.099609375 69 838.099609375 c 5
 69 675.099609375 l 5
 411 675.099609375 753 675.099609375 1095 675.099609375 c 5
 1095 838.099609375 l 5
EndSplineSet
EndChar

StartChar: degree
Encoding: 133 176 159
Width: 738
Flags: HW
LayerCount: 2
Fore
SplineSet
369 1244 m 0
 254 1244 173 1157 173 1043 c 0
 173 929 254 842 369 842 c 0
 482 842 564 929 564 1043 c 0
 564 1157 482 1244 369 1244 c 0
369 742 m 0
 202 742 68 875 68 1042 c 0
 68 1209 202 1342 369 1342 c 0
 534 1342 668 1209 668 1042 c 0
 668 875 534 742 369 742 c 0
EndSplineSet
EndChar

StartChar: thorn
Encoding: 211 254 160
Width: 1192
Flags: HW
LayerCount: 2
Fore
SplineSet
161 979 m 2
 161 1222 l 2
 161 1417 124 1516 35 1611 c 1
 38 1623 54 1666 143 1666 c 0
 240 1666 307 1557 307 1557 c 1
 307 1557 375 1666 472 1666 c 0
 547 1666 566 1611 566 1611 c 1
 501 1541 466 1467 450 1351 c 1
 520 1383 596 1401 668 1401 c 0
 873 1401 1067 1295 1067 984 c 0
 1067 705 1154 707 1154 680 c 0
 1154 651 1067 653 1067 356 c 0
 1067 87 873 -1 668 -1 c 0
 598 -1 518 15 441 50 c 1
 441 -173 474 -281 566 -380 c 1
 566 -380 547 -435 472 -435 c 0
 375 -435 307 -326 307 -326 c 1
 307 -326 240 -435 143 -435 c 0
 54 -435 38 -392 35 -380 c 1
 124 -285 159 -186 161 9 c 1
 161 381 l 2
 161 650 61 657 61 680 c 0
 61 697 161 723 161 979 c 2
527 680 m 0
 527 659 440 660 440 430 c 0
 440 277 454 179 607 179 c 0
 785 179 786 253 786 430 c 0
 786 663 699 660 699 680 c 0
 699 703 786 694 786 952 c 0
 786 1129 785 1207 607 1207 c 0
 454 1207 440 1107 440 952 c 0
 440 696 527 704 527 680 c 0
EndSplineSet
EndChar

StartChar: threequarters
Encoding: 147 190 161
Width: 2467
Flags: HMW
LayerCount: 2
Fore
SplineSet
1111.70996094 35.001953125 m 0
 1111.70996094 -10.3525390625 1134.68652344 -50.271484375 1134.68652344 -77.76171875 c 0
 1134.68652344 -102.102539062 1116.67382812 -116.700195312 1048.75 -116.700195312 c 0
 974.760742188 -116.700195312 944.970703125 -84.5087890625 944.970703125 -60.87109375 c 0
 944.970703125 -57.6162109375 945.15625 -54.5244140625 945.385742188 -51.7001953125 c 1
 945.385742188 -51.7001953125 918.78125 -116.700195312 814.78125 -116.700195312 c 0
 764.088867188 -116.700195312 751.591796875 -101.282226562 751.591796875 -86.0771484375 c 0
 751.591796875 -75.966796875 761.545898438 -58.0830078125 763.416015625 -56.7001953125 c 0
 895.45703125 41.009765625 1107.90332031 485.624023438 1107.90332031 696.2265625 c 0
 1107.90332031 733.280273438 1100.52539062 749.92578125 1100.52539062 763.15234375 c 1
 1100.52539062 763.15234375 1413.80078125 1235.10644531 1413.80078125 1487.85449219 c 0
 1413.80078125 1526.50195312 1395.26074219 1564.48632812 1395.26074219 1592.74707031 c 0
 1395.26074219 1620.82128906 1413.55761719 1639.29980469 1486.50292969 1639.29980469 c 0
 1550.26757812 1639.29980469 1557.11230469 1614.86425781 1557.11230469 1595.95800781 c 0
 1557.11230469 1590.79003906 1556.60058594 1586.03417969 1556.60058594 1582.3046875 c 0
 1556.60058594 1579.87207031 1556.7421875 1578.79882812 1557.16894531 1578.79882812 c 0
 1560.37890625 1578.79882812 1599.72070312 1639.29980469 1696.50292969 1639.29980469 c 0
 1748.39746094 1639.29980469 1761.14453125 1624.02734375 1761.14453125 1609.0234375 c 0
 1761.14453125 1598.74414062 1749.84472656 1581.77929688 1749.26171875 1580.29980469 c 0
 1614.42089844 1485.1171875 1413.75 1046.94921875 1413.75 854.63671875 c 0
 1413.75 817.369140625 1422.12695312 802.23046875 1422.12695312 787.338867188 c 0
 1422.12695312 731.096679688 1340.1328125 721.928710938 1198.46875 362.299804688 c 0
 1141.35253906 217.306640625 1111.70996094 115.413085938 1111.70996094 35.001953125 c 0
2044 875.599609375 m 1
 2045 875.599609375 l 1
 2045 875.599609375 2096 984.599609375 2181 984.599609375 c 0
 2239 984.599609375 2242 941.599609375 2242 941.599609375 c 1
 2188 864.599609375 2170 806.599609375 2170 652.599609375 c 2
 2170 414.599609375 l 1
 2172 414.599609375 l 2
 2246 414.599609375 2284 432.599609375 2322 469.599609375 c 1
 2322 469.599609375 2354 466.599609375 2354 413.599609375 c 0
 2354 366.599609375 2313 337.599609375 2309 335.599609375 c 1
 2311 333.599609375 2354 304.599609375 2354 256.599609375 c 0
 2354 203.599609375 2322 199.599609375 2322 199.599609375 c 1
 2267 251.599609375 2221 271.599609375 2179 271.599609375 c 2
 2170 271.599609375 l 1
 2173 129.599609375 2196 63.599609375 2258 -7.400390625 c 1
 2258 -7.400390625 2255 -51.400390625 2181 -51.400390625 c 0
 2106 -51.400390625 2061 10.599609375 2061 10.599609375 c 1
 2061 10.599609375 2016 -51.400390625 1941 -51.400390625 c 0
 1868 -51.400390625 1865 -7.400390625 1865 -7.400390625 c 1
 1923 59.599609375 1946 122.599609375 1951 248.599609375 c 1
 1945 249.599609375 1940 248.599609375 1934 248.599609375 c 0
 1876 248.599609375 1815 199.599609375 1761 199.599609375 c 0
 1715 199.599609375 1674 218.599609375 1644 290.599609375 c 1
 1644 290.599609375 1597 199.599609375 1519 199.599609375 c 0
 1466 199.599609375 1448 223.599609375 1448 261.599609375 c 0
 1448 344.599609375 1505 405.599609375 1560 471.599609375 c 1
 1717 856.599609375 l 2
 1734.23339844 898.53515625 1740.90722656 942.3671875 1740.90722656 984.330078125 c 0
 1740.90722656 1088.46289062 1699.80859375 1181.078125 1677 1204.59960938 c 1
 1677 1204.59960938 1690 1252.59960938 1752 1252.59960938 c 0
 1847 1252.59960938 1857 1184.59960938 1857 1184.59960938 c 1
 1870 1236.59960938 1915 1254.59960938 1959 1254.59960938 c 0
 1991.16699219 1254.59960938 2046.98046875 1237.40234375 2046.98046875 1222.41796875 c 0
 2046.98046875 1219.70019531 2045.14453125 1217.05566406 2041 1214.59960938 c 0
 1873 1115.59960938 1628 415.599609375 1628 415.599609375 c 1
 1628 415.599609375 1760 415.599609375 1953 414.599609375 c 1
 1951 652.599609375 l 1
 1951 782.599609375 1933 831.599609375 1879 893.599609375 c 1
 1879 893.599609375 1882 936.599609375 1940 936.599609375 c 0
 2006 936.599609375 2044 875.599609375 2044 875.599609375 c 1
551.5 1036.5 m 0
 599.5 1036.5 652.5 1097.5 652.5 1182.5 c 0
 652.5 1280.5 564.5 1287.5 564.5 1301.5 c 0
 564.5 1308.5 639.5 1370.5 639.5 1417.5 c 2
 639.5 1424.5 l 1
 628.5 1514.5 561.5 1576.5 475.5 1576.5 c 0
 377.5 1576.5 329.5 1502.5 329.5 1425.5 c 0
 329.5 1339.5 386.5 1251.5 494.5 1251.5 c 0
 498.5 1251.5 503.5 1251.5 508.5 1252.5 c 1
 508.5 1248.5 512.5 1187.5 419.5 1187.5 c 0
 369.497070312 1187.5 322.49609375 1214.50488281 320.499023438 1214.50488281 c 0
 320.291015625 1214.50488281 292.127929688 1081.5 192.5 1081.5 c 0
 172.5 1081.5 161.5 1090.5 161.5 1090.5 c 1
 183.5 1116.5 193.5 1140.5 193.5 1168.5 c 0
 193.5 1205.5 155.5 1284.5 155.5 1355.5 c 0
 155.5 1553.5 356.5 1638.5 510.5 1638.5 c 0
 756.5 1638.5 917.5 1477.5 917.5 1295.5 c 0
 917.5 1188.5 862.5 1072.5 737.5 978.5 c 1
 866.5 883.5 923.5 768.5 923.5 659.5 c 0
 923.5 473.5 757.5 310.5 506.5 310.5 c 0
 307.5 310.5 116.5 417.5 116.5 635.5 c 0
 116.5 700.5 158.5 759.5 158.5 816.5 c 0
 158.5 840.5 151.5 865.5 131.5 892.5 c 1
 131.5 892.5 142.5 900.5 160.5 900.5 c 0
 230.5 900.5 286.5 815.5 287.5 751.5 c 1
 287.5 751.5 340.5 779.5 391.5 779.5 c 0
 470.5 779.5 478.5 729.5 478.5 716.5 c 2
 478.5 710.5 l 1
 380.5 704.5 335.5 615.5 335.5 531.5 c 0
 335.5 451.5 376.5 375.5 454.5 375.5 c 0
 548.5 375.5 633.5 450.5 633.5 553.5 c 0
 633.5 603.5 564.5 652.5 564.5 659.5 c 0
 564.5 672.5 650.5 681.5 650.5 782.5 c 0
 650.5 868.5 601.5 933.5 551.5 933.5 c 0
 505.5 933.5 485.5 918.5 462.5 918.5 c 0
 439.5 918.5 426.5 947.5 426.5 983.5 c 0
 426.5 1021.5 438.5 1051.5 468.5 1051.5 c 0
 490.5 1051.5 509.5 1036.5 551.5 1036.5 c 0
EndSplineSet
EndChar

StartChar: uni00B2
Encoding: 135 178 162
Width: 1164
Flags: HMW
LayerCount: 2
Fore
SplineSet
954 1243 m 4
 954 986 810 835 464 514 c 5
 534 514 668 509 737 509 c 4
 839 509 888 540 942 611 c 5
 942 611 1001 595 1001 550 c 4
 1001 476 879 423 865 420 c 5
 879 410 929 371 929 319 c 4
 929 269 907 260 901 258 c 5
 843 301 792 317 746 317 c 4
 685.076923077 317 579.846153846 260.952662722 490.899408284 260.952662722 c 0
 435.307692308 260.952662722 386.076923077 282.846153846 358 354 c 5
 358 354 271 256 209 256 c 4
 186 256 154 277 154 316 c 4
 154 322 155 328 158 336 c 5
 375 552 689 902 689 1130 c 4
 689 1228 601 1235 601 1249 c 4
 601 1256 676 1318 676 1365 c 6
 676 1372 l 5
 665 1462 598 1524 512 1524 c 4
 414 1524 366 1450 366 1373 c 4
 366 1287 423 1199 531 1199 c 4
 535 1199 540 1199 545 1200 c 5
 545 1196 549 1135 456 1135 c 4
 405.996776785 1135 358.996087503 1162.0055693 356.998836893 1162.0055693 c 0
 356.79082655 1162.0055693 328.628252788 1029 229 1029 c 4
 208 1029 198 1038 198 1038 c 5
 220 1064 230 1088 230 1116 c 4
 230 1153 192 1232 192 1303 c 4
 192 1501 393 1586 547 1586 c 4
 793 1586 954 1425 954 1243 c 4
EndSplineSet
EndChar

StartChar: registered
Encoding: 131 174 163
Width: 1614
Flags: HW
LayerCount: 2
Fore
SplineSet
806 -30 m 0
 392 -30 67 295 67 707 c 0
 67 1118 392 1445 806 1445 c 0
 1222 1445 1546 1118 1546 707 c 0
 1546 296 1222 -30 806 -30 c 0
806 84 m 0
 1144 84 1410 366 1410 707 c 0
 1410 1048 1145 1330 806 1330 c 0
 469 1330 203 1048 203 707 c 0
 203 366 469 84 806 84 c 0
467 1085 m 1
 503 1103 l 1
 846 1103 l 2
 1009 1103 1102 1016 1102 896 c 0
 1102 785 1020 696 903 677 c 1
 903 675 l 1
 999 595 1086 448 1163 352 c 1
 1180 313 l 1
 1016 313 l 1
 899 459 860 572 742 655 c 1
 665 655 l 1
 665 445 l 2
 665 443.078431373 664.99846213 441.207612457 664.99846213 439.385673685 c 0
 664.99846213 394.748173779 665.921568627 379.450980392 713 366 c 1
 713 313 l 1
 467 313 l 1
 467 365 l 1
 514.078431373 380.37254902 515.00153787 392.052672049 515.00153787 438.177337525 c 0
 515.00153787 440.059976932 515 442 515 444 c 2
 515 973 l 2
 515 975.392156863 515.00153787 977.727412534 515.00153787 980.008179358 c 0
 515.00153787 1035.88696655 514.078431373 1059.05882353 467 1085 c 1
665 1025 m 1
 665 733 l 1
 794 733 l 2
 896 733 944 798 944 885 c 0
 944 994 884 1025 777 1025 c 2
 665 1025 l 1
EndSplineSet
EndChar

StartChar: eth
Encoding: 197 240 164
Width: 1146
Flags: HW
LayerCount: 2
Fore
SplineSet
646 449 m 0
 646 465 723 469 723 656 c 0
 723 761 711 830 568 830 c 0
 398 830 397 777 397 656 c 0
 397 469 495 465 495 449 c 0
 495 432 407 436 407 240 c 0
 407 119 408 62 568 62 c 0
 720 62 733 133 733 240 c 0
 733 436 646 433 646 449 c 0
565 -132 m 0
 339 -132 126 -37 126 225 c 0
 126 432 39 430 39 449 c 0
 39 467 116 473 116 680 c 0
 116 927 329 1010 555 1010 c 0
 608 1010 661 995 722 974 c 1
 722 1160 723 1274 439 1274 c 0
 337 1274 280 1248 228 1195 c 1
 221 1197 198 1208 198 1265 c 0
 198 1332 270 1377 270 1377 c 1
 270 1377 198 1425 198 1490 c 0
 198 1545 229 1562 229 1562 c 1
 305 1511 369 1493 429 1493 c 0
 476 1493 515 1497 560 1497 c 0
 694 1497 1002 1435 1002 1140 c 2
 1002 748 l 2
 1002 489 1111 469 1111 449 c 0
 1111 430 1024 432 1024 225 c 0
 1024 -37 791 -132 565 -132 c 0
EndSplineSet
EndChar

StartChar: uni00B3
Encoding: 136 179 166
Width: 1139
Flags: HMW
LayerCount: 2
Fore
SplineSet
596 984 m 4
 644 984 697 1045 697 1130 c 4
 697 1228 609 1235 609 1249 c 4
 609 1256 684 1318 684 1365 c 6
 684 1372 l 5
 673 1462 606 1524 520 1524 c 4
 422 1524 374 1450 374 1373 c 4
 374 1287 431 1199 539 1199 c 4
 543 1199 548 1199 553 1200 c 5
 553 1196 557 1135 464 1135 c 4
 413.996776785 1135 366.996087503 1162.0055693 364.998836893 1162.0055693 c 0
 364.79082655 1162.0055693 336.628252788 1029 237 1029 c 4
 217 1029 206 1038 206 1038 c 5
 228 1064 238 1088 238 1116 c 4
 238 1153 200 1232 200 1303 c 4
 200 1501 401 1586 555 1586 c 4
 801 1586 962 1425 962 1243 c 4
 962 1136 907 1020 782 926 c 5
 911 831 968 716 968 607 c 4
 968 421 802 258 551 258 c 4
 352 258 161 365 161 583 c 4
 161 648 203 707 203 764 c 4
 203 788 196 813 176 840 c 5
 176 840 187 848 205 848 c 4
 275 848 331 763 332 699 c 5
 332 699 385 727 436 727 c 4
 515 727 523 677 523 664 c 6
 523 658 l 5
 425 652 380 563 380 479 c 4
 380 399 421 323 499 323 c 4
 593 323 678 398 678 501 c 4
 678 551 609 600 609 607 c 4
 609 620 695 629 695 730 c 4
 695 816 646 881 596 881 c 4
 550 881 530 866 507 866 c 4
 484 866 471 895 471 931 c 4
 471 969 483 999 513 999 c 4
 535 999 554 984 596 984 c 4
EndSplineSet
EndChar

StartChar: copyright
Encoding: 126 169 167
Width: 1614
Flags: HW
LayerCount: 2
Fore
SplineSet
806 -30 m 0
 392 -30 67 295 67 707 c 0
 67 1118 392 1445 806 1445 c 0
 1222 1445 1546 1118 1546 707 c 0
 1546 296 1222 -30 806 -30 c 0
806 84 m 0
 1144 84 1410 366 1410 707 c 0
 1410 1048 1145 1330 806 1330 c 0
 469 1330 203 1048 203 707 c 0
 203 366 469 84 806 84 c 0
1086 565 m 1
 1168 547 l 1
 1154 488 1133 435 1105 387 c 1
 1071 342 978 294 828 294 c 0
 575 294 404 445 404 716 c 0
 404 934 541 1129 840 1129 c 0
 989 1129 1094 1081 1125 1013 c 1
 1133 976 1139 938 1143 899 c 1
 1063 884 l 1
 1034 975 964 1052 837 1052 c 0
 672 1052 579 917 579 720 c 0
 579 517 658 378 835 378 c 0
 959 378 1046 454 1086 565 c 1
EndSplineSet
EndChar

StartChar: uni2074
Encoding: 386 8308 226
Width: 1243
Flags: HW
LayerCount: 2
Fore
SplineSet
777 1186 m 5
 778 1186 l 5
 778 1186 829 1295 914 1295 c 4
 972 1295 975 1252 975 1252 c 5
 921 1175 903 1117 903 963 c 6
 903 725 l 5
 905 725 l 6
 979 725 1017 743 1055 780 c 5
 1055 780 1087 777 1087 724 c 4
 1087 677 1046 648 1042 646 c 5
 1044 644 1087 615 1087 567 c 4
 1087 514 1055 510 1055 510 c 5
 1000 562 954 582 912 582 c 6
 903 582 l 5
 906 440 929 374 991 303 c 5
 991 303 988 259 914 259 c 4
 839 259 794 321 794 321 c 5
 794 321 749 259 674 259 c 4
 601 259 598 303 598 303 c 5
 656 370 679 433 684 559 c 5
 678 560 673 559 667 559 c 4
 609 559 548 510 494 510 c 4
 448 510 407 529 377 601 c 5
 377 601 330 510 252 510 c 4
 199 510 181 534 181 572 c 4
 181 655 238 716 293 782 c 5
 450 1167 l 6
 467.233538903 1208.93494466 473.907260451 1252.76735651 473.907260451 1294.72961826 c 0
 473.907260451 1398.86246321 432.808779252 1491.4784464 410 1515 c 5
 410 1515 423 1563 485 1563 c 4
 580 1563 590 1495 590 1495 c 5
 603 1547 648 1565 692 1565 c 4
 724.166840287 1565 779.980000008 1547.80267677 779.980000008 1532.81797943 c 0
 779.980000008 1530.10064282 778.14461348 1527.45606725 774 1525 c 4
 606 1426 361 726 361 726 c 5
 361 726 493 726 686 725 c 5
 684 963 l 5
 684 1093 666 1142 612 1204 c 5
 612 1204 615 1247 673 1247 c 4
 739 1247 777 1186 777 1186 c 5
EndSplineSet
EndChar

StartChar: Dcroat
Encoding: 229 272 244
Width: 1212
Flags: HW
LayerCount: 2
Fore
SplineSet
490 342 m 0
 490 210 493 117 621 117 c 0
 750.116788321 117 752.001704939 195.22403964 752.001704939 337.94799975 c 0
 752.001704939 342.240449678 752 346.591240876 752 351 c 0
 752 722 676 719 676 756 c 0
 676 809 752 762 752 1218 c 0
 752 1258 752 1372 630 1372 c 0
 492 1372 490 1285 490 1220 c 0
 490 763 566 807 566 756 c 0
 566 718 490 723 490 342 c 0
180 386 m 0
 180 727 71 723 71 756 c 0
 71 802 180 773 180 1163 c 0
 180 1341 149 1419 59 1503 c 1
 59 1503 63 1562 164 1562 c 0
 287 1562 362 1502 362 1502 c 1
 434 1575 570 1586 678 1586 c 0
 893 1586 1082 1491 1082 1230 c 2
 1082 1126 l 2
 1082 770 1169 799 1169 756 c 0
 1169 723 1082 727 1082 386 c 2
 1082 283 l 2
 1082 61 922 -74 686 -74 c 0
 570 -74 435 -57 362 11 c 1
 362 11 287 -74 164 -74 c 0
 63 -74 59 -14 59 -14 c 1
 149 74 180 197 180 386 c 0
925 1396 m 1
 294 1396 l 1
 294 1523 l 1
 925 1523 l 1
 925 1396 l 1
EndSplineSet
EndChar

StartChar: dcroat
Encoding: 230 273 245
Width: 1095
Flags: HW
LayerCount: 2
Fore
SplineSet
437 311 m 0
 437 191 437 106 573 106 c 0
 674 106 675 182 675 319 c 0
 675 656 606 654 606 687 c 0
 606 736 675 698 675 1122 c 0
 675 1159 675 1262 584 1262 c 0
 439 1262 437 1183 437 1124 c 0
 437 699 506 735 506 687 c 0
 506 653 437 657 437 311 c 0
165 351 m 0
 165 661 66 657 66 687 c 0
 66 729 165 703 165 1057 c 0
 165 1219 137 1291 55 1367 c 1
 55 1367 59 1420 151 1420 c 0
 257 1420 321 1365 321 1365 c 1
 386 1432 510 1442 608 1442 c 0
 803 1442 975 1355 975 1118 c 2
 975 1024 l 2
 975 700 1054 726 1054 687 c 0
 1054 657 975 661 975 351 c 2
 975 257 l 2
 975 55 830 -67 615 -67 c 0
 510 -67 387 -52 321 10 c 1
 321 10 257 -67 151 -67 c 0
 59 -67 55 -13 55 -13 c 1
 137 67 165 179 165 351 c 0
10 618.099609375 m 5
 10 618.099609375 -15 621.099609375 -15 664.099609375 c 6
 -15 700.099609375 l 6
 -15 743.099609375 10 746.099609375 10 746.099609375 c 5
 56.4810126582 736.099609375 139.189873418 733.099609375 226 733.099609375 c 0
 342 733.099609375 468 739.099609375 520 746.099609375 c 1
 520 746.099609375 545 743.099609375 545 700.099609375 c 2
 545 664.099609375 l 2
 545 620.099609375 520 618.099609375 520 618.099609375 c 1
 473 624.099609375 341 631.099609375 223 631.099609375 c 0
 135.214057508 631.099609375 52.1916932907 628.099609375 10 618.099609375 c 5
EndSplineSet
EndChar

StartChar: Omega
Encoding: 368 937 280
Width: 1490
Flags: HW
LayerCount: 2
Fore
SplineSet
1429 233 m 1
 1398 0 l 1
 868 0 l 1
 858 76 l 1
 973 188 1130 406 1130 705 c 0
 1130 1012 984 1227 748 1227 c 0
 513 1227 364 1034 364 702 c 0
 364 423 509 197 632 77 c 1
 625 0 l 1
 92 0 l 1
 66 233 l 1
 245 233 l 1
 268.171460388 179.89873661 282.021452434 165.947640259 327.048482598 165.947640259 c 0
 328.658509651 165.947640259 330.308398293 165.965477516 332 166 c 2
 434 168 l 1
 290 275 119 452 119 725 c 0
 119 1089 385 1338 752 1338 c 0
 1129 1338 1373 1075 1373 736 c 0
 1373 477 1203 285 1051 168 c 1
 1163 166 l 2
 1164.99407674 165.957572835 1166.92515122 165.934946378 1168.79681292 165.934946378 c 0
 1211.03985272 165.934946378 1223.01825195 177.460775546 1246 233 c 1
 1429 233 l 1
EndSplineSet
EndChar

StartChar: pi
Encoding: 369 960 281
Width: 1214
Flags: HW
LayerCount: 2
Fore
SplineSet
1149 976 m 1
 1171 891 l 1
 1152 850 1119 789 1089 773 c 1
 1060 769 1020 767 979 767 c 1
 975 656 974 549 974 434 c 0
 974 302 981 238 1020 210 c 1
 1040 210 1051 217 1067 228 c 1
 1072 139 1083 90 1095 53 c 1
 1039 14 957 -12 880 -12 c 1
 808 7 753 77 753 253 c 0
 753 437 758 608 763 769 c 1
 688 770.8 624.88 771.16 566.512 771.16 c 0
 527.6 771.16 490.8 771 454 771 c 1
 449 429 366 117 315 5 c 1
 259 -4 207 -9 159 -12 c 1
 161 45 l 1
 265 248 313 574 318 773 c 1
 197 773 138 757 73 722 c 1
 43 810 l 1
 107 876 185 944 377 944 c 0
 564 944 789 941 994 941 c 0
 1054 941 1102 947 1149 976 c 1
EndSplineSet
EndChar

StartChar: Euro
Encoding: 387 8364 282
Width: 1229
Flags: HW
LayerCount: 2
Fore
SplineSet
1132 354 m 1
 1162 165 l 1
 1118 57 1021 -12 881 -12 c 1
 876 5 871 21 867 37 c 1
 824 -15 765 -27 712 -27 c 0
 428 -27 254 153 206 470 c 1
 62 470 l 1
 84 607 l 1
 193 607 l 1
 193 662 l 2
 193 687 193 707 194 723 c 1
 62 723 l 1
 84 860 l 1
 207 860 l 1
 255 1159 432 1341 714 1341 c 0
 818 1341 908 1313 973 1229 c 1
 987 1327 l 1
 1143 1327 l 1
 1143 938 l 1
 984 938 l 1
 961 1095 875 1182 738 1182 c 0
 571 1182 491 1061 462 860 c 1
 896 860 l 1
 874 723 l 1
 452 723 l 1
 451 702 451 681 451 660 c 2
 451 607 l 1
 857 607 l 1
 835 470 l 1
 463 470 l 1
 492 267 581 134 748 134 c 0
 882 134 976 239 1003 381 c 1
 1132 354 l 1
EndSplineSet
EndChar

StartChar: partialdiff
Encoding: 389 8706 283
Width: 1089
Flags: HW
LayerCount: 2
Fore
SplineSet
509 877 m 0
 651 877 763 792 806 725 c 1
 814 756 817 841 817 879 c 0
 817 1119 716 1343 503 1343 c 0
 376 1343 275 1281 211 1231 c 1
 184 1253 144 1314 133 1368 c 1
 165 1421 304 1477 466 1477 c 0
 815 1477 1018 1141 1018 761 c 0
 1018 363 848 -22 463 -22 c 0
 204 -22 61 176 61 404 c 0
 61 705 277 877 509 877 c 0
563 758 m 0
 490 758 418 727 363 651 c 0
 310 577 281 479 281 377 c 0
 281 213 343 90 475 90 c 0
 659 90 753 352 789 596 c 1
 760 662 679 758 563 758 c 0
EndSplineSet
EndChar

StartChar: Delta
Encoding: 390 8710 284
Width: 1327
Flags: HW
LayerCount: 2
Fore
SplineSet
1272 0 m 1
 56 0 l 1
 56 91 l 1
 579 1330 l 1
 746 1344 l 1
 1272 92 l 1
 1272 0 l 1
1012 131 m 1
 745 775 l 1
 716 852 673 961 649 1030 c 1
 613 1102 l 1
 582 1016 532 891 491 791 c 0
 399 570 310 352 219 131 c 1
 1012 131 l 1
EndSplineSet
EndChar

StartChar: product
Encoding: 391 8719 285
Width: 1469
Flags: HW
LayerCount: 2
Fore
SplineSet
1414 1333 m 1
 1414 1221 l 1
 1319 1216 1261 1211 1217 1188 c 1
 1213 1157 1212 1122 1212 1079 c 2
 1212 130 l 2
 1212 18 1219 -33 1307 -76 c 1
 1307 -169 l 1
 906 -169 l 1
 906 -76 l 1
 985 -34 989 14 989 130 c 2
 989 1118 l 2
 989 1127.8 989.11338843 1136.59570248 989.11338843 1144.48400301 c 0
 989.11338843 1198.57520661 983.781818182 1210 900 1210 c 2
 568 1210 l 2
 489 1210 480 1200 480 1159 c 0
 480 1149 481 1136 481 1121 c 2
 481 130 l 2
 481 15 483 -34 557 -76 c 1
 557 -169 l 1
 164 -169 l 1
 164 -76 l 1
 247 -30 257 17 257 130 c 2
 257 1079 l 2
 257 1122 256 1157 252 1188 c 1
 207 1211 149 1216 54 1221 c 1
 54 1333 l 1
 1414 1333 l 1
EndSplineSet
EndChar

StartChar: summation
Encoding: 392 8721 286
Width: 1178
Flags: HW
LayerCount: 2
Fore
SplineSet
1122 120 m 1
 1071 -176 l 1
 54 -176 l 1
 54 -83 l 1
 540 547 l 1
 74 1237 l 1
 74 1333 l 1
 1053 1333 l 1
 1053 1291 1062 1177 1067 1082 c 1
 972 1073 l 1
 940 1118 905 1158 869 1181 c 1
 771 1207 679 1218 522 1218 c 1
 357 1215 l 1
 754 636 l 1
 321 74 l 1
 276 11 l 1
 736 11 l 2
 871 11 924 13 1020 130 c 1
 1122 120 l 1
EndSplineSet
EndChar

StartChar: radical
Encoding: 393 8730 287
Width: 1177
Flags: HW
LayerCount: 2
Fore
SplineSet
1132 1625 m 1
 733 -280 l 1
 626 -295 l 1
 244 652 l 1
 81 581 l 1
 50 674 l 1
 385 819 l 1
 625 189 l 1
 644 132 665 74 682 23 c 1
 685 23 l 1
 696 79 707 141 719 205 c 1
 1017 1635 l 1
 1132 1625 l 1
EndSplineSet
EndChar

StartChar: infinity
Encoding: 394 8734 288
Width: 1488
Flags: HW
LayerCount: 2
Fore
SplineSet
1413 547 m 2
 1413 544 l 2
 1413 339 1262 215 1102 215 c 0
 987 215 881 273 747 439 c 1
 645 318 542 215 382 215 c 0
 220 215 77 347 77 536 c 0
 77 728 215 862 400 862 c 0
 547 862 655 768 757 642 c 1
 842 738 939 862 1108 862 c 0
 1282 862 1413 741 1413 547 c 2
398 340 m 2
 402 340 l 2
 515 340 603 448 678 531 c 1
 596 637 520 741 390 741 c 0
 279 741 207 652 207 535 c 0
 207 428 286 340 398 340 c 2
1100 741 m 2
 1098 741 l 2
 977 741 884 613 821 542 c 1
 942 397 1010 340 1106 340 c 0
 1220 340 1284 443 1284 535 c 0
 1284 660 1208 741 1100 741 c 2
EndSplineSet
EndChar

StartChar: integral
Encoding: 395 8747 289
Width: 801
Flags: HW
LayerCount: 2
Fore
SplineSet
330 83 m 1
 321 387 294 705 294 1001 c 0
 294 1480 450 1614 626 1614 c 0
 682 1614 746 1587 757 1547 c 1
 753 1487 721 1448 689 1428 c 1
 643 1433 627 1502 593 1502 c 0
 527 1502 483 1426 483 1161 c 1
 490 945 500 727 511 503 c 0
 514 438 516 375 516 311 c 0
 516 -225 371 -360 189 -360 c 0
 121 -360 56 -326 45 -286 c 1
 48 -232 90 -183 126 -163 c 1
 167 -168 182 -244 222 -244 c 0
 281 -244 330 -155 330 83 c 1
EndSplineSet
EndChar

StartChar: approxequal
Encoding: 396 8776 290
Width: 1119
Flags: HW
LayerCount: 2
Fore
SplineSet
371 855 m 0
 537 855 630 713 769 713 c 0
 848 713 902 763 959 854 c 1
 1044 772 l 1
 976 656 883 580 771 580 c 0
 686 580 630 609 539 660 c 0
 482 692 427 724 360 724 c 0
 270 724 213 658 159 582 c 1
 73 663 l 1
 136 774 248 855 371 855 c 0
959 498 m 1
 1044 417 l 1
 978 303 885 225 770 225 c 0
 635 225 496 369 361 369 c 0
 269 369 213 303 159 228 c 1
 73 309 l 1
 136 417 250 499 371 499 c 0
 563 499 628 357 768 357 c 0
 848 357 899 406 959 498 c 1
EndSplineSet
EndChar

StartChar: notequal
Encoding: 397 8800 291
Width: 1083
Flags: HW
LayerCount: 2
Fore
SplineSet
799 974 m 1
 718 798 l 1
 1007 798 l 1
 1007 668 l 1
 663 668 l 1
 542 402 l 1
 1007 402 l 1
 1007 271 l 1
 486 271 l 1
 381 42 l 1
 275 91 l 1
 358 271 l 1
 77 271 l 1
 77 402 l 1
 414 402 l 1
 535 668 l 1
 77 668 l 1
 77 798 l 1
 590 798 l 1
 693 1023 l 1
 799 974 l 1
EndSplineSet
EndChar

StartChar: lessequal
Encoding: 398 8804 292
Width: 1074
Flags: HW
LayerCount: 2
Fore
SplineSet
996 201 m 1
 77 632 l 1
 77 773 l 1
 995 1203 l 1
 995 1052 l 1
 218 705 l 1
 218 701 l 1
 996 352 l 1
 996 201 l 1
1000 -6 m 1
 69 -6 l 1
 69 129 l 1
 1000 129 l 1
 1000 -6 l 1
EndSplineSet
EndChar

StartChar: greaterequal
Encoding: 399 8805 293
Width: 1071
Flags: HW
LayerCount: 2
Fore
SplineSet
82 1203 m 1
 1001 772 l 1
 1001 632 l 1
 83 201 l 1
 83 352 l 1
 858 700 l 1
 858 705 l 1
 82 1052 l 1
 82 1203 l 1
999 -6 m 1
 75 -6 l 1
 75 129 l 1
 999 129 l 1
 999 -6 l 1
EndSplineSet
EndChar

StartChar: lozenge
Encoding: 400 9674 294
Width: 1093
Flags: HW
LayerCount: 2
Fore
SplineSet
1041 648 m 1
 626 -118 l 1
 462 -118 l 1
 52 648 l 1
 467 1416 l 1
 629 1416 l 1
 1041 648 l 1
871 646 m 1
 597 1164 l 1
 578 1196 564 1236 549 1267 c 1
 543 1267 l 1
 452 1065 328 852 222 650 c 1
 498 128 l 2
 517 92 532 54 543 25 c 1
 550 25 l 1
 562 56 579 98 595 127 c 2
 871 646 l 1
EndSplineSet
EndChar

StartChar: uni2620
Encoding: 401 9760 295
Width: 1048
Flags: HW
LayerCount: 2
Fore
SplineSet
264 169 m 1
 264 193 271 214 271 237 c 0
 271 277 258 316 258 356 c 1
 319 356 282 215 326 215 c 1
 326 258 l 1
 336 258 352 253 354 249 c 1
 354 200 l 1
 369 200 l 1
 369 209 374 237 391 237 c 2
 394 237 l 1
 424 206 l 1
 431 212 440 212 449 212 c 0
 477 212 464 178 488 178 c 0
 510 178 492 206 513 206 c 0
 534 206 543 176 559 176 c 0
 574 176 578 206 589 206 c 2
 633 206 l 1
 639 215 642 218 651 218 c 0
 670 218 660 187 679 187 c 0
 682 187 688 187 688 194 c 2
 688 237 l 2
 688 251 719 242 725 255 c 0
 731 267 749 347 778 347 c 0
 787 347 787 338 787 332 c 0
 787 288 774 246 774 203 c 0
 774 187 780 172 780 156 c 0
 780 77 581 3 522 3 c 0
 421 3 319 89 264 169 c 1
479 273 m 0
 465 273 467 266 442 266 c 0
 435 266 427 267 427 273 c 2
 427 341 l 1
 409 341 418 292 387 292 c 0
 365 292 363 323 350 323 c 1
 339 316 l 1
 300 324 321 421 251 421 c 0
 248 421 216 409 203 409 c 0
 177 409 154 436 154 464 c 0
 154 485 159 510 159 532 c 0
 159 651 62 756 62 884 c 0
 62 981 69 1077 159 1145 c 0
 270 1229 386 1274 528 1274 c 0
 811 1274 982 1099 982 820 c 2
 982 758 l 1
 971 706 916 654 916 598 c 2
 916 544 l 2
 916 516 921 502 921 473 c 0
 921 343 682 418 664 261 c 1
 660 261 l 2
 635 261 639 293 616 293 c 0
 614 293 611 292 609 292 c 1
 609 288 609.027681661 284.249134948 609.027681661 280.744148178 c 0
 609.027681661 254.456747405 607.470588235 242 581 242 c 0
 553 242 567 261 550 261 c 0
 534 261 541 242 522 242 c 0
 497 242 501 273 479 273 c 0
461 488 m 0
 461 470 486 464 501 464 c 0
 531 464 533 485 533 506 c 0
 533 513 532 519 531 525 c 1
 548 525 l 1
 548 487 574 461 592 461 c 0
 607 461 620 471 620 496 c 0
 620 546 578 635 534 635 c 0
 501 635 461 519 461 488 c 0
240 598 m 1
 249 599 256 599 264 599 c 0
 305 599 327 587 372 587 c 0
 412 587 473 635 473 681 c 0
 473 764 369 771 308 771 c 0
 280 771 216 764 216 725 c 0
 216 685 231 648 234 604 c 1
 240 598 l 1
814 588 m 1
 820 594 l 1
 827 630 858 661 858 695 c 0
 858 762 794 771 766 771 c 0
 709 771 611 764 611 681 c 0
 611 630 672 577 712 577 c 0
 745 577 761 591 790 591 c 0
 797 591 805 590 814 588 c 1
EndSplineSet
EndChar

StartChar: multiply
Encoding: 407 215 299
Width: 1162
Flags: HW
LayerCount: 2
Fore
SplineSet
466.241210938 573.5 m 1
 160.771484375 878.969726562 l 1
 276.030273438 994.228515625 l 1
 581.5 688.758789062 l 1
 886.969726562 994.228515625 l 1
 1002.22851562 878.969726562 l 1
 696.758789062 573.5 l 1
 1002.22851562 268.030273438 l 1
 886.969726562 152.771484375 l 1
 581.5 458.241210938 l 1
 276.030273438 152.771484375 l 1
 160.771484375 268.030273438 l 1
 466.241210938 573.5 l 1
EndSplineSet
EndChar

StartChar: brokenbar
Encoding: 408 166 300
Width: 367
Flags: HW
LayerCount: 2
Fore
SplineSet
102 308 m 5
 264 308 l 5
 264 -411.599609375 l 5
 102 -411.599609375 l 5
 102 308 l 5
102 1463 m 1
 264 1463 l 1
 264 743.400390625 l 1
 102 743.400390625 l 1
 102 1463 l 1
EndSplineSet
EndChar

StartChar: hbar
Encoding: 244 295 302
Width: 1249
Flags: HW
LayerCount: 2
Fore
SplineSet
1162 611 m 0
 1162 598 1071 569 1071 344 c 0
 1071 159 1102 77 1196 -12 c 1
 1196 -12 1174 -66 1088 -66 c 0
 979 -66 904 41 904 41 c 1
 904 41 836 -66 739 -66 c 0
 661 -66 648 -24 645 -12 c 1
 735 78 770 168 770 354 c 0
 770 573 672 599 672 611 c 0
 672 634 759 632 759 879 c 0
 759 1065 728 1147 645 1147 c 0
 480 1147 480 908 480 856 c 0
 480 632 566 633 566 611 c 0
 566 597 481 567 481 344 c 0
 481 159 513 77 606 -12 c 1
 606 -12 587 -66 510 -66 c 0
 402 -66 322 41 322 41 c 1
 322 41 253 -66 158 -66 c 0
 69 -66 53 -24 50 -12 c 1
 142 77 176 160 176 344 c 0
 176 545 76 601 76 611 c 0
 76 624 176 635 176 879 c 2
 176 1133 l 2
 176 1358 145 1457 55 1559 c 1
 55 1559 59 1618 160 1618 c 0
 270 1618 335 1513 335 1513 c 1
 335 1513 385 1618 470 1618 c 0
 560 1618 566 1559 566 1559 c 1
 521 1454 496 1352 484 1195 c 1
 563 1270 666 1310 764 1310 c 0
 921 1310 1062 1189 1062 919 c 0
 1062 671 1162 631 1162 611 c 0
657.5 1375.59960938 m 5
 26.5 1375.59960938 l 5
 26.5 1445.59960938 l 1
 657.5 1445.59960938 l 1
 657.5 1375.59960938 l 5
EndSplineSet
EndChar

StartChar: ij
Encoding: 256 307 304
Width: 1481
Flags: HW
LayerCount: 2
Fore
SplineSet
168 315 m 0
 168 589 69 585 69 611 c 0
 69 650 168 610 168 934 c 0
 168 1106 140 1175 58 1256 c 1
 58 1256 62 1310 154 1310 c 0
 248 1310 304 1233 304 1233 c 1
 304 1233 360 1310 454 1310 c 0
 546 1310 550 1256 550 1256 c 1
 468 1176 440 1106 440 934 c 0
 440 610 539 650 539 611 c 0
 539 585 440 589 440 315 c 0
 440 148 468 65 550 -13 c 1
 550 -13 546 -67 454 -67 c 0
 360 -67 304 10 304 10 c 1
 304 10 248 -67 154 -67 c 0
 63 -67 58 -13 58 -13 c 1
 140 65 168 148 168 315 c 0
203 1644 m 1
 203 1644 265 1754 301 1754 c 0
 327 1754 378 1653 378 1653 c 1
 378 1653 512 1600 512 1570 c 0
 512 1543 386 1490 386 1490 c 1
 386 1490 331 1380 301 1380 c 0
 273 1380 221 1482 221 1482 c 1
 221 1482 89 1533 89 1563 c 0
 89 1590 203 1644 203 1644 c 1
958 -289 m 0
 829 -289 664 -219 664 -26 c 0
 664 101 778 131 778 248 c 0
 778 260 777 273 774 288 c 1
 782 288 l 2
 858 288 887 179 887 136 c 1
 877 99 877 73 877 71 c 1
 877 71 885 72 898 72 c 0
 922 72 964 69 1000 54 c 0
 1057 31 1068 -6 1068 -29 c 0
 1068 -50 1061 -56 1061 -56 c 1
 1036 -48 1009 -42 983 -42 c 0
 952 -42 890 -59 890 -117 c 0
 890 -168 934 -201 992 -201 c 0
 1041 -201 1132 -164 1132 -58 c 0
 1132 92 1018 150 1018 245 c 0
 1018 594 910 580 910 613 c 0
 910 650 1018 629 1018 927 c 0
 1018 1085 987 1176 897 1252 c 1
 897 1252 903 1311 1002 1311 c 0
 1104 1311 1165 1226 1165 1226 c 1
 1165 1226 1224 1311 1332 1311 c 0
 1433 1311 1438 1252 1438 1252 c 1
 1346 1176 1317 1085 1317 927 c 0
 1317 629 1424 647 1424 610 c 0
 1424 577 1317 585 1317 244 c 0
 1317 -135 1214 -289 958 -289 c 0
1065 1644 m 1
 1065 1644 1127 1754 1163 1754 c 0
 1189 1754 1240 1653 1240 1653 c 1
 1240 1653 1374 1600 1374 1570 c 0
 1374 1543 1248 1490 1248 1490 c 1
 1248 1490 1193 1380 1163 1380 c 0
 1135 1380 1083 1482 1083 1482 c 1
 1083 1482 951 1533 951 1563 c 0
 951 1590 1065 1644 1065 1644 c 1
EndSplineSet
EndChar

StartChar: kgreenlandic
Encoding: 261 312 307
Width: 1311
Flags: HW
LayerCount: 2
Fore
SplineSet
682 527 m 1
 648 541 618 541 528 541 c 0
 511 541 495 541 471 545 c 1
 461 329 l 1
 461 141 496 60 598 -30 c 1
 598 -30 577 -84 490 -84 c 0
 393 -84 326 23 326 23 c 1
 326 23 258 -84 161 -84 c 0
 74 -84 57 -42 54 -30 c 1
 146 60 179 140 179 329 c 0
 179 574 67 591 67 612 c 0
 67 672 179 648 179 1083 c 0
 179 1335 148 1449 53 1562 c 1
 53 1562 74 1618 161 1618 c 0
 258 1618 326 1510 326 1510 c 1
 326 1510 393 1618 490 1618 c 0
 580 1618 595 1575 598 1563 c 1
 496 1438 461 1337 461 1093 c 0
 461 863 465 797 469 712 c 1
 489 707 507 706 529 706 c 0
 596 706 681 718 681 718 c 1
 712 891 712 1074 810 1246 c 1
 810 1246 832 1311 884 1311 c 0
 952 1311 986 1215 986 1215 c 1
 986 1215 1064 1311 1136 1311 c 0
 1241 1311 1255 1275 1256 1259 c 1
 1106 1191 1040 1020 1030 933 c 0
 993 609 826 660 826 619 c 0
 826 577 984 621 1030 291 c 0
 1040 220 1106 37 1256 -32 c 1
 1254 -47 1240 -84 1136 -84 c 0
 1064 -84 986 12 986 12 c 1
 986 12 952 -84 884 -84 c 0
 823 -84 812 -24 812 -24 c 1
 785 23 688 385 682 527 c 1
EndSplineSet
EndChar

StartChar: IJ
Encoding: 255 306 315
Width: 1500
Flags: HW
LayerCount: 2
Fore
SplineSet
180 375 m 0
 180 726 71 722 71 756 c 0
 71 801 180 770 180 1148 c 0
 180 1338 149 1415 59 1503 c 1
 59 1503 63 1562 164 1562 c 0
 268 1562 329 1457 329 1457 c 1
 329 1457 391 1562 494 1562 c 0
 596 1562 600 1503 600 1503 c 1
 510 1415 479 1338 479 1148 c 0
 479 770 588 801 588 756 c 0
 588 722 479 726 479 375 c 0
 479 169 510 80 600 -14 c 1
 600 -14 596 -74 494 -74 c 0
 391 -74 329 41 329 41 c 1
 329 41 268 -74 164 -74 c 0
 64 -74 59 -14 59 -14 c 1
 149 80 180 169 180 375 c 0
953 -147 m 0
 898 -147 839 -163 767 -207 c 1
 767 -207 727 -202 727 -136 c 0
 727 -69 784 -27 784 -27 c 1
 784 -27 727 17 727 91 c 0
 727 157 767 162 767 162 c 1
 805 115 846 93 922 93 c 0
 1032 93 1033 200 1033 387 c 0
 1033 736 925 726 925 759 c 0
 925 804 1033 770 1033 1148 c 0
 1033 1321 1002 1421 912 1503 c 1
 912 1503 918 1562 1017 1562 c 0
 1119 1562 1180 1457 1180 1457 c 1
 1180 1457 1239 1562 1347 1562 c 0
 1448 1562 1453 1503 1453 1503 c 1
 1361 1421 1332 1321 1332 1148 c 0
 1332 770 1439 801 1439 756 c 0
 1439 723 1332 727 1332 386 c 0
 1332 7 1223 -147 953 -147 c 0
EndSplineSet
EndChar

StartChar: foundryicon
Encoding: 410 -1 325
Width: 1229
Flags: HW
LayerCount: 2
Fore
SplineSet
969 235 m 1
 967 229 l 1
 625 442 l 1
 269 226 l 1
 267 231 l 1
 363 618 l 1
 49 891 l 1
 451 921 l 1
 613 1305 l 1
 765 931 l 1
 1179 897 l 1
 872 636 l 1
 969 235 l 1
EndSplineSet
EndChar

StartChar: uni0307
Encoding: 364 775 343
Width: 414
Flags: HW
LayerCount: 2
Fore
SplineSet
82 1253 m 0
 82 1320 135 1377 206 1377 c 0
 277 1377 330 1320 330 1253 c 0
 330 1186 277 1129 206 1129 c 0
 135 1129 82 1186 82 1253 c 0
EndSplineSet
EndChar

StartChar: commaaccent
Encoding: 411 -1 344
Width: 476
Flags: HW
LayerCount: 2
Fore
SplineSet
100 -353 m 1
 100 -259 l 1
 203 -233 262 -179 262 -57 c 1
 260 -57 l 1
 233 -69 191 -73 152 -73 c 1
 121 -32 90 33 90 113 c 1
 111 156 164 189 228 189 c 0
 279 189 323 175 362 154 c 1
 379 91 389 23 389 -48 c 0
 389 -230 276 -337 100 -353 c 1
EndSplineSet
EndChar

StartChar: uni0237
Encoding: 355 567 345
Width: 816
Flags: HW
LayerCount: 2
Fore
SplineSet
277 -289 m 0
 222 -289 163 -305 91 -349 c 1
 91 -349 51 -344 51 -278 c 0
 51 -211 108 -169 108 -169 c 1
 108 -169 51 -125 51 -51 c 0
 51 15 91 20 91 20 c 1
 129 -27 170 -49 246 -49 c 0
 356 -49 357 58 357 245 c 0
 357 594 249 584 249 617 c 0
 249 662 357 628 357 1006 c 0
 357 1179 326 1279 236 1361 c 1
 236 1361 242 1420 341 1420 c 0
 443 1420 504 1335 504 1335 c 1
 504 1335 563 1420 671 1420 c 0
 772 1420 777 1361 777 1361 c 1
 685 1279 656 1179 656 1006 c 0
 656 628 763 659 763 614 c 0
 763 581 656 585 656 244 c 0
 656 -135 547 -289 277 -289 c 0
EndSplineSet
EndChar

StartChar: uni0311
Encoding: 366 785 346
Width: 776
Flags: HW
LayerCount: 2
Fore
SplineSet
194 1106 m 1
 78 1106 l 1
 86 1283 196 1415 381 1415 c 0
 571 1415 683 1294 696 1106 c 1
 579 1106 l 1
 560 1218 491 1268 382 1268 c 0
 278 1268 209 1209 194 1106 c 1
EndSplineSet
EndChar

StartChar: uni0326
Encoding: 367 806 347
Width: 476
Flags: HW
LayerCount: 2
Fore
SplineSet
100 -353 m 1
 100 -259 l 1
 203 -233 262 -179 262 -57 c 1
 260 -57 l 1
 233 -69 191 -73 152 -73 c 1
 121 -32 90 33 90 113 c 1
 111 156 164 189 228 189 c 0
 279 189 323 175 362 154 c 1
 379 91 389 23 389 -48 c 0
 389 -230 276 -337 100 -353 c 1
EndSplineSet
EndChar

StartChar: uni030F
Encoding: 365 783 348
Width: 902
Flags: HW
LayerCount: 2
Fore
SplineSet
462 1103 m 1
 344 1103 l 1
 181 1272 l 2
 134 1320 94 1361 70 1410 c 1
 89 1430 122 1446 167 1446 c 0
 242 1446 289 1399 337 1361 c 1
 462 1103 l 1
828 1103 m 1
 710 1103 l 1
 547 1272 l 2
 501 1319 462 1361 437 1410 c 1
 452 1430 481 1446 524 1446 c 0
 604 1446 652 1399 703 1361 c 1
 828 1103 l 1
EndSplineSet
EndChar

